<svg width="45" height="44" viewBox="0 0 45 44" fill="none" xmlns="http://www.w3.org/2000/svg">
<path d="M18.9939 3.42188L21.1619 1.25391C22.0798 0.335937 23.5642 0.335937 24.4724 1.25391L43.4568 20.2285C44.3748 21.1465 44.3748 22.6309 43.4568 23.5391L24.4724 42.5234C23.5544 43.4414 22.0701 43.4414 21.1619 42.5234L18.9939 40.3555C18.0662 39.4277 18.0857 37.9141 19.033 37.0059L30.8005 25.7949H2.73413C1.4353 25.7949 0.390381 24.75 0.390381 23.4512V20.3262C0.390381 19.0273 1.4353 17.9824 2.73413 17.9824H30.8005L19.033 6.77148C18.0759 5.86328 18.0564 4.34961 18.9939 3.42188Z" fill="white"/>
</svg>
