<svg width="20" height="16" viewBox="0 0 20 16" fill="none" xmlns="http://www.w3.org/2000/svg">
<path d="M10.108 8.71876L3.46741 15.3594C3.00842 15.8184 2.26624 15.8184 1.81213 15.3594L0.708618 14.2559C0.249634 13.7969 0.249634 13.0547 0.708618 12.6006L5.41565 7.89357L0.708618 3.18653C0.249634 2.72754 0.249634 1.98535 0.708618 1.53125L1.80725 0.417969C2.26624 -0.0410158 3.00842 -0.0410158 3.46252 0.417969L10.1032 7.0586C10.567 7.51759 10.567 8.25978 10.108 8.71876ZM19.483 7.0586L12.8424 0.417969C12.3834 -0.0410158 11.6412 -0.0410158 11.1871 0.417969L10.0836 1.52149C9.62464 1.98047 9.62464 2.72266 10.0836 3.17676L14.7907 7.8838L10.0836 12.5908C9.62464 13.0498 9.62464 13.792 10.0836 14.2461L11.1871 15.3496C11.6461 15.8086 12.3883 15.8086 12.8424 15.3496L19.483 8.70899C19.942 8.25978 19.942 7.51759 19.483 7.0586Z" fill="#000000"/>
</svg>
