<svg width="36" height="36" viewBox="0 0 36 36" fill="none" xmlns="http://www.w3.org/2000/svg">
<path d="M15.3828 3.22656L17.1172 1.49219C17.8516 0.757812 19.0391 0.757812 19.7656 1.49219L34.9531 16.6719C35.6875 17.4062 35.6875 18.5938 34.9531 19.3203L19.7656 34.5078C19.0312 35.2422 17.8438 35.2422 17.1172 34.5078L15.3828 32.7734C14.6406 32.0312 14.6562 30.8203 15.4141 30.0938L24.8281 21.125H2.375C1.33594 21.125 0.5 20.2891 0.5 19.25V16.75C0.5 15.7109 1.33594 14.875 2.375 14.875H24.8281L15.4141 5.90625C14.6484 5.17969 14.6328 3.96875 15.3828 3.22656Z" fill="#171717"/>
</svg>
