<svg width="376" height="68" viewBox="0 0 376 68" fill="none" xmlns="http://www.w3.org/2000/svg">
<rect x="1.5625" y="1" width="372.875" height="66" fill="white"/>
<path d="M41.5147 34.8301L34.874 41.4707C34.415 41.9297 33.6729 41.9297 33.2188 41.4707L32.1152 40.3672C31.6562 39.9082 31.6562 39.166 32.1152 38.7119L36.8223 34.0049L32.1152 29.2979C31.6562 28.8389 31.6562 28.0967 32.1152 27.6426L33.2139 26.5293C33.6729 26.0703 34.415 26.0703 34.8691 26.5293L41.5098 33.1699C41.9736 33.6289 41.9736 34.3711 41.5147 34.8301ZM50.8897 33.1699L44.249 26.5293C43.79 26.0703 43.0479 26.0703 42.5938 26.5293L41.4902 27.6328C41.0313 28.0918 41.0313 28.834 41.4902 29.2881L46.1973 33.9951L41.4902 38.7022C41.0313 39.1611 41.0313 39.9033 41.4902 40.3574L42.5938 41.461C43.0527 41.9199 43.7949 41.9199 44.249 41.461L50.8897 34.8203C51.3486 34.3711 51.3486 33.6289 50.8897 33.1699Z" fill="black"/>
<path d="M90.9885 24.55C91.8885 25.425 92.5885 26.45 93.2385 27.675C93.3385 27.85 93.4635 27.9 93.6385 27.8L94.7635 27.125C94.9635 27 94.9635 26.875 94.8885 26.725C94.2885 25.6 93.4885 24.5 92.7635 23.825C92.6385 23.7 92.5385 23.675 92.4135 23.75L90.9885 24.55ZM93.4385 23.125C94.3885 24.075 95.0885 25.1 95.6635 26.225C95.7385 26.375 95.8635 26.475 96.0885 26.35L97.1385 25.675C97.3635 25.525 97.3385 25.375 97.2635 25.225C96.7885 24.3 95.9885 23.225 95.1385 22.425C95.0135 22.3 94.9385 22.25 94.7885 22.35L93.4385 23.125ZM86.2635 28.1C87.6385 28.1 89.1135 28.125 90.4635 28.175C90.7385 28.175 90.7885 28.05 90.7885 27.7C90.8385 27.1 90.8385 26.475 90.7885 25.875C90.7885 25.55 90.7385 25.4 90.4885 25.4C89.2385 25.475 87.6635 25.5 86.2635 25.5H81.6635C80.5385 25.5 79.2635 25.475 77.5135 25.375C77.5885 26.275 77.6135 27.175 77.6885 27.775C77.7135 28.075 77.7885 28.2 78.1135 28.2C79.5135 28.15 80.5135 28.1 81.6635 28.1H86.2635ZM89.9635 33.9C91.6885 33.9 93.4135 33.95 94.7135 34C94.9385 34 95.0885 33.9 95.0885 33.575C95.1135 33.25 95.1135 31.975 95.0885 31.65C95.0885 31.3 95.0635 31.15 94.8135 31.15C93.3385 31.25 91.8885 31.3 89.9385 31.3H78.7135C77.2635 31.3 75.8635 31.3 74.4635 31.175C74.4635 31.925 74.5385 32.875 74.6635 33.575C74.6885 33.9 74.7635 34.075 74.9885 34.05C76.2635 33.975 77.4885 33.9 78.7385 33.9H83.4885C83.3885 36.275 83.1385 37.625 82.2135 39.275C81.1635 41.175 79.6885 42.4 77.2385 43.725C78.1135 44.05 78.9635 44.55 79.4635 45.05C79.6385 45.225 79.8135 45.3 79.9885 45.3C80.2135 45.3 80.4635 45.175 80.7385 45C82.3385 44.05 84.1385 42.225 85.1385 40.275C86.1135 38.375 86.4635 36.7 86.6135 33.9H89.9635ZM112.688 36.275C114.538 36.275 116.388 36.3 118.263 36.325C118.613 36.35 118.713 36.25 118.713 35.95C118.763 35.2 118.763 34.35 118.713 33.6C118.713 33.3 118.638 33.225 118.263 33.25C116.338 33.275 114.413 33.325 112.513 33.325H104.463C101.938 33.325 100.688 33.275 99.0625 33.025C99.1625 34.3 99.3125 35.475 99.4375 36.05C99.5125 36.425 99.7125 36.575 100.013 36.575C100.263 36.575 101.213 36.275 103.688 36.275H112.688ZM134.238 27.475C134.663 26.825 134.813 26.575 135.013 26.225C135.138 26.05 135.313 25.85 135.538 25.7C135.713 25.575 135.838 25.375 135.838 25.2C135.838 25.05 135.763 24.9 135.562 24.8C134.788 24.3 133.488 23.875 132.638 23.575C132.413 24.625 132.088 25.3 131.288 26.65C129.588 29.425 127.713 31.725 124.213 34.5C125.038 34.85 125.688 35.2 126.313 35.65C126.438 35.775 126.588 35.825 126.713 35.825C126.888 35.825 127.038 35.725 127.213 35.6C128.888 34.325 130.513 32.6 132.563 29.975L138.763 29.85C137.963 31.625 137.038 33.25 135.838 34.8C134.613 33.95 133.513 33.225 132.613 32.8C132.513 32.75 132.438 32.7 132.363 32.7C132.238 32.7 132.138 32.775 132.038 32.875C131.463 33.4 130.938 34.05 130.388 34.65C131.913 35.45 133.038 36.225 133.988 37C131.163 40 128.663 41.8 124.788 43.775C125.663 44.075 126.363 44.4 127.163 45.05C127.338 45.2 127.488 45.275 127.638 45.275C127.838 45.275 128.037 45.175 128.263 45.05C131.113 43.5 133.688 41.55 136.238 38.8C137.062 39.525 138.063 40.525 138.663 41.225C138.763 41.325 138.863 41.375 138.938 41.375C139.038 41.375 139.138 41.325 139.238 41.25C139.663 40.9 140.438 40.1 140.788 39.675C140.888 39.575 140.938 39.45 140.938 39.35C140.938 39.225 140.888 39.1 140.788 39C140.063 38.175 139.113 37.3 138.088 36.475C139.513 34.6 140.688 32.55 141.763 30.425C142.013 29.95 142.263 29.7 142.513 29.475C142.713 29.3 142.788 29.15 142.788 29C142.788 28.85 142.738 28.7 142.588 28.55C142.138 28.025 141.438 27.35 140.888 27.025C140.713 26.9 140.563 26.825 140.438 26.825C140.313 26.825 140.188 26.875 140.013 27C139.688 27.2 139.363 27.35 138.638 27.375L134.238 27.475ZM170.138 25.85C170.138 25.625 170.113 25.6 169.888 25.6C169.738 25.6 169.038 25.65 166.938 25.65H161.388L161.713 25C161.913 24.575 162.062 24.3 162.188 24.175C162.288 24.075 162.388 23.95 162.388 23.8C162.388 23.65 162.263 23.55 162.088 23.5C161.288 23.275 160.663 23.125 159.888 22.975C159.788 23.55 159.588 24.1 159.413 24.5C158.688 26.15 157.713 27.625 156.113 29.15C156.138 28.675 156.163 28.45 156.238 28.275C156.313 28.075 156.438 27.9 156.438 27.725C156.438 27.575 156.238 27.45 156.013 27.425C155.163 27.325 154.513 27.275 153.538 27.25C153.663 28.225 153.713 28.975 153.713 30.475V38.5C153.713 40.7 153.663 41.775 153.663 41.925C153.663 42.2 153.688 42.225 153.938 42.225H155.863C156.113 42.225 156.138 42.2 156.138 41.925C156.138 41.775 156.088 40.7 156.088 38.5V29.275C156.488 29.525 156.813 29.8 157.138 30.2C157.388 30.5 157.513 30.65 157.663 30.65C157.788 30.65 157.938 30.5 158.213 30.25C158.638 29.8 159.038 29.35 159.388 28.925C159.938 29.85 160.613 30.65 161.388 31.375C159.913 32.15 158.188 32.725 156.263 33.175C156.588 33.525 156.863 33.975 157.113 34.55C157.313 35 157.388 35.175 157.638 35.175C157.763 35.175 157.913 35.125 158.163 35.05C160.063 34.475 161.763 33.75 163.263 32.825C164.863 33.875 166.788 34.7 169.063 35.375C169.313 35.45 169.488 35.5 169.613 35.5C169.838 35.5 169.888 35.325 170.063 34.8C170.263 34.15 170.538 33.65 170.863 33.2C168.713 32.825 166.838 32.2 165.238 31.35C166.363 30.325 167.313 29.125 168.013 27.7C169.288 27.725 169.763 27.75 169.888 27.75C170.113 27.75 170.138 27.725 170.138 27.45V25.85ZM165.413 27.7C164.838 28.65 164.138 29.45 163.313 30.125C162.438 29.425 161.688 28.625 161.063 27.7H165.413ZM149.888 41.875C149.888 44.325 149.838 45.525 149.838 45.675C149.838 45.925 149.863 45.95 150.112 45.95H152.113C152.363 45.95 152.388 45.925 152.388 45.675C152.388 45.55 152.338 44.325 152.338 41.875V29.175C152.913 28.025 153.388 26.825 153.838 25.575C154.063 24.925 154.163 24.7 154.338 24.525C154.513 24.375 154.588 24.275 154.588 24.1C154.588 23.9 154.488 23.825 154.213 23.725C153.513 23.425 152.713 23.225 151.863 23.025C151.788 23.65 151.663 24.175 151.463 24.775C150.388 27.825 148.913 30.525 146.938 32.75C147.262 33.275 147.588 34.075 147.763 34.9C147.838 35.2 147.938 35.35 148.038 35.35C148.163 35.35 148.288 35.225 148.488 35C148.988 34.4 149.463 33.8 149.913 33.2C149.888 34.325 149.888 35.525 149.888 36.45V41.875ZM156.088 43.8C156.513 44.25 156.838 44.675 157.163 45.375C157.338 45.75 157.413 45.875 157.638 45.875C157.713 45.875 157.938 45.85 158.188 45.8C163.488 44.7 166.338 42.9 169.288 40.325C169.613 40.05 169.888 39.85 170.088 39.75C170.263 39.675 170.363 39.575 170.363 39.425C170.363 39.3 170.288 39.2 170.138 39.075C169.613 38.625 168.913 38.15 168.238 37.75C167.963 38.175 167.713 38.5 167.338 38.85C164.588 41.275 161.438 42.975 156.088 43.8ZM156.963 40.125C157.338 40.475 157.738 40.975 158.013 41.525C158.188 41.85 158.263 42 158.463 42C158.588 42 158.763 41.95 159.062 41.85C162.213 40.9 164.413 39.75 166.438 38.125C166.838 37.8 167.113 37.65 167.338 37.575C167.488 37.525 167.563 37.4 167.563 37.275C167.563 37.15 167.538 37.075 167.363 36.95C166.788 36.525 166.213 36.15 165.513 35.775C165.288 36.1 164.938 36.5 164.588 36.775C162.613 38.25 160.663 39.3 156.963 40.125ZM162.788 33.875C162.563 34.175 162.263 34.475 161.863 34.75C160.713 35.55 158.888 36.325 156.488 36.95C156.863 37.3 157.238 37.725 157.513 38.2C157.688 38.525 157.738 38.65 157.963 38.65C158.088 38.65 158.263 38.6 158.538 38.525C160.638 37.875 162.363 36.95 163.738 35.975C164.113 35.725 164.363 35.6 164.563 35.55C164.738 35.5 164.838 35.4 164.838 35.275C164.838 35.15 164.788 35.075 164.638 34.975C164.088 34.6 163.438 34.2 162.788 33.875ZM183.138 26.95V42.025H179.263V34.725C179.263 32.925 179.313 32.3 179.438 32C179.538 31.8 179.613 31.675 179.613 31.45C179.613 31.3 179.463 31.175 179.188 31.15C178.313 31.05 177.263 31 176.313 30.975C176.488 32.15 176.513 33.05 176.513 34.775V42.025H176.138C173.938 42.025 173.188 41.975 173.038 41.975C172.813 41.975 172.788 42 172.788 42.25V44.325C172.788 44.575 172.813 44.6 173.038 44.6C173.188 44.6 173.938 44.55 176.138 44.55H191.763C193.988 44.55 194.738 44.6 194.888 44.6C195.113 44.6 195.138 44.575 195.138 44.325V42.25C195.138 42 195.113 41.975 194.888 41.975C194.738 41.975 193.988 42.025 191.763 42.025H185.913V35.325H189.388C191.538 35.325 192.288 35.375 192.438 35.375C192.663 35.375 192.688 35.35 192.688 35.1V33.075C192.688 32.825 192.663 32.8 192.438 32.8C192.288 32.8 191.538 32.85 189.388 32.85H185.913V26.95H190.763C193.088 26.95 193.913 27 194.063 27C194.313 27 194.338 26.975 194.338 26.725V24.675C194.338 24.425 194.313 24.4 194.063 24.4C193.913 24.4 193.088 24.45 190.763 24.45H177.188C174.863 24.45 174.038 24.4 173.888 24.4C173.638 24.4 173.613 24.425 173.613 24.675V26.725C173.613 26.975 173.638 27 173.888 27C174.038 27 174.863 26.95 177.188 26.95H183.138ZM211.638 36.375C213.763 35.5 215.388 34.95 217.013 34.375C217.513 34.2 218.013 34.075 218.538 34C218.788 33.95 218.913 33.85 218.913 33.65C218.913 33.5 218.863 33.325 218.713 33.1C218.438 32.65 217.788 31.775 216.963 30.9C216.338 31.55 215.538 32 215.063 32.25C213.788 32.9 212.363 33.55 211.388 34C211.137 32.05 209.988 31.3 208.338 31.3C207.663 31.3 206.638 31.55 205.838 32.075L205.813 32.025C206.563 31.1 207.113 30.175 207.688 29.25C209.513 29.05 211.663 28.775 213.538 28.5C213.888 28.45 213.988 28.35 213.963 28.1C213.938 27.375 213.838 26.8 213.713 26.3C213.663 26.075 213.588 26 213.313 26.05C211.813 26.4 210.288 26.65 208.763 26.825C209.062 26.15 209.188 25.825 209.338 25.475C209.463 25.225 209.613 25 209.763 24.875C209.888 24.775 209.938 24.625 209.938 24.5C209.938 24.325 209.838 24.15 209.637 24.075C208.988 23.825 207.888 23.55 206.788 23.375C206.788 24.05 206.713 24.475 206.613 24.9C206.363 25.775 206.138 26.375 205.863 27.05C203.963 27.15 202.013 27.175 200.112 27.075C200.188 27.825 200.288 28.75 200.363 29.15C200.413 29.425 200.488 29.55 200.713 29.55C202.188 29.55 203.538 29.525 204.713 29.475C203.263 31.975 201.413 33.95 199.488 35.675C199.363 35.775 199.313 35.85 199.313 35.95C199.313 36 199.338 36.075 199.413 36.175C199.737 36.7 200.488 37.475 200.838 37.825C200.938 37.925 201.038 38 201.113 38C201.213 38 201.288 37.925 201.413 37.775C202.213 36.825 202.838 36.1 203.913 35.05C205.063 34.05 206.188 33.3 207.363 33.25C208.488 33.2 208.788 33.7 208.863 34.975C205.088 36.925 203.588 38.675 203.588 41.075C203.588 43.975 205.763 45.2 209.863 45.2C212.288 45.2 213.913 45.15 216.063 44.875C216.263 44.875 216.363 44.7 216.338 44.4C216.338 43.8 216.238 42.925 216.113 42.35C216.088 42.125 215.988 42.05 215.763 42.075C213.838 42.35 211.838 42.575 209.538 42.575C206.913 42.575 206.063 41.9 206.063 40.85C206.063 39.65 206.863 38.675 209.088 37.525C209.062 38.425 209.062 39.675 209.062 40.575C209.062 40.825 209.163 40.975 209.388 40.975C210.088 40.975 210.838 40.9 211.163 40.85C211.488 40.8 211.638 40.675 211.638 40.4V36.375ZM224.938 41.925C224.938 44.35 224.888 45.55 224.888 45.7C224.888 45.95 224.913 45.975 225.163 45.975H227.238C227.488 45.975 227.513 45.95 227.513 45.7C227.513 45.575 227.463 44.35 227.463 41.925V36.975C227.862 37.35 228.213 37.85 228.513 38.35C228.713 38.725 228.813 38.9 228.963 38.9C229.088 38.9 229.238 38.775 229.513 38.575C230.388 37.9 231.188 37.2 231.938 36.45V42.375L231.613 42.425C230.688 42.6 229.888 42.75 228.963 42.825C229.138 43.725 229.338 44.575 229.563 45.3C229.638 45.525 229.738 45.65 229.863 45.65C229.963 45.65 230.063 45.625 230.188 45.5C230.363 45.375 230.638 45.275 231.038 45.175C233.113 44.65 235.562 43.95 237.863 43.2C238.638 42.975 238.638 43 238.663 42.2C238.663 41.6 238.713 40.925 238.788 40.5C237.288 41 235.788 41.425 234.463 41.775V33.45C235.188 32.4 235.813 31.275 236.413 30.025C237.188 36.75 239.513 41.4 243.513 45C243.738 45.225 243.888 45.325 244.013 45.325C244.163 45.325 244.288 45.15 244.488 44.8C244.863 44.15 245.313 43.575 245.813 43.05C243.563 41.3 241.838 39.2 240.613 36.7C241.738 35.875 242.788 35 243.788 34.125C244.188 33.75 244.388 33.65 244.613 33.575C244.888 33.475 245.013 33.35 245.013 33.225C245.013 33.075 244.938 32.975 244.813 32.825C244.288 32.275 243.688 31.7 243.038 31.15C242.788 31.575 242.563 31.9 242.138 32.325C241.563 32.925 240.738 33.7 239.713 34.525C239.213 33.05 238.863 31.425 238.663 29.675H241.413C243.863 29.675 244.713 29.725 244.863 29.725C245.088 29.725 245.113 29.7 245.113 29.45V27.6C245.113 27.35 245.088 27.325 244.863 27.325C244.713 27.325 243.863 27.375 241.413 27.375H237.938V25.575C237.938 24.75 237.988 24.375 238.088 24.15C238.163 23.975 238.238 23.8 238.238 23.625C238.238 23.5 238.063 23.375 237.813 23.375C236.988 23.3 236.163 23.225 235.188 23.2C235.338 24.05 235.363 24.725 235.363 25.675V27.375H232.838C230.388 27.375 229.563 27.325 229.413 27.325C229.163 27.325 229.138 27.35 229.138 27.6V29.45C229.138 29.7 229.163 29.725 229.413 29.725C229.563 29.725 230.388 29.675 232.838 29.675H233.863C232.513 32.425 230.338 34.825 227.463 36.75V29.2C228.037 28.05 228.563 26.875 229.038 25.65C229.263 25 229.388 24.8 229.563 24.65C229.763 24.475 229.863 24.375 229.863 24.2C229.863 24.025 229.713 23.95 229.438 23.825C228.713 23.525 227.913 23.3 227.013 23.075C226.938 23.7 226.813 24.25 226.613 24.85C225.638 27.8 224.113 30.475 221.988 32.85C222.313 33.4 222.588 34.1 222.838 35.025C222.938 35.325 223.013 35.45 223.113 35.45C223.213 35.45 223.363 35.325 223.538 35.1C224.038 34.5 224.513 33.9 224.963 33.275C224.938 34.35 224.938 35.475 224.938 36.375V41.925ZM262.738 26.3C262.538 26.975 262.338 27.55 262.038 28.175C260.388 28.175 259.788 28.125 259.663 28.125C259.388 28.125 259.363 28.15 259.363 28.4C259.363 28.55 259.413 29.4 259.413 31.4V37.95C259.413 39.85 259.363 40.7 259.363 40.85C259.363 41.1 259.388 41.125 259.663 41.125C259.813 41.125 260.488 41.075 262.538 41.075H265.963C267.963 41.075 268.663 41.125 268.838 41.125C269.088 41.125 269.113 41.1 269.113 40.85C269.113 40.7 269.063 39.85 269.063 37.95V31.3C269.063 29.4 269.113 28.525 269.113 28.4C269.113 28.15 269.088 28.125 268.838 28.125C268.663 28.125 267.963 28.175 265.963 28.175H264.513C264.788 27.6 265.063 27 265.313 26.3H266.913C269.163 26.3 269.913 26.35 270.063 26.35C270.288 26.35 270.313 26.325 270.313 26.075V24.25C270.313 24 270.288 23.975 270.063 23.975C269.913 23.975 269.163 24.025 266.913 24.025H261.613C259.388 24.025 258.638 23.975 258.488 23.975C258.238 23.975 258.213 24 258.213 24.25V25.9C257.863 25.9 257.063 25.925 255.438 25.925H254.338V25.775C254.338 24.7 254.388 24.35 254.513 24.075C254.588 23.9 254.663 23.75 254.663 23.575C254.663 23.475 254.513 23.35 254.238 23.325C253.388 23.225 252.838 23.175 251.938 23.15C252.063 24.1 252.088 24.575 252.088 25.925H250.863C248.738 25.925 248.038 25.875 247.888 25.875C247.638 25.875 247.613 25.9 247.613 26.125V27.825C247.613 28.075 247.638 28.1 247.888 28.1C248.038 28.1 248.738 28.05 250.863 28.05H252.088V30.025H251.388C249.463 30.025 248.813 29.975 248.638 29.975C248.388 29.975 248.363 30 248.363 30.25C248.363 30.425 248.413 30.95 248.413 32.25V34.7C248.413 36 248.363 36.55 248.363 36.7C248.363 36.95 248.388 36.975 248.638 36.975C248.813 36.975 249.463 36.925 251.388 36.925H251.488C250.488 38.9 248.888 40.65 247.163 41.95C247.513 42.325 247.838 42.75 248.138 43.4C248.288 43.75 248.388 43.9 248.513 43.9C248.638 43.9 248.788 43.775 249.013 43.55C250.338 42.25 251.338 40.8 252.138 39.125C252.088 42.45 251.963 45.35 251.963 45.75C251.963 45.975 251.988 46 252.263 46H254.188C254.438 46 254.463 45.975 254.463 45.75C254.463 45.35 254.313 42.425 254.288 39.025C254.963 40.175 255.713 41.05 256.463 41.825C256.713 42.075 256.838 42.2 256.963 42.2C257.088 42.2 257.213 42.025 257.438 41.7C257.738 41.25 258.088 40.85 258.438 40.5C257.063 39.525 255.738 38.375 254.788 36.925H255.113C257.038 36.925 257.688 36.975 257.838 36.975C258.088 36.975 258.113 36.95 258.113 36.7C258.113 36.55 258.063 36 258.063 34.7V32.25C258.063 30.95 258.113 30.4 258.113 30.25C258.113 30 258.088 29.975 257.838 29.975C257.688 29.975 257.038 30.025 255.113 30.025H254.338V28.05H255.438C257.588 28.05 258.288 28.1 258.438 28.1C258.688 28.1 258.713 28.075 258.713 27.825V26.35C259.088 26.325 259.913 26.3 261.613 26.3H262.738ZM266.688 39H261.763V37.225H266.688V39ZM261.763 35.35V33.7H266.688V35.35H261.763ZM266.688 30.25V31.825H261.763V30.25H266.688ZM255.888 35H254.338V31.975H255.888V35ZM250.588 35V31.975H252.088V35H250.588ZM261.263 41.175C260.988 41.525 260.713 41.825 260.413 42.05C259.213 43 258.163 43.6 256.313 44.25C256.638 44.525 257.038 44.975 257.363 45.5C257.638 45.925 257.738 46.075 257.913 46.075C258.038 46.075 258.213 46 258.513 45.875C260.063 45.175 261.213 44.325 262.288 43.4C262.563 43.2 262.738 43.05 262.938 42.95C263.113 42.875 263.238 42.8 263.238 42.65C263.238 42.525 263.188 42.4 262.963 42.25C262.488 41.875 261.913 41.5 261.263 41.175ZM264.963 42.325C264.713 42.55 264.638 42.6 264.838 42.8C265.913 43.875 267.163 44.875 268.663 45.675C268.963 45.825 269.138 45.925 269.288 45.925C269.463 45.925 269.563 45.75 269.788 45.325C270.113 44.75 270.463 44.25 270.813 43.925C269.363 43.375 267.838 42.475 266.538 41.325C266.438 41.225 266.363 41.175 266.288 41.175C266.213 41.175 266.138 41.225 266.013 41.35L264.963 42.325ZM283.863 27.625C280.863 27.8 277.638 28 276.113 28.125C274.788 28.225 273.988 28.325 273.063 28.225C273.263 29.25 273.488 30.25 273.688 30.75C273.763 31 273.863 31.1 274.113 31.1C274.338 31.1 274.737 30.875 275.288 30.8C277.263 30.525 280.788 30.225 283.938 30.05C283.938 30.875 283.963 31.725 283.963 32.6C283.563 32.25 282.813 32.1 282.063 32.1C280.038 32.1 278.288 33.525 278.288 35.85C278.288 38.25 279.788 39.675 281.763 39.675C282.588 39.675 283.613 39.4 284.113 38.675C283.663 40.775 281.913 42.875 278.988 44.175C279.638 44.375 280.313 44.7 280.888 45.175C281.138 45.375 281.413 45.55 281.638 45.55C281.863 45.55 282.188 45.35 282.613 45.075C285.888 42.925 287.062 39.9 287.062 37C287.062 36.175 286.938 35.2 286.688 34.525C286.663 33 286.663 31.4 286.663 29.875C289.263 29.85 291.688 29.85 294.288 29.925C294.588 29.95 294.713 29.875 294.713 29.6C294.738 28.975 294.738 28.325 294.713 27.7C294.688 27.375 294.638 27.325 294.338 27.325C291.938 27.325 289.363 27.35 286.663 27.45C286.688 26.5 286.688 26.175 286.713 25.85C286.763 25.525 286.838 25.275 286.913 25.125C287.062 24.875 287.138 24.75 287.138 24.55C287.138 24.325 286.863 24.15 286.438 24.075C285.838 23.95 284.637 23.8 283.513 23.725C283.713 24.475 283.763 24.825 283.813 25.55C283.838 26.225 283.838 26.85 283.863 27.625ZM282.263 34.05C283.263 34.05 283.913 34.625 283.913 35.65C283.913 36.8 283.138 37.375 282.213 37.375C281.313 37.375 280.613 36.775 280.613 35.675C280.613 34.575 281.488 34.05 282.263 34.05ZM306.362 33.45C308.262 31.625 309.937 29.875 311.762 28.1C312.237 27.675 312.437 27.5 312.862 27.3C313.137 27.175 313.287 26.95 313.287 26.7C313.287 26.5 313.212 26.325 313.012 26.1C312.587 25.575 312.087 25.075 311.337 24.5C311.162 24.375 311.012 24.3 310.762 24.3C310.637 24.3 310.412 24.425 310.287 24.5C310.037 24.625 309.537 24.75 308.912 24.875C306.962 25.25 304.762 25.575 303.237 25.725C302.487 25.775 301.662 25.775 300.912 25.675C301.262 27.1 301.487 27.8 301.787 28.375C301.912 28.675 302.087 28.8 302.337 28.8C302.462 28.8 302.712 28.725 302.837 28.675C303.237 28.525 303.562 28.45 303.887 28.375C305.437 28.05 307.212 27.7 308.712 27.425C307.562 28.85 306.387 30.1 304.837 31.7C302.587 34.05 300.862 35.65 298.912 37.225C298.712 37.425 298.637 37.6 298.787 37.8C299.187 38.325 299.737 38.975 300.262 39.425C300.412 39.575 300.537 39.65 300.637 39.65C300.762 39.65 300.887 39.55 301.062 39.375C301.812 38.625 302.512 37.9 303.237 37.25C305.262 35.525 307.562 34.6 309.637 34.6C311.962 34.6 313.562 36.1 313.562 38.375C313.562 40.275 312.762 41.375 311.012 42.175C310.387 39.775 308.662 38.525 306.312 38.525C304.362 38.525 302.787 39.9 302.787 41.575C302.787 43.9 304.687 45.25 307.837 45.25C313.187 45.25 316.562 42.575 316.562 38.4C316.562 34.8 314.012 32.4 310.362 32.4C308.962 32.4 307.787 32.725 306.387 33.525L306.362 33.45ZM308.537 42.8C308.162 42.875 307.837 42.9 307.387 42.9C305.887 42.9 305.212 42.375 305.212 41.6C305.212 41.075 305.687 40.65 306.412 40.65C307.462 40.65 308.212 41.425 308.537 42.8ZM334.862 24.2H330.962L331.662 39.075H334.187L334.862 24.2ZM331.112 41.5V44.875H334.662V41.5H331.112Z" fill="black"/>
<rect x="1.5625" y="1" width="372.875" height="66" stroke="black" stroke-width="2"/>
</svg>
