<svg width="203" height="71" viewBox="0 0 203 71" fill="none" xmlns="http://www.w3.org/2000/svg">
<rect x="0.327881" y="0.563477" width="201.875" height="70" rx="6" fill="#FAEA5B"/>
<path d="M40.3879 37.5035C39.7079 40.0835 38.1279 41.9235 35.0479 43.4835C35.4279 43.7835 35.7879 44.2235 36.0679 44.7235C36.2479 45.0435 36.3279 45.1835 36.4679 45.1835C36.5879 45.1835 36.7279 45.1035 36.9679 44.9635C39.7879 43.2635 41.3279 41.1435 42.0879 38.8235C43.1679 41.4635 45.1079 43.3635 47.7679 44.9035C48.0079 45.0235 48.1479 45.1035 48.2479 45.1035C48.3879 45.1035 48.4679 44.9635 48.6079 44.6235C48.8679 44.0235 49.1679 43.4835 49.4879 43.1235C46.6479 41.9435 44.5279 40.0835 43.4479 37.5035H46.4679C48.4279 37.5035 49.1079 37.5435 49.2279 37.5435C49.4279 37.5435 49.4479 37.5235 49.4479 37.3235V35.8435C49.4479 35.6235 49.4279 35.6035 49.2279 35.6035C49.1279 35.6035 48.7079 35.6435 47.6679 35.6435V32.2635C47.6679 31.1235 47.7079 30.6235 47.7079 30.5035C47.7079 30.3035 47.6879 30.2835 47.4879 30.2835C47.3679 30.2835 46.7279 30.3235 44.8679 30.3235H43.0479V28.8635C43.0479 28.1835 43.0879 27.8635 43.1879 27.6635C43.2679 27.4835 43.3279 27.3835 43.3279 27.2435C43.3279 27.1235 43.1879 27.0435 42.9879 27.0035C42.3079 26.9235 41.5079 26.8835 40.8079 26.8435C40.9079 27.5435 40.9479 28.0435 40.9479 29.1635V30.3235H39.9879C38.1479 30.3235 37.5079 30.2835 37.4079 30.2835C37.2079 30.2835 37.1879 30.3035 37.1879 30.5035V32.0235C37.1879 32.2235 37.2079 32.2435 37.4079 32.2435C37.5079 32.2435 38.1479 32.2035 39.9879 32.2035H40.9079C40.8879 33.5635 40.8279 34.6835 40.7079 35.6435H39.1679C37.1879 35.6435 36.5079 35.6035 36.3879 35.6035C36.1879 35.6035 36.1679 35.6235 36.1679 35.8435V37.3235C36.1679 37.5235 36.1879 37.5435 36.3879 37.5435C36.5079 37.5435 37.1879 37.5035 39.1679 37.5035H40.3879ZM42.8279 35.6435C42.9279 34.6635 42.9879 33.5435 43.0079 32.2035H45.6079V35.6435H42.8279ZM31.4679 43.7435C32.0279 44.2035 32.4879 44.5035 32.9879 44.8035C33.1279 44.8835 33.2679 44.9635 33.4079 44.9635C33.5279 44.9635 33.6079 44.8435 33.6479 44.6835C33.6879 44.4835 33.7879 44.2235 33.9479 43.8835C34.5679 42.5435 35.1679 41.0035 35.7279 39.4035C35.7879 39.1835 35.8279 39.0635 35.8279 38.9635C35.8279 38.7835 35.7279 38.6835 35.4079 38.4435C34.9879 38.1235 34.5879 37.7635 34.2879 37.4435C33.6479 39.4035 33.0279 40.9835 32.4679 42.1235C32.1279 42.7835 31.8879 43.1835 31.4679 43.7435ZM32.2479 28.3035C32.1479 28.4235 32.1079 28.4835 32.1079 28.5435C32.1079 28.5835 32.1479 28.6235 32.2479 28.6835C33.2079 29.2635 34.3279 30.1635 35.2079 31.0235C35.3679 31.1435 35.4079 31.1635 35.5479 30.9635L36.4679 29.7035C36.5479 29.5835 36.5879 29.5235 36.5879 29.4635C36.5879 29.4035 36.5479 29.3435 36.4679 29.2835C35.5879 28.5035 34.5479 27.7035 33.5479 27.1435C33.3879 27.0435 33.3279 27.0435 33.1679 27.2235L32.2479 28.3035ZM31.4479 33.4035C31.3679 33.5035 31.3079 33.5835 31.3079 33.6435C31.3079 33.6835 31.3679 33.7235 31.4679 33.7835C32.4479 34.3835 33.4479 35.1635 34.3079 36.0035C34.3879 36.0835 34.4479 36.1235 34.4879 36.1235C34.5479 36.1235 34.5879 36.0835 34.6479 35.9835L35.5479 34.7035C35.6279 34.5835 35.6679 34.5235 35.6679 34.4635C35.6679 34.4235 35.6279 34.3835 35.5479 34.3035C34.6479 33.4835 33.6479 32.7635 32.6679 32.2235C32.4879 32.1235 32.4279 32.1235 32.2679 32.3235L31.4479 33.4035ZM51.3679 33.3835C51.2879 33.4835 51.2279 33.5635 51.2279 33.6235C51.2279 33.6635 51.2879 33.7035 51.3879 33.7635C52.3679 34.3635 53.3479 35.1035 54.1879 35.9435C54.2679 36.0235 54.3279 36.0635 54.3679 36.0635C54.4279 36.0635 54.4679 36.0235 54.5279 35.9235L55.5079 34.5635C55.6879 34.8635 55.8679 35.2635 56.0079 35.7035C56.1879 36.2835 56.2079 36.2635 56.7679 36.1835C57.1479 36.1235 57.5279 36.0635 57.9079 35.9835C57.9079 37.9235 57.8879 39.1435 57.5679 40.3235C57.1679 41.8635 56.4079 42.9235 55.1279 43.8035C55.5279 44.0235 55.9679 44.3435 56.3679 44.7435C56.5879 44.9635 56.7079 45.0635 56.8279 45.0635C56.9479 45.0635 57.0679 44.9635 57.3079 44.7635C58.3279 43.8635 58.9679 42.7635 59.3679 41.3035H65.1679V42.3635C65.1679 43.9435 65.1279 44.7035 65.1279 44.8235C65.1279 45.0235 65.1479 45.0435 65.3479 45.0435H66.9279C67.1479 45.0435 67.1679 45.0235 67.1679 44.8235C67.1679 44.7035 67.1279 43.9435 67.1279 42.3635V36.0235C67.5479 36.1035 67.9479 36.1835 68.3879 36.2435C68.9479 36.3235 68.9879 36.3235 69.1279 35.7635C69.2679 35.2235 69.4879 34.6835 69.7079 34.4035C67.7279 34.2035 65.8879 33.8835 64.3279 33.3235C65.3079 32.5635 66.1279 31.6835 66.8279 30.6235C68.2679 30.6435 68.8279 30.6635 68.9479 30.6635C69.1479 30.6635 69.1679 30.6435 69.1679 30.4435V29.1435C69.1679 28.9635 69.1479 28.9435 68.9479 28.9435C68.8279 28.9435 68.1479 28.9835 66.1879 28.9835H63.4279V28.6635C63.4279 27.9435 63.4279 27.7435 63.5079 27.5635C63.5679 27.4235 63.6479 27.3235 63.6479 27.1435C63.6479 27.0635 63.5279 26.9635 63.3279 26.9435C62.6279 26.8635 61.9479 26.8235 61.2079 26.8035C61.3279 27.4435 61.3479 28.0435 61.3479 28.7235V28.9835H59.3879C57.4479 28.9835 56.7679 28.9435 56.6479 28.9435C56.4279 28.9435 56.4079 28.9635 56.4079 29.1435V30.4435C56.4079 30.6435 56.4279 30.6635 56.6479 30.6635C56.7279 30.6635 57.1479 30.6435 58.0879 30.6235C58.7879 31.7235 59.6479 32.6235 60.6479 33.3635C59.1879 33.9035 57.4679 34.2635 55.5479 34.4435C55.5679 34.3635 55.5279 34.3235 55.4479 34.2435C54.5279 33.4235 53.5679 32.7435 52.5879 32.2035C52.4079 32.1035 52.3479 32.1035 52.1879 32.3035L51.3679 33.3835ZM59.7079 39.6435C59.7679 39.1435 59.8079 38.6435 59.8479 38.1035H65.1679V39.6435H59.7079ZM59.8879 35.4835C60.8079 35.2035 61.6679 34.8835 62.4479 34.4835C63.3079 34.9035 64.2079 35.2435 65.1679 35.5235V36.4435H59.8879V35.4835ZM64.5279 30.6235C63.9879 31.3435 63.3079 31.9635 62.4679 32.4635C61.6079 31.9635 60.8679 31.3635 60.2879 30.6235H64.5279ZM51.3479 43.6435C51.9079 44.1235 52.4279 44.4435 52.9079 44.7435C53.0479 44.8435 53.1679 44.8835 53.2679 44.8835C53.4079 44.8835 53.5079 44.7835 53.5279 44.6235C53.5479 44.4235 53.6679 44.1635 53.8279 43.8235C54.4879 42.5035 55.1079 40.9635 55.7079 39.4035C55.7879 39.1835 55.8279 39.0435 55.8279 38.9435C55.8279 38.7635 55.7079 38.6635 55.4079 38.4235C55.0079 38.1035 54.5879 37.7235 54.2879 37.4235C53.6079 39.3635 52.9279 40.9235 52.3679 42.0635C52.0279 42.7235 51.7679 43.1235 51.3479 43.6435ZM52.0879 28.3635C51.9879 28.4835 51.9479 28.5435 51.9479 28.6035C51.9479 28.6435 51.9879 28.6835 52.0879 28.7435C53.0479 29.3235 54.0279 30.1435 54.9079 31.0035C55.0679 31.1235 55.1079 31.1435 55.2679 30.9435L56.1679 29.6835C56.2479 29.5635 56.2879 29.5035 56.2879 29.4435C56.2879 29.3835 56.2479 29.3235 56.1679 29.2635C55.2879 28.4635 54.3879 27.7635 53.4079 27.1835C53.2279 27.0835 53.1679 27.0835 53.0079 27.2835L52.0879 28.3635ZM79.3479 29.5035V31.4635H78.2279C76.4479 31.4635 75.8479 31.4235 75.7079 31.4235C75.5079 31.4235 75.4879 31.4435 75.4879 31.6635C75.4879 31.7835 75.5279 32.4035 75.5279 33.8235V38.3635C75.5279 39.7635 75.4879 40.4035 75.4879 40.5235C75.4879 40.7235 75.5079 40.7435 75.7079 40.7435C75.8479 40.7435 76.4479 40.7035 78.2279 40.7035H82.4279C84.2279 40.7035 84.8279 40.7435 84.9479 40.7435C85.1679 40.7435 85.1879 40.7235 85.1879 40.5235C85.1879 40.4035 85.1479 39.7635 85.1479 38.3635V33.8235C85.1479 32.4035 85.1879 31.7835 85.1879 31.6635C85.1879 31.4435 85.1679 31.4235 84.9479 31.4235C84.8279 31.4235 84.2279 31.4635 82.4279 31.4635H81.2079V29.5035H86.3279C88.1479 29.5035 88.7479 29.5435 88.8679 29.5435C89.0679 29.5435 89.0879 29.5235 89.0879 29.3435V27.8035C89.0879 27.5835 89.0679 27.5635 88.8679 27.5635C88.7479 27.5635 88.1479 27.6035 86.3279 27.6035H74.3279C72.5279 27.6035 71.9079 27.5635 71.7879 27.5635C71.5879 27.5635 71.5679 27.5835 71.5679 27.8035V29.3435C71.5679 29.5235 71.5879 29.5435 71.7879 29.5435C71.9079 29.5435 72.5279 29.5035 74.3279 29.5035H79.3479ZM83.3279 39.0635H81.1879V36.7635H83.3279V39.0635ZM77.3279 39.0635V36.7635H79.3679V39.0635H77.3279ZM83.3279 33.1035V35.2235H81.1879V33.1035H83.3279ZM77.3279 35.2235V33.1035H79.3679V35.2235H77.3279ZM86.7279 42.1835H73.9679V34.5235C73.9679 33.3035 73.9879 32.6435 74.1079 32.4435C74.1679 32.3235 74.2479 32.2035 74.2479 32.0235C74.2479 31.8635 74.1079 31.7635 73.8679 31.7235C73.2279 31.6435 72.6479 31.6035 71.8679 31.5635C71.9679 32.2435 71.9879 33.3635 71.9879 34.3835V40.9235C71.9879 43.4435 71.9479 44.7235 71.9479 44.8635C71.9479 45.0635 71.9679 45.0835 72.1679 45.0835H73.7479C73.9479 45.0835 73.9679 45.0635 73.9679 44.8635V44.0635H86.7279V44.8635C86.7279 45.0635 86.7479 45.0835 86.9479 45.0835H88.5479C88.7479 45.0835 88.7679 45.0635 88.7679 44.8635C88.7679 44.7435 88.7279 43.4235 88.7279 40.8835V34.5035C88.7279 33.1835 88.7679 32.5835 88.8879 32.4035C88.9679 32.2835 89.0079 32.1635 89.0079 32.0235C89.0079 31.8435 88.8679 31.7635 88.6279 31.7235C87.9879 31.6435 87.3679 31.6035 86.6079 31.5635C86.7079 32.3435 86.7279 33.5235 86.7279 34.4835V42.1835ZM98.9479 29.5435C98.6879 30.3035 98.3479 31.1235 97.9679 31.8235H95.2079C93.3079 31.8235 92.6279 31.7835 92.4879 31.7835C92.2879 31.7835 92.2679 31.8035 92.2679 32.0035C92.2679 32.1435 92.3079 33.0235 92.3079 36.2235V39.4235C92.3079 43.8835 92.2679 44.7235 92.2679 44.8635C92.2679 45.0635 92.2879 45.0835 92.4879 45.0835H94.1679C94.3679 45.0835 94.3879 45.0635 94.3879 44.8635V44.0635H106.268V44.8035C106.268 45.0035 106.288 45.0235 106.488 45.0235H108.188C108.388 45.0235 108.408 45.0035 108.408 44.8035C108.408 44.6835 108.368 43.8435 108.368 39.4035V35.7835C108.368 33.0035 108.408 32.1235 108.408 32.0035C108.408 31.8035 108.388 31.7835 108.188 31.7835C108.048 31.7835 107.368 31.8235 105.468 31.8235H100.228C100.608 31.1035 100.928 30.3435 101.208 29.5435H106.408C108.208 29.5435 108.808 29.5835 108.928 29.5835C109.148 29.5835 109.168 29.5635 109.168 29.3835V27.8235C109.168 27.6235 109.148 27.6035 108.928 27.6035C108.808 27.6035 108.208 27.6435 106.408 27.6435H94.2279C92.4479 27.6435 91.8279 27.6035 91.7079 27.6035C91.5079 27.6035 91.4879 27.6235 91.4879 27.8235V29.3835C91.4879 29.5635 91.5079 29.5835 91.7079 29.5835C91.8279 29.5835 92.4479 29.5435 94.2279 29.5435H98.9479ZM106.268 33.5635V42.2835H103.768V33.5635H106.268ZM94.3879 33.5635H96.8679V42.2835H94.3879V33.5635ZM98.7279 42.2835V40.3835H101.888V42.2835H98.7279ZM98.7279 38.7035V36.9635H101.888V38.7035H98.7279ZM98.7279 35.2835V33.5635H101.888V35.2835H98.7279ZM111.328 36.3035C111.808 37.0035 112.548 37.9635 112.968 38.3835C113.088 38.5035 113.208 38.5635 113.348 38.5635C113.488 38.5635 113.608 38.4835 113.708 38.3235C113.868 38.0635 114.028 37.8635 114.428 37.4435C115.368 36.5035 116.808 35.1235 117.788 34.1435C118.048 33.9035 118.248 33.7235 118.468 33.7235C118.708 33.7235 118.968 33.8235 119.348 34.1835C120.668 35.3635 122.108 36.6435 123.548 37.7235C124.728 38.6435 126.908 40.2435 127.868 40.8035C127.988 40.8835 128.068 40.9035 128.148 40.9035C128.228 40.9035 128.308 40.8435 128.408 40.7035C128.788 40.1835 129.168 39.4235 129.388 38.8235C129.488 38.6435 129.388 38.4835 129.188 38.4035C127.628 37.5235 126.248 36.7435 124.468 35.4635C122.508 34.0235 121.648 33.2235 120.148 32.0235C119.468 31.4635 119.088 31.2835 118.408 31.2835C117.828 31.2835 117.328 31.5235 116.668 32.1235C115.188 33.4635 113.748 34.7035 113.088 35.2235C112.428 35.7435 111.928 36.0635 111.328 36.3035Z" fill="black"/>
<path d="M161.28 36.3936L154.639 43.0342C154.18 43.4932 153.438 43.4932 152.984 43.0342L151.881 41.9307C151.422 41.4717 151.422 40.7295 151.881 40.2754L156.588 35.5684L151.881 30.8613C151.422 30.4023 151.422 29.6602 151.881 29.2061L152.979 28.0928C153.438 27.6338 154.18 27.6338 154.635 28.0928L161.275 34.7334C161.739 35.1924 161.739 35.9346 161.28 36.3936ZM170.655 34.7334L164.014 28.0928C163.555 27.6338 162.813 27.6338 162.359 28.0928L161.256 29.1963C160.797 29.6553 160.797 30.3975 161.256 30.8516L165.963 35.5586L161.256 40.2656C160.797 40.7246 160.797 41.4668 161.256 41.9209L162.359 43.0244C162.818 43.4834 163.56 43.4834 164.014 43.0244L170.655 36.3838C171.114 35.9346 171.114 35.1924 170.655 34.7334Z" fill="black"/>
<rect x="0.327881" y="0.563477" width="201.875" height="70" rx="6" stroke="black"/>
</svg>
