<svg width="277" height="54" viewBox="0 0 277 54" fill="none" xmlns="http://www.w3.org/2000/svg">
<rect x="1.20288" y="1.88867" width="274.125" height="51" fill="white"/>
<path d="M35.6332 21.2187C36.1732 21.7437 36.5932 22.3587 36.9832 23.0937C37.0432 23.1987 37.1182 23.2287 37.2232 23.1687L37.8982 22.7637C38.0182 22.6887 38.0182 22.6137 37.9732 22.5237C37.6132 21.8487 37.1332 21.1887 36.6982 20.7837C36.6232 20.7087 36.5632 20.6937 36.4882 20.7387L35.6332 21.2187ZM37.1032 20.3637C37.6732 20.9337 38.0932 21.5487 38.4382 22.2237C38.4832 22.3137 38.5582 22.3737 38.6932 22.2987L39.3232 21.8937C39.4582 21.8037 39.4432 21.7137 39.3982 21.6237C39.1132 21.0687 38.6332 20.4237 38.1232 19.9437C38.0482 19.8687 38.0032 19.8387 37.9132 19.8987L37.1032 20.3637ZM32.7982 23.3487C33.6232 23.3487 34.5082 23.3637 35.3182 23.3937C35.4832 23.3937 35.5132 23.3187 35.5132 23.1087C35.5432 22.7487 35.5432 22.3737 35.5132 22.0137C35.5132 21.8187 35.4832 21.7287 35.3332 21.7287C34.5832 21.7737 33.6382 21.7887 32.7982 21.7887H30.0382C29.3632 21.7887 28.5982 21.7737 27.5482 21.7137C27.5932 22.2537 27.6082 22.7937 27.6532 23.1537C27.6682 23.3337 27.7132 23.4087 27.9082 23.4087C28.7482 23.3787 29.3482 23.3487 30.0382 23.3487H32.7982ZM35.0182 26.8287C36.0532 26.8287 37.0882 26.8587 37.8682 26.8887C38.0032 26.8887 38.0932 26.8287 38.0932 26.6337C38.1082 26.4387 38.1082 25.6737 38.0932 25.4787C38.0932 25.2687 38.0782 25.1787 37.9282 25.1787C37.0432 25.2387 36.1732 25.2687 35.0032 25.2687H28.2682C27.3982 25.2687 26.5582 25.2687 25.7182 25.1937C25.7182 25.6437 25.7632 26.2137 25.8382 26.6337C25.8532 26.8287 25.8982 26.9337 26.0332 26.9187C26.7982 26.8737 27.5332 26.8287 28.2832 26.8287H31.1332C31.0732 28.2537 30.9232 29.0637 30.3682 30.0537C29.7382 31.1937 28.8532 31.9287 27.3832 32.7237C27.9082 32.9187 28.4182 33.2187 28.7182 33.5187C28.8232 33.6237 28.9282 33.6687 29.0332 33.6687C29.1682 33.6687 29.3182 33.5937 29.4832 33.4887C30.4432 32.9187 31.5232 31.8237 32.1232 30.6537C32.7082 29.5137 32.9182 28.5087 33.0082 26.8287H35.0182ZM48.6526 28.2537C49.7626 28.2537 50.8726 28.2687 51.9976 28.2837C52.2076 28.2987 52.2676 28.2387 52.2676 28.0587C52.2976 27.6087 52.2976 27.0987 52.2676 26.6487C52.2676 26.4687 52.2226 26.4237 51.9976 26.4387C50.8426 26.4537 49.6876 26.4837 48.5476 26.4837H43.7176C42.2026 26.4837 41.4526 26.4537 40.4776 26.3037C40.5376 27.0687 40.6276 27.7737 40.7026 28.1187C40.7476 28.3437 40.8676 28.4337 41.0476 28.4337C41.1976 28.4337 41.7676 28.2537 43.2526 28.2537H48.6526ZM61.5826 22.9737C61.8376 22.5837 61.9276 22.4337 62.0476 22.2237C62.1226 22.1187 62.2276 21.9987 62.3626 21.9087C62.4676 21.8337 62.5426 21.7137 62.5426 21.6087C62.5426 21.5187 62.4976 21.4287 62.3776 21.3687C61.9126 21.0687 61.1326 20.8137 60.6226 20.6337C60.4876 21.2637 60.2926 21.6687 59.8126 22.4787C58.7926 24.1437 57.6676 25.5237 55.5676 27.1887C56.0626 27.3987 56.4526 27.6087 56.8276 27.8787C56.9026 27.9537 56.9926 27.9837 57.0676 27.9837C57.1726 27.9837 57.2626 27.9237 57.3676 27.8487C58.3726 27.0837 59.3476 26.0487 60.5776 24.4737L64.2976 24.3987C63.8176 25.4637 63.2626 26.4387 62.5426 27.3687C61.8076 26.8587 61.1476 26.4237 60.6076 26.1687C60.5476 26.1387 60.5026 26.1087 60.4576 26.1087C60.3826 26.1087 60.3226 26.1537 60.2626 26.2137C59.9176 26.5287 59.6026 26.9187 59.2726 27.2787C60.1876 27.7587 60.8626 28.2237 61.4326 28.6887C59.7376 30.4887 58.2376 31.5687 55.9126 32.7537C56.4376 32.9337 56.8576 33.1287 57.3376 33.5187C57.4426 33.6087 57.5326 33.6537 57.6226 33.6537C57.7426 33.6537 57.8626 33.5937 57.9976 33.5187C59.7076 32.5887 61.2526 31.4187 62.7826 29.7687C63.2776 30.2037 63.8776 30.8037 64.2376 31.2237C64.2976 31.2837 64.3576 31.3137 64.4026 31.3137C64.4626 31.3137 64.5226 31.2837 64.5826 31.2387C64.8376 31.0287 65.3026 30.5487 65.5126 30.2937C65.5726 30.2337 65.6026 30.1587 65.6026 30.0987C65.6026 30.0237 65.5726 29.9487 65.5126 29.8887C65.0776 29.3937 64.5076 28.8687 63.8926 28.3737C64.7476 27.2487 65.4526 26.0187 66.0976 24.7437C66.2476 24.4587 66.3976 24.3087 66.5476 24.1737C66.6676 24.0687 66.7126 23.9787 66.7126 23.8887C66.7126 23.7987 66.6826 23.7087 66.5926 23.6187C66.3226 23.3037 65.9026 22.8987 65.5726 22.7037C65.4676 22.6287 65.3776 22.5837 65.3026 22.5837C65.2276 22.5837 65.1526 22.6137 65.0476 22.6887C64.8526 22.8087 64.6576 22.8987 64.2226 22.9137L61.5826 22.9737ZM83.1226 21.9987C83.1226 21.8637 83.1076 21.8487 82.9726 21.8487C82.8826 21.8487 82.4626 21.8787 81.2026 21.8787H77.8726L78.0676 21.4887C78.1876 21.2337 78.2776 21.0687 78.3526 20.9937C78.4126 20.9337 78.4726 20.8587 78.4726 20.7687C78.4726 20.6787 78.3976 20.6187 78.2926 20.5887C77.8126 20.4537 77.4376 20.3637 76.9726 20.2737C76.9126 20.6187 76.7926 20.9487 76.6876 21.1887C76.2526 22.1787 75.6676 23.0637 74.7076 23.9787C74.7226 23.6937 74.7376 23.5587 74.7826 23.4537C74.8276 23.3337 74.9026 23.2287 74.9026 23.1237C74.9026 23.0337 74.7826 22.9587 74.6476 22.9437C74.1376 22.8837 73.7476 22.8537 73.1626 22.8387C73.2376 23.4237 73.2676 23.8737 73.2676 24.7737V29.5887C73.2676 30.9087 73.2376 31.5537 73.2376 31.6437C73.2376 31.8087 73.2526 31.8237 73.4026 31.8237H74.5576C74.7076 31.8237 74.7226 31.8087 74.7226 31.6437C74.7226 31.5537 74.6926 30.9087 74.6926 29.5887V24.0537C74.9326 24.2037 75.1276 24.3687 75.3226 24.6087C75.4726 24.7887 75.5476 24.8787 75.6376 24.8787C75.7126 24.8787 75.8026 24.7887 75.9676 24.6387C76.2226 24.3687 76.4626 24.0987 76.6726 23.8437C77.0026 24.3987 77.4076 24.8787 77.8726 25.3137C76.9876 25.7787 75.9526 26.1237 74.7976 26.3937C74.9926 26.6037 75.1576 26.8737 75.3076 27.2187C75.4276 27.4887 75.4726 27.5937 75.6226 27.5937C75.6976 27.5937 75.7876 27.5637 75.9376 27.5187C77.0776 27.1737 78.0976 26.7387 78.9976 26.1837C79.9576 26.8137 81.1126 27.3087 82.4776 27.7137C82.6276 27.7587 82.7326 27.7887 82.8076 27.7887C82.9426 27.7887 82.9726 27.6837 83.0776 27.3687C83.1976 26.9787 83.3626 26.6787 83.5576 26.4087C82.2676 26.1837 81.1426 25.8087 80.1826 25.2987C80.8576 24.6837 81.4276 23.9637 81.8476 23.1087C82.6126 23.1237 82.8976 23.1387 82.9726 23.1387C83.1076 23.1387 83.1226 23.1237 83.1226 22.9587V21.9987ZM80.2876 23.1087C79.9426 23.6787 79.5226 24.1587 79.0276 24.5637C78.5026 24.1437 78.0526 23.6637 77.6776 23.1087H80.2876ZM70.9726 31.6137C70.9726 33.0837 70.9426 33.8037 70.9426 33.8937C70.9426 34.0437 70.9576 34.0587 71.1076 34.0587H72.3076C72.4576 34.0587 72.4726 34.0437 72.4726 33.8937C72.4726 33.8187 72.4426 33.0837 72.4426 31.6137V23.9937C72.7876 23.3037 73.0726 22.5837 73.3426 21.8337C73.4776 21.4437 73.5376 21.3087 73.6426 21.2037C73.7476 21.1137 73.7926 21.0537 73.7926 20.9487C73.7926 20.8287 73.7326 20.7837 73.5676 20.7237C73.1476 20.5437 72.6676 20.4237 72.1576 20.3037C72.1126 20.6787 72.0376 20.9937 71.9176 21.3537C71.2726 23.1837 70.3876 24.8037 69.2026 26.1387C69.3976 26.4537 69.5926 26.9337 69.6976 27.4287C69.7426 27.6087 69.8026 27.6987 69.8626 27.6987C69.9376 27.6987 70.0126 27.6237 70.1326 27.4887C70.4326 27.1287 70.7176 26.7687 70.9876 26.4087C70.9726 27.0837 70.9726 27.8037 70.9726 28.3587V31.6137ZM74.6926 32.7687C74.9476 33.0387 75.1426 33.2937 75.3376 33.7137C75.4426 33.9387 75.4876 34.0137 75.6226 34.0137C75.6676 34.0137 75.8026 33.9987 75.9526 33.9687C79.1326 33.3087 80.8426 32.2287 82.6126 30.6837C82.8076 30.5187 82.9726 30.3987 83.0926 30.3387C83.1976 30.2937 83.2576 30.2337 83.2576 30.1437C83.2576 30.0687 83.2126 30.0087 83.1226 29.9337C82.8076 29.6637 82.3876 29.3787 81.9826 29.1387C81.8176 29.3937 81.6676 29.5887 81.4426 29.7987C79.7926 31.2537 77.9026 32.2737 74.6926 32.7687ZM75.2176 30.5637C75.4426 30.7737 75.6826 31.0737 75.8476 31.4037C75.9526 31.5987 75.9976 31.6887 76.1176 31.6887C76.1926 31.6887 76.2976 31.6587 76.4776 31.5987C78.3676 31.0287 79.6876 30.3387 80.9026 29.3637C81.1426 29.1687 81.3076 29.0787 81.4426 29.0337C81.5326 29.0037 81.5776 28.9287 81.5776 28.8537C81.5776 28.7787 81.5626 28.7337 81.4576 28.6587C81.1126 28.4037 80.7676 28.1787 80.3476 27.9537C80.2126 28.1487 80.0026 28.3887 79.7926 28.5537C78.6076 29.4387 77.4376 30.0687 75.2176 30.5637ZM78.7126 26.8137C78.5776 26.9937 78.3976 27.1737 78.1576 27.3387C77.4676 27.8187 76.3726 28.2837 74.9326 28.6587C75.1576 28.8687 75.3826 29.1237 75.5476 29.4087C75.6526 29.6037 75.6826 29.6787 75.8176 29.6787C75.8926 29.6787 75.9976 29.6487 76.1626 29.6037C77.4226 29.2137 78.4576 28.6587 79.2826 28.0737C79.5076 27.9237 79.6576 27.8487 79.7776 27.8187C79.8826 27.7887 79.9426 27.7287 79.9426 27.6537C79.9426 27.5787 79.9126 27.5337 79.8226 27.4737C79.4926 27.2487 79.1026 27.0087 78.7126 26.8137ZM90.9226 22.6587V31.7037H88.5976V27.3237C88.5976 26.2437 88.6276 25.8687 88.7026 25.6887C88.7626 25.5687 88.8076 25.4937 88.8076 25.3587C88.8076 25.2687 88.7176 25.1937 88.5526 25.1787C88.0276 25.1187 87.3976 25.0887 86.8276 25.0737C86.9326 25.7787 86.9476 26.3187 86.9476 27.3537V31.7037H86.7226C85.4026 31.7037 84.9526 31.6737 84.8626 31.6737C84.7276 31.6737 84.7126 31.6887 84.7126 31.8387V33.0837C84.7126 33.2337 84.7276 33.2487 84.8626 33.2487C84.9526 33.2487 85.4026 33.2187 86.7226 33.2187H96.0976C97.4326 33.2187 97.8826 33.2487 97.9726 33.2487C98.1076 33.2487 98.1226 33.2337 98.1226 33.0837V31.8387C98.1226 31.6887 98.1076 31.6737 97.9726 31.6737C97.8826 31.6737 97.4326 31.7037 96.0976 31.7037H92.5876V27.6837H94.6726C95.9626 27.6837 96.4126 27.7137 96.5026 27.7137C96.6376 27.7137 96.6526 27.6987 96.6526 27.5487V26.3337C96.6526 26.1837 96.6376 26.1687 96.5026 26.1687C96.4126 26.1687 95.9626 26.1987 94.6726 26.1987H92.5876V22.6587H95.4976C96.8926 22.6587 97.3876 22.6887 97.4776 22.6887C97.6276 22.6887 97.6426 22.6737 97.6426 22.5237V21.2937C97.6426 21.1437 97.6276 21.1287 97.4776 21.1287C97.3876 21.1287 96.8926 21.1587 95.4976 21.1587H87.3526C85.9576 21.1587 85.4626 21.1287 85.3726 21.1287C85.2226 21.1287 85.2076 21.1437 85.2076 21.2937V22.5237C85.2076 22.6737 85.2226 22.6887 85.3726 22.6887C85.4626 22.6887 85.9576 22.6587 87.3526 22.6587H90.9226ZM107.423 23.6937C109.433 23.6937 110.783 25.3887 110.783 27.1737C110.783 30.0087 108.788 31.0587 106.253 31.6587C106.823 32.0037 107.138 32.3487 107.303 32.6037C107.498 32.9037 107.633 32.9637 107.948 32.8737C110.993 31.9587 112.568 30.2037 112.568 27.4137C112.568 24.4287 110.453 22.2087 106.853 22.2087C104.828 22.2087 103.238 22.8687 101.978 24.1287C100.898 25.2087 100.283 26.5887 100.283 28.0287C100.283 30.4737 101.618 31.8837 102.938 31.8837C104.063 31.8837 104.843 31.2837 105.488 30.1587C106.388 28.5837 107.018 26.2437 107.363 23.6937H107.423ZM105.623 23.7837C105.368 25.7787 104.693 27.9387 104.033 29.1537C103.628 29.8737 103.298 30.0687 102.908 30.0687C102.443 30.0687 101.888 29.3037 101.888 27.9237C101.888 26.9637 102.338 25.9587 103.058 25.1487C103.733 24.4137 104.573 23.9937 105.623 23.7837ZM117.038 28.0437C116.468 28.9287 116.243 29.5737 116.243 30.1887C116.243 32.1387 117.938 33.2187 121.403 33.2187C123.023 33.2187 124.403 33.1137 125.798 32.8587C125.978 32.8287 126.068 32.7687 126.053 32.6337C126.023 32.2587 125.888 31.4487 125.813 31.1637C125.783 31.0287 125.708 30.9837 125.498 31.0287C124.268 31.2987 122.888 31.4637 121.433 31.4637C118.853 31.4637 117.878 30.9987 117.878 30.0537C117.878 29.7537 118.043 29.2587 118.268 28.9137C118.343 28.7937 118.328 28.7187 118.193 28.6437C117.803 28.4337 117.428 28.2387 117.038 28.0437ZM117.368 22.3737C117.338 22.9137 117.308 23.3487 117.308 23.7087C117.308 23.8887 117.368 23.9487 117.503 23.9787C118.358 24.1437 119.648 24.2337 120.263 24.2337C120.563 24.2337 121.028 24.2337 121.358 24.1887C120.833 24.5037 120.173 24.9237 119.393 25.4337C119.828 25.5537 120.143 25.7187 120.443 25.9137C120.548 25.9737 120.653 26.0037 120.758 26.0037C120.878 26.0037 121.013 25.9587 121.133 25.8687C122.348 25.0887 123.383 24.5937 124.808 24.3837C124.988 24.3687 125.063 24.2787 125.063 24.0687C125.048 23.5587 124.988 23.1387 124.928 22.7937C124.913 22.6737 124.853 22.6137 124.703 22.6287C123.743 22.7037 122.678 22.7637 121.583 22.7637C119.948 22.7637 118.508 22.6437 117.368 22.3737ZM124.868 21.6537C125.453 22.1337 125.933 22.7037 126.383 23.3937C126.458 23.4987 126.533 23.5137 126.638 23.4387L127.268 22.9737C127.373 22.8987 127.373 22.8237 127.313 22.7337C126.893 22.0887 126.353 21.4887 125.888 21.1287C125.798 21.0537 125.738 21.0387 125.663 21.0987L124.868 21.6537ZM126.248 20.6637C126.863 21.1737 127.343 21.7437 127.748 22.3887C127.808 22.4787 127.883 22.5237 128.003 22.4337L128.603 21.9687C128.723 21.8787 128.708 21.7887 128.648 21.6987C128.318 21.1737 127.778 20.5737 127.223 20.1537C127.133 20.0787 127.088 20.0637 126.998 20.1237L126.248 20.6637ZM131.003 31.6437C131.003 33.0987 130.973 33.8187 130.973 33.9087C130.973 34.0587 130.988 34.0737 131.138 34.0737H132.383C132.533 34.0737 132.548 34.0587 132.548 33.9087C132.548 33.8337 132.518 33.0987 132.518 31.6437V28.6737C132.758 28.8987 132.968 29.1987 133.148 29.4987C133.268 29.7237 133.328 29.8287 133.418 29.8287C133.493 29.8287 133.583 29.7537 133.748 29.6337C134.273 29.2287 134.753 28.8087 135.203 28.3587V31.9137L135.008 31.9437C134.453 32.0487 133.973 32.1387 133.418 32.1837C133.523 32.7237 133.643 33.2337 133.778 33.6687C133.823 33.8037 133.883 33.8787 133.958 33.8787C134.018 33.8787 134.078 33.8637 134.153 33.7887C134.258 33.7137 134.423 33.6537 134.663 33.5937C135.908 33.2787 137.378 32.8587 138.758 32.4087C139.223 32.2737 139.223 32.2887 139.238 31.8087C139.238 31.4487 139.268 31.0437 139.313 30.7887C138.413 31.0887 137.513 31.3437 136.718 31.5537V26.5587C137.153 25.9287 137.528 25.2537 137.888 24.5037C138.353 28.5387 139.748 31.3287 142.148 33.4887C142.283 33.6237 142.373 33.6837 142.448 33.6837C142.538 33.6837 142.613 33.5787 142.733 33.3687C142.958 32.9787 143.228 32.6337 143.528 32.3187C142.178 31.2687 141.143 30.0087 140.408 28.5087C141.083 28.0137 141.713 27.4887 142.313 26.9637C142.553 26.7387 142.673 26.6787 142.808 26.6337C142.973 26.5737 143.048 26.4987 143.048 26.4237C143.048 26.3337 143.003 26.2737 142.928 26.1837C142.613 25.8537 142.253 25.5087 141.863 25.1787C141.713 25.4337 141.578 25.6287 141.323 25.8837C140.978 26.2437 140.483 26.7087 139.868 27.2037C139.568 26.3187 139.358 25.3437 139.238 24.2937H140.888C142.358 24.2937 142.868 24.3237 142.958 24.3237C143.093 24.3237 143.108 24.3087 143.108 24.1587V23.0487C143.108 22.8987 143.093 22.8837 142.958 22.8837C142.868 22.8837 142.358 22.9137 140.888 22.9137H138.803V21.8337C138.803 21.3387 138.833 21.1137 138.893 20.9787C138.938 20.8737 138.983 20.7687 138.983 20.6637C138.983 20.5887 138.878 20.5137 138.728 20.5137C138.233 20.4687 137.738 20.4237 137.153 20.4087C137.243 20.9187 137.258 21.3237 137.258 21.8937V22.9137H135.743C134.273 22.9137 133.778 22.8837 133.688 22.8837C133.538 22.8837 133.523 22.8987 133.523 23.0487V24.1587C133.523 24.3087 133.538 24.3237 133.688 24.3237C133.778 24.3237 134.273 24.2937 135.743 24.2937H136.358C135.548 25.9437 134.243 27.3837 132.518 28.5387V24.0087C132.863 23.3187 133.178 22.6137 133.463 21.8787C133.598 21.4887 133.673 21.3687 133.778 21.2787C133.898 21.1737 133.958 21.1137 133.958 21.0087C133.958 20.9037 133.868 20.8587 133.703 20.7837C133.268 20.6037 132.788 20.4687 132.248 20.3337C132.203 20.7087 132.128 21.0387 132.008 21.3987C131.423 23.1687 130.508 24.7737 129.233 26.1987C129.428 26.5287 129.593 26.9487 129.743 27.5037C129.803 27.6837 129.848 27.7587 129.908 27.7587C129.968 27.7587 130.058 27.6837 130.163 27.5487C130.463 27.1887 130.748 26.8287 131.018 26.4537C131.003 27.0987 131.003 27.7737 131.003 28.3137V31.6437ZM153.683 22.2687C153.563 22.6737 153.443 23.0187 153.263 23.3937C152.273 23.3937 151.913 23.3637 151.838 23.3637C151.673 23.3637 151.658 23.3787 151.658 23.5287C151.658 23.6187 151.688 24.1287 151.688 25.3287V29.2587C151.688 30.3987 151.658 30.9087 151.658 30.9987C151.658 31.1487 151.673 31.1637 151.838 31.1637C151.928 31.1637 152.333 31.1337 153.563 31.1337H155.618C156.818 31.1337 157.238 31.1637 157.343 31.1637C157.493 31.1637 157.508 31.1487 157.508 30.9987C157.508 30.9087 157.478 30.3987 157.478 29.2587V25.2687C157.478 24.1287 157.508 23.6037 157.508 23.5287C157.508 23.3787 157.493 23.3637 157.343 23.3637C157.238 23.3637 156.818 23.3937 155.618 23.3937H154.748C154.913 23.0487 155.078 22.6887 155.228 22.2687H156.188C157.538 22.2687 157.988 22.2987 158.078 22.2987C158.213 22.2987 158.228 22.2837 158.228 22.1337V21.0387C158.228 20.8887 158.213 20.8737 158.078 20.8737C157.988 20.8737 157.538 20.9037 156.188 20.9037H153.008C151.673 20.9037 151.223 20.8737 151.133 20.8737C150.983 20.8737 150.968 20.8887 150.968 21.0387V22.0287C150.758 22.0287 150.278 22.0437 149.303 22.0437H148.643V21.9537C148.643 21.3087 148.673 21.0987 148.748 20.9337C148.793 20.8287 148.838 20.7387 148.838 20.6337C148.838 20.5737 148.748 20.4987 148.583 20.4837C148.073 20.4237 147.743 20.3937 147.203 20.3787C147.278 20.9487 147.293 21.2337 147.293 22.0437H146.558C145.283 22.0437 144.863 22.0137 144.773 22.0137C144.623 22.0137 144.608 22.0287 144.608 22.1637V23.1837C144.608 23.3337 144.623 23.3487 144.773 23.3487C144.863 23.3487 145.283 23.3187 146.558 23.3187H147.293V24.5037H146.873C145.718 24.5037 145.328 24.4737 145.223 24.4737C145.073 24.4737 145.058 24.4887 145.058 24.6387C145.058 24.7437 145.088 25.0587 145.088 25.8387V27.3087C145.088 28.0887 145.058 28.4187 145.058 28.5087C145.058 28.6587 145.073 28.6737 145.223 28.6737C145.328 28.6737 145.718 28.6437 146.873 28.6437H146.933C146.333 29.8287 145.373 30.8787 144.338 31.6587C144.548 31.8837 144.743 32.1387 144.923 32.5287C145.013 32.7387 145.073 32.8287 145.148 32.8287C145.223 32.8287 145.313 32.7537 145.448 32.6187C146.243 31.8387 146.843 30.9687 147.323 29.9637C147.293 31.9587 147.218 33.6987 147.218 33.9387C147.218 34.0737 147.233 34.0887 147.398 34.0887H148.553C148.703 34.0887 148.718 34.0737 148.718 33.9387C148.718 33.6987 148.628 31.9437 148.613 29.9037C149.018 30.5937 149.468 31.1187 149.918 31.5837C150.068 31.7337 150.143 31.8087 150.218 31.8087C150.293 31.8087 150.368 31.7037 150.503 31.5087C150.683 31.2387 150.893 30.9987 151.103 30.7887C150.278 30.2037 149.483 29.5137 148.913 28.6437H149.108C150.263 28.6437 150.653 28.6737 150.743 28.6737C150.893 28.6737 150.908 28.6587 150.908 28.5087C150.908 28.4187 150.878 28.0887 150.878 27.3087V25.8387C150.878 25.0587 150.908 24.7287 150.908 24.6387C150.908 24.4887 150.893 24.4737 150.743 24.4737C150.653 24.4737 150.263 24.5037 149.108 24.5037H148.643V23.3187H149.303C150.593 23.3187 151.013 23.3487 151.103 23.3487C151.253 23.3487 151.268 23.3337 151.268 23.1837V22.2987C151.493 22.2837 151.988 22.2687 153.008 22.2687H153.683ZM156.053 29.8887H153.098V28.8237H156.053V29.8887ZM153.098 27.6987V26.7087H156.053V27.6987H153.098ZM156.053 24.6387V25.5837H153.098V24.6387H156.053ZM149.573 27.4887H148.643V25.6737H149.573V27.4887ZM146.393 27.4887V25.6737H147.293V27.4887H146.393ZM152.798 31.1937C152.633 31.4037 152.468 31.5837 152.288 31.7187C151.568 32.2887 150.938 32.6487 149.828 33.0387C150.023 33.2037 150.263 33.4737 150.458 33.7887C150.623 34.0437 150.683 34.1337 150.788 34.1337C150.863 34.1337 150.968 34.0887 151.148 34.0137C152.078 33.5937 152.768 33.0837 153.413 32.5287C153.578 32.4087 153.683 32.3187 153.803 32.2587C153.908 32.2137 153.983 32.1687 153.983 32.0787C153.983 32.0037 153.953 31.9287 153.818 31.8387C153.533 31.6137 153.188 31.3887 152.798 31.1937ZM155.018 31.8837C154.868 32.0187 154.823 32.0487 154.943 32.1687C155.588 32.8137 156.338 33.4137 157.238 33.8937C157.418 33.9837 157.523 34.0437 157.613 34.0437C157.718 34.0437 157.778 33.9387 157.913 33.6837C158.108 33.3387 158.318 33.0387 158.528 32.8437C157.658 32.5137 156.743 31.9737 155.963 31.2837C155.903 31.2237 155.858 31.1937 155.813 31.1937C155.768 31.1937 155.723 31.2237 155.648 31.2987L155.018 31.8837ZM168.533 29.1537C168.173 29.0787 167.723 29.0337 167.333 29.0337C165.818 29.0337 164.708 29.9187 164.708 31.1487C164.708 32.4387 165.668 33.2487 167.393 33.2487C169.163 33.2487 170.018 32.5587 170.138 31.2987C170.798 31.6887 171.293 32.0637 171.758 32.4987C171.803 32.5437 171.848 32.5737 171.893 32.5737C171.938 32.5737 171.983 32.5437 172.028 32.4837C172.283 32.1387 172.523 31.7187 172.718 31.3287C172.793 31.1637 172.778 31.1187 172.643 31.0287C171.803 30.3687 171.038 29.9487 170.153 29.5887C170.078 28.2987 170.048 27.2487 170.048 25.5687C170.828 25.5087 171.818 25.3887 172.358 25.2537C172.463 25.2387 172.523 25.1637 172.523 25.0287C172.523 24.7137 172.493 24.2337 172.433 23.9637C172.403 23.7987 172.373 23.7387 172.193 23.7837C171.548 23.8887 170.768 23.9937 170.063 24.0537C170.063 23.3637 170.063 22.9737 170.093 22.4637C170.108 22.2687 170.153 22.0737 170.213 21.9387C170.273 21.8037 170.303 21.7587 170.303 21.6837C170.303 21.5487 170.198 21.4737 170.033 21.4287C169.538 21.2787 169.088 21.2187 168.218 21.1437C168.353 21.6837 168.398 22.0737 168.413 22.6137C168.413 23.1687 168.428 23.6487 168.428 24.1887C167.303 24.2637 166.133 24.2487 165.008 24.1437C165.008 24.6087 165.053 25.1487 165.113 25.5087C165.128 25.6587 165.188 25.7037 165.383 25.7037C166.403 25.7787 167.453 25.7487 168.473 25.7187C168.488 26.9037 168.503 27.9987 168.533 29.1537ZM168.563 30.5787C168.578 30.6987 168.578 30.7737 168.578 30.8787C168.578 31.4187 168.098 31.8537 167.348 31.8537C166.463 31.8537 166.133 31.5687 166.133 31.1037C166.133 30.6387 166.553 30.3837 167.258 30.3837C167.678 30.3837 168.083 30.4287 168.563 30.5787ZM161.603 21.1737C161.663 21.7737 161.573 22.4187 161.498 22.9437C161.003 25.9887 160.883 27.1887 160.883 28.6287C160.883 30.3537 161.108 32.1387 161.528 33.2037C161.603 33.4137 161.663 33.4287 161.828 33.3837C162.233 33.3237 162.668 33.2337 162.953 33.1287C163.088 33.0837 163.148 33.0387 163.133 32.9337C163.118 32.7837 163.088 32.5587 163.148 32.1387C163.208 31.7037 163.388 31.0437 163.913 29.8587C163.973 29.7687 164.003 29.6937 164.003 29.6187C164.003 29.5437 163.973 29.4837 163.913 29.4087C163.718 29.1537 163.598 28.9437 163.388 28.4637C163.073 29.2137 162.758 29.8587 162.458 30.5487C162.413 29.9187 162.413 29.2287 162.413 28.6287C162.413 27.5337 162.668 25.4337 163.163 23.1687C163.268 22.7337 163.328 22.5237 163.433 22.3437C163.493 22.2237 163.538 22.1187 163.538 22.0137C163.538 21.8937 163.478 21.8037 163.313 21.7137C163.013 21.5637 162.203 21.3237 161.603 21.1737ZM177.353 27.6837C176.783 28.5687 176.558 29.2137 176.558 29.8287C176.558 31.7787 178.283 32.8587 181.643 32.8587C183.548 32.8587 184.718 32.7537 186.113 32.4987C186.293 32.4687 186.383 32.4087 186.368 32.2737C186.338 31.8987 186.203 31.0887 186.128 30.8037C186.098 30.6687 186.023 30.6237 185.813 30.6687C184.583 30.9387 183.203 31.1037 181.748 31.1037C179.168 31.1037 178.193 30.6387 178.193 29.6937C178.193 29.3937 178.358 28.8987 178.583 28.5537C178.658 28.4337 178.643 28.3587 178.508 28.2837C178.118 28.0737 177.743 27.8787 177.353 27.6837ZM177.683 22.0137C177.653 22.5537 177.623 22.9887 177.623 23.3487C177.623 23.5287 177.683 23.5887 177.818 23.6187C178.658 23.7687 179.873 23.8737 180.443 23.8737C180.878 23.8737 181.343 23.8737 181.673 23.8287C181.148 24.1437 180.488 24.5637 179.708 25.0737C180.143 25.1937 180.458 25.3587 180.758 25.5537C180.863 25.6137 180.968 25.6437 181.073 25.6437C181.193 25.6437 181.328 25.5987 181.448 25.5087C182.663 24.7287 183.698 24.2337 185.123 24.0237C185.303 24.0087 185.378 23.9187 185.378 23.7087C185.378 23.1987 185.348 22.7787 185.303 22.4337C185.288 22.3137 185.228 22.2537 185.078 22.2687C184.118 22.3287 182.993 22.4037 181.898 22.4037C180.263 22.4037 178.823 22.2837 177.683 22.0137ZM193.628 23.5287C192.473 23.6187 191.543 23.6637 190.373 23.6637C190.433 24.1587 190.538 24.7887 190.583 24.9687C190.613 25.1037 190.703 25.1787 190.868 25.1787C191.633 25.1787 192.578 25.1037 193.388 25.0437C193.133 26.5437 192.923 27.6537 192.593 28.9737C192.533 29.1987 192.473 29.4237 192.398 29.6787C192.353 29.8137 192.338 29.9187 192.338 29.9787C192.338 30.1137 192.428 30.1737 192.668 30.2787C192.968 30.4137 193.463 30.5787 193.793 30.6087C193.928 30.6237 193.973 30.5637 194.078 30.3837C194.213 30.1887 194.363 30.0087 194.498 29.8137C195.338 28.7037 196.823 27.9537 198.443 27.9537C199.583 27.9537 200.153 28.5987 200.153 29.3787C200.153 30.3237 199.598 31.0137 198.443 31.4937C197.243 31.9887 196.328 32.1837 194.138 32.3187C194.483 32.6037 194.708 32.8887 194.948 33.3837C195.068 33.6687 195.173 33.7437 195.323 33.7437C195.698 33.7437 196.058 33.6987 196.433 33.6387C198.068 33.3837 199.358 33.0237 200.258 32.4387C201.413 31.7037 201.968 30.7287 201.968 29.4087C201.968 27.8637 200.618 26.5737 198.623 26.5737C196.988 26.5737 195.488 27.1437 194.318 28.1637C194.588 27.1137 194.798 26.1087 195.008 24.8637C196.268 24.6987 197.078 24.5337 198.368 24.2487C198.503 24.2187 198.548 24.1737 198.548 24.0087C198.548 23.6487 198.503 23.2437 198.443 22.8987C198.413 22.7037 198.338 22.6887 198.128 22.7487C197.288 22.9737 196.058 23.1987 195.308 23.3037C195.383 22.7787 195.443 22.4787 195.518 22.0737C195.548 21.9087 195.668 21.6537 195.773 21.5187C195.818 21.4587 195.878 21.3537 195.878 21.2787C195.878 21.1587 195.773 21.0687 195.578 21.0087C195.188 20.8887 194.633 20.7837 193.778 20.6937C193.853 21.0987 193.868 21.4887 193.808 22.1487C193.763 22.5087 193.703 23.0037 193.628 23.5287ZM208.343 21.8487C209.528 22.3737 210.533 23.0637 211.373 23.7987C211.448 23.8737 211.493 23.9037 211.553 23.9037C211.598 23.9037 211.658 23.8587 211.718 23.7837C211.973 23.4837 212.288 23.0487 212.483 22.7337C212.528 22.6587 212.558 22.5987 212.558 22.5537C212.558 22.4937 212.528 22.4487 212.453 22.3887C211.553 21.6087 210.623 21.0387 209.513 20.6037C209.393 20.5587 209.303 20.6037 209.228 20.6787C208.988 20.9187 208.703 21.3087 208.343 21.8487ZM207.293 23.9337C207.293 24.4437 207.218 24.8337 207.158 25.2837C206.978 26.6187 206.783 28.3887 206.693 30.1287C206.693 30.3387 206.753 30.3687 206.903 30.4287C207.218 30.5787 207.578 30.7137 207.923 30.8337C208.118 30.8787 208.178 30.8787 208.268 30.7287C208.448 30.4287 208.643 30.1737 208.913 29.9037C210.323 28.4787 211.913 27.6237 213.233 27.6237C214.523 27.6237 215.033 28.3587 215.033 29.1687C215.033 30.1287 214.478 30.9087 213.263 31.4337C212.258 31.8837 210.818 32.1687 209.138 32.2737C209.603 32.6337 209.873 33.0387 210.158 33.5487C210.293 33.7737 210.428 33.7887 210.758 33.7437C212.048 33.5787 213.593 33.2187 214.598 32.7087C215.888 32.0637 216.863 30.9837 216.863 29.3487C216.863 27.4137 215.558 26.1387 213.368 26.1387C211.538 26.1387 209.738 27.1137 208.358 28.5087C208.418 27.6537 208.568 26.5437 208.718 25.7787C208.778 25.4937 208.883 25.2237 209.018 24.9837C209.063 24.9087 209.093 24.8337 209.093 24.7587C209.093 24.6387 209.018 24.5487 208.853 24.4737C208.508 24.2787 207.878 24.0987 207.293 23.9337Z" fill="black"/>
<g clip-path="url(#clip0)">
<path d="M244.784 21.8486L245.434 21.1982C245.71 20.9229 246.155 20.9229 246.427 21.1982L252.123 26.8906C252.398 27.166 252.398 27.6113 252.123 27.8838L246.427 33.5791C246.152 33.8545 245.707 33.8545 245.434 33.5791L244.784 32.9287C244.506 32.6504 244.511 32.1963 244.796 31.9238L248.326 28.5605H239.906C239.516 28.5605 239.203 28.2471 239.203 27.8574V26.9199C239.203 26.5303 239.516 26.2168 239.906 26.2168H248.326L244.796 22.8535C244.509 22.5811 244.503 22.127 244.784 21.8486Z" fill="black"/>
</g>
<rect x="1.20288" y="1.88867" width="274.125" height="51" stroke="black" stroke-width="2"/>
<defs>
<clipPath id="clip0">
<rect x="239.203" y="19.8887" width="13.125" height="15" fill="white"/>
</clipPath>
</defs>
</svg>
