<svg width="40" height="40" viewBox="0 0 40 40" fill="none" xmlns="http://www.w3.org/2000/svg">
<circle cx="20" cy="20" r="20" fill="#E0E0E0"/>
<path d="M26.9136 28.642C27.3909 29.1193 28.1648 29.1193 28.642 28.642C29.1193 28.1647 29.1193 27.3909 28.642 26.9136L21.7284 20L28.642 13.0864C29.1193 12.6091 29.1193 11.8353 28.642 11.358C28.1647 10.8807 27.3909 10.8807 26.9136 11.358L20 18.2716L13.0864 11.358C12.6091 10.8807 11.8353 10.8807 11.358 11.358C10.8807 11.8353 10.8807 12.6091 11.358 13.0864L18.2716 20L11.358 26.9136C10.8807 27.3909 10.8807 28.1648 11.358 28.642C11.8353 29.1193 12.6091 29.1193 13.0864 28.642L20 21.7284L26.9136 28.642Z" fill="white"/>
</svg>
