<svg width="59" height="14" viewBox="0 0 59 14" fill="none" xmlns="http://www.w3.org/2000/svg">
<path d="M0.235 3.075L3.475 6.3L0.235 9.54L0.775 10.065L4 6.84L7.225 10.05L7.765 9.525L4.525 6.3L7.765 3.075L7.225 2.55L4 5.76L0.775 2.55L0.235 3.075ZM29.3073 2.325C29.3073 0.869999 29.3373 0.269999 29.3373 0.179999C29.3373 0.0749997 29.3223 0.059999 29.2173 0.059999C29.1423 0.059999 28.7523 0.0899996 27.5973 0.0899996H25.6473C24.4773 0.0899996 24.1023 0.059999 24.0273 0.059999C23.9073 0.059999 23.8923 0.0749997 23.8923 0.179999C23.8923 0.269999 23.9223 0.555 23.9223 1.47V3.24C23.9223 4.17 23.8923 4.455 23.8923 4.53C23.8923 4.635 23.9073 4.65 24.0273 4.65C24.1023 4.65 24.4773 4.62 25.6473 4.62H28.4223V11.265C28.4223 11.865 28.2873 11.985 27.6273 11.985C27.2673 11.985 26.9223 11.97 26.5323 11.925C26.6523 12.12 26.7273 12.3 26.8023 12.585C26.8773 12.87 26.8773 12.87 27.1473 12.87C28.3473 12.87 28.6773 12.81 28.9623 12.57C29.2473 12.345 29.3523 12.09 29.3523 11.43C29.3523 10.86 29.3073 10.08 29.3073 9.135V2.325ZM28.4223 3.9H24.7773V2.7H28.4223V3.9ZM28.4223 1.98H24.7773V0.824999H28.4223V1.98ZM22.4523 1.56C22.4523 0.645 22.4823 0.269999 22.4823 0.179999C22.4823 0.0749997 22.4673 0.059999 22.3623 0.059999C22.2873 0.059999 21.9123 0.0899996 20.8623 0.0899996H19.0623C17.9523 0.0899996 17.4573 0.059999 17.3673 0.059999C17.2623 0.059999 17.2473 0.0749997 17.2473 0.179999C17.2473 0.269999 17.2773 1.185 17.2773 3.33V9.84C17.2773 11.985 17.2473 12.87 17.2473 12.96C17.2473 13.065 17.2623 13.08 17.3673 13.08H18.0723C18.1773 13.08 18.1923 13.065 18.1923 12.96C18.1923 12.87 18.1623 11.985 18.1623 9.84V4.62H20.8623C21.9123 4.62 22.2873 4.65 22.3623 4.65C22.4673 4.65 22.4823 4.635 22.4823 4.53C22.4823 4.455 22.4523 4.08 22.4523 3.15V1.56ZM21.5973 3.9H18.1623V2.7H21.5973V3.9ZM21.5973 1.98H18.1623V0.824999H21.5973V1.98ZM27.2223 6.84C27.2223 6.735 27.2073 6.72 27.1023 6.72C27.0273 6.72 26.5623 6.75 25.1223 6.75H24.6423C24.6423 6.09 24.6723 5.79 24.7323 5.655C24.7773 5.55 24.8223 5.49 24.8223 5.385C24.8223 5.325 24.7623 5.265 24.6423 5.25C24.3573 5.205 24.0723 5.175 23.7273 5.16C23.7873 5.505 23.8173 6.15 23.8173 6.75H21.5673C20.1273 6.75 19.6623 6.72 19.5873 6.72C19.4823 6.72 19.4673 6.735 19.4673 6.84V7.41C19.4673 7.515 19.4823 7.515 19.5873 7.515C19.6623 7.515 20.1273 7.5 21.5673 7.5H23.2773C22.2873 8.865 20.8323 9.93 18.9273 10.785C19.0923 10.905 19.2123 11.04 19.3473 11.25C19.4373 11.385 19.4673 11.445 19.5273 11.445C19.5723 11.445 19.6473 11.4 19.7523 11.355C21.5073 10.47 22.7823 9.42 23.8773 7.875V9.12L23.8923 11.025C23.8923 11.445 23.7873 11.595 23.1723 11.595C22.6623 11.595 22.3923 11.58 22.0623 11.55C22.1673 11.715 22.2573 11.925 22.3173 12.135C22.3923 12.42 22.3923 12.42 22.6623 12.42C23.7723 12.42 24.2073 12.33 24.4323 12.135C24.7023 11.925 24.7473 11.625 24.7473 11.22C24.7473 10.785 24.7173 10.065 24.7023 9.12L24.6723 7.5H25.1223C26.5623 7.5 27.0273 7.53 27.1023 7.53C27.2073 7.53 27.2223 7.515 27.2223 7.41V6.84ZM34.7823 0.449999C34.9473 1.14 34.9323 1.785 34.9023 2.715C34.8273 4.83 34.6923 7.275 34.6923 9.405C34.6923 11.61 35.6073 12.42 37.3023 12.42C39.4473 12.42 41.4423 11.415 43.0173 9.9C43.1523 9.78 43.1973 9.705 43.1973 9.615C43.1973 9.555 43.1673 9.495 43.1373 9.405C43.0473 9.18 42.9273 8.88 42.8823 8.535C41.3373 10.245 39.3873 11.4 37.4823 11.4C36.1773 11.4 35.7123 10.935 35.7123 9.105C35.7123 7.08 35.8023 5.085 35.9373 2.82C35.9973 1.92 36.0573 1.455 36.1173 1.275C36.1773 1.125 36.2373 1.005 36.2373 0.884999C36.2373 0.78 36.1623 0.705 35.9973 0.659999C35.6973 0.555 35.2323 0.495 34.7823 0.449999ZM40.1223 2.13C40.7973 2.61 41.4273 3.315 41.8623 4.05C41.9073 4.125 41.9823 4.14 42.0573 4.08L42.4923 3.72C42.5523 3.675 42.5673 3.615 42.5223 3.555C42.0873 2.895 41.4273 2.16 40.8273 1.74C40.7673 1.695 40.7373 1.68 40.6773 1.725L40.1223 2.13ZM41.4423 1.125C42.1473 1.65 42.7923 2.385 43.1673 3C43.2273 3.09 43.2873 3.09 43.3473 3.03L43.7523 2.67C43.8273 2.61 43.8423 2.565 43.7973 2.49C43.3623 1.86 42.6873 1.2 42.0873 0.734999C42.0273 0.69 41.9823 0.705 41.9223 0.749999L41.4423 1.125ZM51.3273 6.33C52.8273 4.8 53.8323 3.75 55.1673 2.34C55.5123 1.98 55.6773 1.875 55.8723 1.815C56.0223 1.755 56.0973 1.65 56.0973 1.53C56.0973 1.455 56.0673 1.365 55.9923 1.275C55.8573 1.095 55.6323 0.869999 55.3473 0.645C55.2273 0.555 55.1523 0.524999 55.0773 0.524999C55.0173 0.524999 54.9273 0.584999 54.8673 0.63C54.7623 0.69 54.5823 0.734999 54.4023 0.765C53.0823 1.02 51.8523 1.185 50.6673 1.305C50.2623 1.35 49.8423 1.35 49.3473 1.29C49.4673 1.77 49.5723 2.055 49.7073 2.325C49.7673 2.445 49.8423 2.505 49.9473 2.505C50.0073 2.505 50.1273 2.475 50.2323 2.43C50.3823 2.37 50.5623 2.325 50.7573 2.295C52.0923 2.04 53.2623 1.815 54.5073 1.62C53.3523 2.985 52.4523 3.945 51.5823 4.89C50.1423 6.435 49.3773 7.2 48.1923 8.235C48.0873 8.325 48.0723 8.385 48.1323 8.46C48.2823 8.655 48.5073 8.88 48.6873 9.06C48.7923 9.165 48.8673 9.15 48.9873 9.03C49.4373 8.58 49.8273 8.175 50.3073 7.8C51.4623 6.87 52.9473 6.105 54.4323 6.105C55.8573 6.105 57.0273 7.035 57.0273 8.565C57.0273 10.035 56.1273 10.875 54.8373 11.295C54.5523 10.02 53.6373 9.15 52.2873 9.15C51.2223 9.15 50.5323 9.9 50.5323 10.68C50.5323 11.64 51.3423 12.45 53.1423 12.45C56.3223 12.45 58.0923 10.83 58.0923 8.595C58.0923 6.645 56.7573 5.31 54.5973 5.31C53.5173 5.31 52.4523 5.67 51.3723 6.375L51.3273 6.33ZM53.9223 11.505C53.5773 11.565 53.2773 11.58 52.9473 11.58C51.9423 11.58 51.4023 11.16 51.4023 10.665C51.4023 10.2 51.8373 9.96 52.3173 9.96C53.1723 9.96 53.7273 10.65 53.9223 11.505Z" fill="black"/>
</svg>
