<svg width="209" height="263" viewBox="0 0 209 263" fill="none" xmlns="http://www.w3.org/2000/svg">
<g filter="url(#filter0_d)">
<g clip-path="url(#clip0)">
<rect x="4.03088" y="0.888672" width="200" height="254" rx="10" fill="white"/>
<path d="M104.563 180.889C110.116 180.889 114.618 179.21 114.618 177.139C114.618 175.068 110.116 173.389 104.563 173.389C99.0105 173.389 94.509 175.068 94.509 177.139C94.509 179.21 99.0105 180.889 104.563 180.889Z" fill="#CCCCCC"/>
<path d="M63.3678 60.8887H145.216C152.009 60.8887 157.553 66.4322 157.553 73.2256V108.497C157.553 115.291 152.009 120.834 145.216 120.834H109.563L104.292 177.139L99.02 120.889H63.3678C56.5744 120.889 51.0309 115.345 51.0309 108.552V73.2256C51.0309 66.4322 56.5744 60.8887 63.3678 60.8887Z" fill="#E43E31"/>
<path d="M56.1396 108.552C56.1396 112.519 59.4005 115.78 63.3679 115.78H145.216C149.183 115.78 152.444 112.519 152.444 108.552V73.2256C152.444 69.2582 149.183 65.9974 145.216 65.9974H63.3679C59.4005 65.9974 56.1396 69.2582 56.1396 73.2256V108.552Z" fill="white"/>
<path d="M72.3136 94.3289C72.3136 95.0463 72.2973 95.4213 72.2973 95.4539C72.2973 95.6333 72.3136 95.6496 72.4929 95.6496H73.732C73.8951 95.6496 73.9114 95.6333 73.9114 95.4539C73.9114 95.3887 73.8951 95.0463 73.8788 94.3289H75.8027C77.3679 94.3289 77.906 94.3615 78.0038 94.3615C78.1668 94.3615 78.1831 94.3452 78.1831 94.1659V93.1713C78.1831 92.992 78.1668 92.9757 78.0038 92.9757C77.906 92.9757 77.3679 93.0083 75.8027 93.0083H73.8788V92.0952H75.2483C76.7157 92.0952 77.2212 92.1278 77.319 92.1278C77.4983 92.1278 77.5146 92.1115 77.5146 91.9485V91.0028C77.5146 90.8398 77.4983 90.8235 77.319 90.8235C77.2212 90.8235 76.7157 90.8561 75.2483 90.8561H73.8788V89.943H74.8244C76.3244 89.943 77.0418 89.9757 77.1396 89.9757C77.319 89.9757 77.3353 89.9593 77.3353 89.7963C77.3353 89.7148 77.3027 89.242 77.3027 88.2148V87.8235C77.8081 87.8398 78.3136 87.8561 78.3951 87.8561C78.5581 87.8561 78.5744 87.8398 78.5744 87.6767V86.6985C78.5744 86.5354 78.5581 86.5191 78.3951 86.5191C78.3136 86.5191 77.8081 86.5517 77.3027 86.5517V86.1767C77.3027 85.1496 77.3353 84.6604 77.3353 84.5626C77.3353 84.3996 77.319 84.3833 77.1396 84.3833C77.0418 84.3833 76.3244 84.4159 74.8244 84.4159H73.8788C73.8788 83.9104 73.9114 83.7474 73.9766 83.6333C74.0255 83.5354 74.0744 83.4702 74.0744 83.3724C74.0744 83.2746 73.9766 83.2256 73.8136 83.2093C73.2755 83.1441 72.8353 83.1115 72.2157 83.0952C72.281 83.4702 72.3136 83.8452 72.3299 84.4159H71.7266C70.2755 84.4159 69.8027 84.3833 69.7049 84.3833C69.5418 84.3833 69.5255 84.3996 69.5255 84.5626V85.5083C69.5255 85.6713 69.5418 85.6876 69.7049 85.6876C69.8027 85.6876 70.2755 85.655 71.7266 85.655H72.3299V86.5517H70.8625C69.3625 86.5517 68.857 86.5191 68.7592 86.5191C68.5962 86.5191 68.5799 86.5354 68.5799 86.6985V87.6604C68.5799 87.8398 68.5962 87.8561 68.7592 87.8561C68.857 87.8561 69.3625 87.8235 70.8625 87.8235H72.3299V88.7365H71.4494C70.1777 88.7365 69.7701 88.7039 69.6723 88.7039C69.5092 88.7039 69.4929 88.7202 69.4929 88.8833V89.7963C69.4929 89.9593 69.5092 89.9757 69.6723 89.9757C69.7701 89.9757 70.1777 89.943 71.4494 89.943H72.3299V90.8561H71.6125C70.1451 90.8561 69.6233 90.8235 69.5255 90.8235C69.3625 90.8235 69.3462 90.8398 69.3462 91.0028V91.9485C69.3462 92.1115 69.3625 92.1278 69.5255 92.1278C69.6233 92.1278 70.1451 92.0952 71.6125 92.0952H72.3299V93.0083H71.0255C69.4766 93.0083 68.9386 92.9757 68.8407 92.9757C68.6777 92.9757 68.6614 92.992 68.6614 93.1713V94.1659C68.6614 94.3452 68.6777 94.3615 68.8407 94.3615C68.9386 94.3615 69.4766 94.3289 71.0255 94.3289H72.3136ZM75.7864 88.7365H73.8788V87.8235H75.7864V88.7365ZM75.7864 85.655V86.5517H73.8788V85.655H75.7864ZM67.3897 94.5735C68.0418 93.3833 68.4331 92.03 68.6614 90.3833C68.7103 90.1224 68.7429 89.943 68.857 89.8126C68.9875 89.6822 69.0364 89.617 69.0364 89.4865C69.0364 89.3561 68.9712 89.242 68.6451 88.8996C68.319 88.5246 68.1886 88.4267 68.0581 88.4267C67.9766 88.4267 67.944 88.4593 67.8462 88.5083C67.7483 88.5735 67.6342 88.5898 67.4712 88.5898H66.6886C67.3081 87.5463 67.7973 86.6007 68.1723 85.9159C68.3027 85.6876 68.4331 85.4104 68.6125 85.3126C68.7103 85.2311 68.7755 85.1822 68.7755 85.0354C68.7755 84.8887 68.6288 84.693 68.3516 84.3343C68.0255 83.9267 67.9114 83.8615 67.8136 83.8615C67.7483 83.8615 67.6831 83.8941 67.6179 83.9104C67.5527 83.9267 67.4223 83.943 67.2592 83.943H65.482C64.4223 83.943 64.0962 83.9104 63.9983 83.9104C63.8353 83.9104 63.819 83.9267 63.819 84.1061V85.3126C63.819 85.4756 63.8353 85.492 63.9983 85.492C64.0962 85.492 64.4223 85.4593 65.482 85.4593H66.5581C65.9223 86.8126 65.1397 88.2311 64.0636 89.7311C63.9983 89.8126 63.9657 89.8778 63.9657 89.9267C63.9657 90.0246 64.1288 90.0898 64.6179 90.318C65.0092 90.4974 65.1886 90.5789 65.3027 90.5789C65.3842 90.5789 65.4331 90.53 65.4983 90.4322L65.7592 90.0409H67.1614C66.9983 91.2963 66.7212 92.3235 66.3136 93.1876C66.0201 92.6822 65.7592 92.0952 65.531 91.3778C65.4168 91.1007 65.4005 91.0354 65.1233 91.1822L64.3244 91.6061C64.1125 91.7202 64.1125 91.7691 64.2266 92.03C64.6016 93.0246 65.0255 93.8398 65.4983 94.5246C64.944 95.242 64.2429 95.8778 63.3788 96.5137C63.6886 96.7746 63.982 97.1007 64.2266 97.5246C64.357 97.7365 64.4223 97.8507 64.5201 97.8507C64.6016 97.8507 64.6994 97.7691 64.8788 97.6224C65.5473 97.0354 66.1179 96.4485 66.5907 95.8126C66.6886 95.9267 66.8027 96.0083 66.9168 96.1061C68.3516 97.3615 70.4875 97.6061 72.4929 97.6061C74.5962 97.6061 75.9983 97.5572 77.6288 97.443C78.1342 97.4267 78.1342 97.4267 78.2483 96.8887C78.3136 96.4648 78.4766 96.0735 78.7049 95.6985C76.6179 95.943 74.9386 96.0083 72.5092 96.0083C69.982 96.0083 68.531 95.5354 67.4712 94.6387L67.3897 94.5735Z" fill="#E06457"/>
<path d="M88.6668 89.9757C87.2483 89.9757 86.7755 89.943 86.6777 89.943C86.5146 89.943 86.4983 89.9593 86.4983 90.1061V91.2474C86.4983 91.4267 86.5146 91.443 86.6777 91.443C86.7266 91.443 86.9386 91.4267 87.4114 91.4267C87.8679 92.7637 88.5201 93.8724 89.3353 94.818C88.357 95.568 87.1342 96.2202 85.6994 96.6441V94.117C85.6994 93.3507 85.732 92.9593 85.732 92.8615C85.732 92.6985 85.7157 92.6822 85.5527 92.6822C85.4386 92.6822 85.1125 92.7148 84.0527 92.7148H82.6016C81.5581 92.7148 81.2157 92.6822 81.1179 92.6822C80.9386 92.6822 80.9223 92.6985 80.9223 92.8615C80.9223 92.9757 80.9549 93.367 80.9549 94.3941V95.4376C80.9549 97.4104 80.9223 97.7854 80.9223 97.8996C80.9223 98.0626 80.9386 98.0789 81.1179 98.0789H82.2755C82.4386 98.0789 82.4549 98.0626 82.4549 97.8996V97.0517H84.2157V97.5898C84.2157 97.7528 84.232 97.7691 84.3951 97.7691H85.5527C85.7157 97.7691 85.732 97.7528 85.732 97.5898C85.732 97.5246 85.7157 97.3126 85.6994 96.6604C86.0255 96.9213 86.2701 97.2637 86.4657 97.6224C86.6125 97.9159 86.6777 98.03 86.8081 98.03C86.8896 98.03 87.0038 97.9974 87.1831 97.9159C88.4712 97.3941 89.5799 96.7257 90.5092 95.943C91.4549 96.7257 92.5799 97.3452 93.819 97.8343C93.9983 97.8996 94.1125 97.9485 94.194 97.9485C94.3244 97.9485 94.3733 97.818 94.5201 97.5083C94.6994 97.1007 94.9603 96.693 95.2212 96.367C93.8353 96.0083 92.6614 95.4865 91.6831 94.8017C92.4983 93.8724 93.1505 92.8452 93.6233 91.7691C93.7538 91.492 93.8842 91.3452 94.0146 91.2637C94.1451 91.1822 94.194 91.117 94.194 90.9702C94.194 90.8561 94.0636 90.6767 93.6886 90.2854C93.3788 89.9757 93.1831 89.8289 93.069 89.8289C92.9712 89.8289 92.8896 89.8778 92.8244 89.9104C92.7429 89.943 92.6451 89.9757 92.4657 89.9757H88.6668ZM92.0255 91.4104C91.6831 92.2257 91.1777 93.0409 90.4929 93.7746C89.8733 93.1061 89.3842 92.3235 89.0092 91.4104H92.0255ZM84.2157 94.068V95.6985H82.4549V94.068H84.2157ZM91.0309 85.1822V87.5789C91.0309 88.1333 91.1451 88.492 91.4712 88.7039C91.732 88.867 92.1886 88.9322 92.857 88.9322C93.7212 88.9322 94.2429 88.818 94.5201 88.5572C94.8951 88.2474 95.0581 87.7909 95.107 86.8126C95.1233 86.3887 95.1396 86.3561 94.732 86.2257C94.4222 86.1278 94.0309 85.9485 93.7701 85.7854C93.7375 86.6985 93.7049 87.0898 93.607 87.2528C93.5092 87.3996 93.3951 87.4811 93.1668 87.4811C92.9059 87.4811 92.7918 87.4648 92.7103 87.3833C92.6125 87.2854 92.5962 87.0898 92.5962 86.8289V85.1333C92.5962 84.3017 92.6288 83.9104 92.6288 83.8126C92.6288 83.6496 92.6125 83.6333 92.4494 83.6333C92.3516 83.6333 92.0255 83.6659 90.982 83.6659H89.3516C88.3081 83.6659 88.0146 83.6333 87.9168 83.6333C87.7375 83.6333 87.7212 83.6496 87.7212 83.8126C87.7212 83.9104 87.7538 84.2854 87.7538 85.0191C87.7538 86.8615 87.1505 87.8235 86.0581 88.5735C86.3516 88.7202 86.7103 89.0137 86.9549 89.2909C87.1342 89.5028 87.2483 89.6007 87.3462 89.6007C87.444 89.6007 87.5581 89.5191 87.7375 89.3398C88.7157 88.4104 89.3027 87.2365 89.3353 85.1822H91.0309ZM82.194 85.9811C80.9549 85.9811 80.5473 85.9485 80.4657 85.9485C80.3027 85.9485 80.2864 85.9648 80.2864 86.1278V87.2854C80.2864 87.4648 80.3027 87.4811 80.4657 87.4811C80.5473 87.4811 80.9549 87.4485 82.194 87.4485H84.3136C85.5527 87.4485 85.9603 87.4811 86.0581 87.4811C86.2212 87.4811 86.2375 87.4648 86.2375 87.2854V86.1278C86.2375 85.9648 86.2212 85.9485 86.0581 85.9485C85.9603 85.9485 85.5527 85.9811 84.3136 85.9811H82.194ZM82.6342 83.7474C81.5744 83.7474 81.2483 83.7148 81.1505 83.7148C80.9875 83.7148 80.9712 83.7311 80.9712 83.8941V84.9865C80.9712 85.1496 80.9875 85.1659 81.1505 85.1659C81.2483 85.1659 81.5744 85.1333 82.6342 85.1333H84.1179C85.1777 85.1333 85.4875 85.1659 85.5853 85.1659C85.7646 85.1659 85.7809 85.1496 85.7809 84.9865V83.8941C85.7809 83.7311 85.7646 83.7148 85.5853 83.7148C85.4875 83.7148 85.1777 83.7474 84.1179 83.7474H82.6342ZM82.6994 88.3126C81.7049 88.3126 81.4114 88.28 81.3136 88.28C81.1505 88.28 81.1342 88.2963 81.1342 88.443V89.5028C81.1342 89.6659 81.1505 89.6822 81.3136 89.6822C81.4114 89.6822 81.7049 89.6496 82.6994 89.6496H83.9875C84.982 89.6496 85.2755 89.6822 85.357 89.6822C85.5364 89.6822 85.5527 89.6659 85.5527 89.5028V88.443C85.5527 88.2963 85.5364 88.28 85.357 88.28C85.2755 88.28 84.982 88.3126 83.9875 88.3126H82.6994ZM82.6994 90.4974C81.7049 90.4974 81.4114 90.4648 81.3136 90.4648C81.1505 90.4648 81.1342 90.4811 81.1342 90.6441V91.6876C81.1342 91.8507 81.1505 91.867 81.3136 91.867C81.4114 91.867 81.7049 91.8343 82.6994 91.8343H83.9875C84.982 91.8343 85.2755 91.867 85.357 91.867C85.5364 91.867 85.5527 91.8507 85.5527 91.6876V90.6441C85.5527 90.4811 85.5364 90.4648 85.357 90.4648C85.2755 90.4648 84.982 90.4974 83.9875 90.4974H82.6994Z" fill="#E06457"/>
<path d="M100.96 86.8452C100.879 86.9104 100.846 86.9593 100.846 87.0083C100.846 87.0572 100.879 87.0898 100.96 87.1387C102.036 87.7583 103.064 88.3941 104.042 89.193H99.3462C97.8951 89.193 97.3896 89.1604 97.2918 89.1604C97.1288 89.1604 97.1125 89.1767 97.1125 89.3398V90.6115C97.1125 90.7746 97.1288 90.7909 97.2918 90.7909C97.3896 90.7909 97.8951 90.7583 99.3462 90.7583H103.324V95.5843C103.324 96.0409 103.178 96.1713 102.705 96.1713C102.199 96.1713 101.531 96.1387 100.699 96.0735C100.928 96.4322 101.123 96.9213 101.254 97.3778C101.384 97.8996 101.384 97.8996 101.89 97.8996C103.536 97.8996 104.14 97.8017 104.612 97.4757C104.955 97.2311 105.134 96.8072 105.134 96.0083C105.134 95.405 105.118 94.655 105.118 93.4648V90.7583H108.672C108.167 91.3941 107.303 92.1115 106.487 92.6822C106.814 92.8289 107.303 93.1387 107.612 93.3996C107.824 93.5789 107.922 93.6604 108.004 93.6604C108.102 93.6604 108.199 93.5789 108.379 93.4159C109.292 92.6659 109.977 91.8996 110.612 91.1007C110.906 90.742 111.053 90.5952 111.216 90.4974C111.379 90.3833 111.444 90.318 111.444 90.1876C111.444 90.0083 111.411 89.9104 110.906 89.5028C110.384 89.0626 110.221 89.03 110.091 89.03C110.026 89.03 109.928 89.0626 109.846 89.1115C109.765 89.1604 109.683 89.193 109.471 89.193H105.786L106.047 88.9648C106.227 88.818 106.227 88.8017 106.096 88.6876L105.526 88.2148C106.748 87.4811 108.069 86.5191 108.901 85.7691C109.096 85.5735 109.259 85.4593 109.504 85.3452C109.699 85.2637 109.797 85.1822 109.797 85.0354C109.797 84.8561 109.699 84.7093 109.21 84.2365C108.803 83.8289 108.574 83.7148 108.444 83.7148C108.362 83.7148 108.314 83.7474 108.216 83.7963C108.134 83.8289 108.004 83.8452 107.792 83.8452H100.96C99.3625 83.8452 98.8081 83.8126 98.7103 83.8126C98.5635 83.8126 98.5472 83.8289 98.5472 83.992V85.2148C98.5472 85.3778 98.5635 85.3941 98.7103 85.3941C98.8081 85.3941 99.3625 85.3615 100.96 85.3615H106.781C106.047 86.0137 105.167 86.6496 104.156 87.2365C103.487 86.7963 102.803 86.405 102.102 86.03C101.955 85.9648 101.906 85.9648 101.776 86.0952L100.96 86.8452Z" fill="#E06457"/>
<path d="M119.792 89.4213V95.4702C118.52 95.03 117.933 94.28 117.346 93.1387C117.46 92.7311 117.558 92.3072 117.64 91.8507C117.705 91.6061 117.77 91.443 117.852 91.3452C117.917 91.2637 117.998 91.1659 117.998 91.0354C117.998 90.9213 117.917 90.8561 117.689 90.8072C117.216 90.693 116.678 90.5789 116.14 90.4974C116.14 90.8561 116.091 91.1659 116.042 91.5409C115.732 93.7583 114.656 95.4865 113.107 96.693C113.449 96.905 113.775 97.1822 114.053 97.5409C114.216 97.7528 114.297 97.8507 114.379 97.8507C114.477 97.8507 114.574 97.7528 114.737 97.5735C115.585 96.742 116.237 95.8452 116.727 94.7854C118.015 96.7257 119.156 97.6061 124.993 97.6224C125.645 97.6224 126.297 97.6061 126.917 97.5735C127.422 97.5246 127.439 97.5246 127.504 97.0191C127.553 96.6278 127.65 96.2365 127.814 95.8452C126.737 95.9267 125.58 95.992 124.65 95.992C123.362 95.992 122.335 95.943 121.504 95.8452V93.0572H123.493C124.83 93.0572 125.27 93.0898 125.368 93.0898C125.547 93.0898 125.564 93.0735 125.564 92.9267V91.7365C125.564 91.5735 125.547 91.5572 125.368 91.5572C125.27 91.5572 124.83 91.5898 123.493 91.5898H121.504V89.4213H122.89C124.455 89.4213 124.993 89.4539 125.091 89.4539C125.254 89.4539 125.27 89.4376 125.27 89.2746V88.0843C125.27 87.9213 125.254 87.905 125.091 87.905C124.993 87.905 124.455 87.9376 122.89 87.9376H118.292C116.71 87.9376 116.189 87.905 116.091 87.905C115.911 87.905 115.895 87.9213 115.895 88.0843V89.2746C115.895 89.4376 115.911 89.4539 116.091 89.4539C116.189 89.4539 116.71 89.4213 118.292 89.4213H119.792ZM121.275 84.7909V84.6278C121.275 84.0083 121.275 83.7963 121.341 83.6496C121.39 83.5354 121.439 83.4539 121.439 83.3398C121.439 83.242 121.341 83.193 121.194 83.1767C120.64 83.1278 120.053 83.0952 119.449 83.0952C119.547 83.5028 119.564 83.9267 119.564 84.6441V84.7909H116.074C114.542 84.7909 114.02 84.7583 113.906 84.7583C113.743 84.7583 113.727 84.7746 113.727 84.9213C113.727 85.0354 113.759 85.3126 113.759 85.9159V86.4702C113.759 87.9213 113.727 88.1496 113.727 88.2637C113.727 88.4267 113.743 88.443 113.906 88.443H115.227C115.406 88.443 115.422 88.4267 115.422 88.2637V86.2909H125.743V88.2637C125.743 88.4267 125.759 88.443 125.922 88.443H127.259C127.422 88.443 127.439 88.4267 127.439 88.2637C127.439 88.1659 127.406 87.9213 127.406 86.4702V85.7691C127.406 85.3126 127.439 85.0354 127.439 84.9213C127.439 84.7746 127.422 84.7583 127.259 84.7583C127.161 84.7583 126.623 84.7909 125.107 84.7909H121.275Z" fill="#E06457"/>
<path d="M137.237 90.0572L138.803 89.5191V91.818C138.803 93.4485 138.77 94.2311 138.77 94.3452C138.77 94.5083 138.786 94.5246 138.949 94.5246H140.254C140.417 94.5246 140.433 94.5083 140.433 94.3452C140.433 94.2474 140.4 93.4485 140.4 91.818V88.9811L142.292 88.3289C142.275 89.9267 142.21 90.5626 142.096 91.1822C141.998 91.7039 141.884 91.7854 141.607 91.7854C141.379 91.7854 141.085 91.7528 140.743 91.6713C140.906 91.9974 141.036 92.4702 141.085 92.8452C141.167 93.3507 141.167 93.3507 141.525 93.3833C141.737 93.4159 141.933 93.4159 142.129 93.4159C142.83 93.4159 143.286 93.1224 143.531 92.1767C143.759 91.3452 143.89 90.1387 143.922 88.492L143.971 86.405C143.971 86.2746 143.906 86.2257 143.792 86.242C143.678 86.2583 143.189 86.4702 141.656 86.9757L140.4 87.3996V85.3452C140.4 84.4811 140.417 84.0735 140.498 83.8778C140.547 83.7474 140.596 83.6659 140.596 83.5517C140.596 83.4539 140.498 83.3887 140.335 83.3724C139.797 83.2909 139.292 83.2583 138.672 83.242C138.77 84.0735 138.803 84.5789 138.803 85.5572V87.9213L137.237 88.443V87.0409C137.237 86.0137 137.254 85.655 137.335 85.492C137.4 85.3452 137.433 85.28 137.433 85.1496C137.433 85.068 137.335 85.0028 137.107 84.9702C136.618 84.9213 136.096 84.8887 135.542 84.8724C135.623 85.5246 135.656 86.2909 135.64 87.1876V88.9811C134.596 89.3235 134.172 89.4213 134.042 89.4539C133.895 89.5028 133.879 89.5028 133.911 89.6659L134.123 90.9376C134.156 91.1007 134.172 91.117 134.335 91.068C134.466 91.0354 134.808 90.8887 135.64 90.5952V95.6822C135.64 96.5626 135.868 97.0517 136.259 97.2963C136.667 97.5572 137.482 97.7528 139.699 97.7528C142.227 97.7528 143.009 97.5898 143.564 97.2148C144.102 96.8724 144.297 96.4322 144.444 95.0137C144.493 94.5898 144.493 94.5898 144.085 94.4757C143.612 94.3452 143.237 94.1496 142.911 93.9539C142.862 95.242 142.781 95.568 142.52 95.7963C142.194 96.0572 141.656 96.1387 139.895 96.1387C138.281 96.1387 137.775 96.0898 137.547 95.9593C137.319 95.8452 137.237 95.6496 137.237 95.2257V90.0572ZM133.129 88.9322C134.058 88.9322 134.368 88.9648 134.466 88.9648C134.612 88.9648 134.629 88.9485 134.629 88.7854V87.5463C134.629 87.3833 134.612 87.367 134.466 87.367C134.368 87.367 134.058 87.3996 133.129 87.3996V85.655C133.129 84.7093 133.145 84.3017 133.227 84.1061C133.275 83.9756 133.324 83.8941 133.324 83.78C133.324 83.6822 133.227 83.6006 133.064 83.5843C132.525 83.5191 132.02 83.4865 131.384 83.4702C131.498 84.1224 131.515 84.7909 131.515 85.867V87.3996H131.384C130.324 87.3996 129.998 87.367 129.9 87.367C129.737 87.367 129.737 87.3833 129.737 87.5463V88.7854C129.737 88.9485 129.737 88.9648 129.9 88.9648C129.998 88.9648 130.324 88.9322 131.384 88.9322H131.515V93.5626L131.14 93.6767C130.553 93.8724 130.047 93.9865 129.525 94.0843C129.672 94.6387 129.803 95.1115 129.966 95.5354C130.031 95.6822 130.112 95.7311 130.21 95.7311C130.308 95.7311 130.422 95.6822 130.487 95.617C130.553 95.5517 130.748 95.4702 131.025 95.3561C132.102 94.9485 133.259 94.4757 134.27 93.9702C134.727 93.742 134.727 93.7583 134.694 93.2202C134.678 92.8778 134.678 92.5028 134.71 92.2093C134.156 92.5028 133.65 92.7474 133.129 92.9593V88.9322Z" fill="#E06457"/>
<path d="M65.4709 222.909C65.4709 223.789 65.4509 224.249 65.4509 224.289C65.4509 224.509 65.4709 224.529 65.6909 224.529H67.2109C67.4109 224.529 67.4309 224.509 67.4309 224.289C67.4309 224.209 67.4109 223.789 67.3909 222.909H69.7509C71.6709 222.909 72.3309 222.949 72.4509 222.949C72.6509 222.949 72.6709 222.929 72.6709 222.709V221.489C72.6709 221.269 72.6509 221.249 72.4509 221.249C72.3309 221.249 71.6709 221.289 69.7509 221.289H67.3909V220.169H69.0709C70.8709 220.169 71.4909 220.209 71.6109 220.209C71.8309 220.209 71.8509 220.189 71.8509 219.989V218.829C71.8509 218.629 71.8309 218.609 71.6109 218.609C71.4909 218.609 70.8709 218.649 69.0709 218.649H67.3909V217.529H68.5509C70.3909 217.529 71.2709 217.569 71.3909 217.569C71.6109 217.569 71.6309 217.549 71.6309 217.349C71.6309 217.249 71.5909 216.669 71.5909 215.409V214.929C72.2109 214.949 72.8309 214.969 72.9309 214.969C73.1309 214.969 73.1509 214.949 73.1509 214.749V213.549C73.1509 213.349 73.1309 213.329 72.9309 213.329C72.8309 213.329 72.2109 213.369 71.5909 213.369V212.909C71.5909 211.649 71.6309 211.049 71.6309 210.929C71.6309 210.729 71.6109 210.709 71.3909 210.709C71.2709 210.709 70.3909 210.749 68.5509 210.749H67.3909C67.3909 210.129 67.4309 209.929 67.5109 209.789C67.5709 209.669 67.6309 209.589 67.6309 209.469C67.6309 209.349 67.5109 209.289 67.3109 209.269C66.6509 209.189 66.1109 209.149 65.3509 209.129C65.4309 209.589 65.4709 210.049 65.4909 210.749H64.7509C62.9709 210.749 62.3909 210.709 62.2709 210.709C62.0709 210.709 62.0509 210.729 62.0509 210.929V212.089C62.0509 212.289 62.0709 212.309 62.2709 212.309C62.3909 212.309 62.9709 212.269 64.7509 212.269H65.4909V213.369H63.6909C61.8509 213.369 61.2309 213.329 61.1109 213.329C60.9109 213.329 60.8909 213.349 60.8909 213.549V214.729C60.8909 214.949 60.9109 214.969 61.1109 214.969C61.2309 214.969 61.8509 214.929 63.6909 214.929H65.4909V216.049H64.4109C62.8509 216.049 62.3509 216.009 62.2309 216.009C62.0309 216.009 62.0109 216.029 62.0109 216.229V217.349C62.0109 217.549 62.0309 217.569 62.2309 217.569C62.3509 217.569 62.8509 217.529 64.4109 217.529H65.4909V218.649H64.6109C62.8109 218.649 62.1709 218.609 62.0509 218.609C61.8509 218.609 61.8309 218.629 61.8309 218.829V219.989C61.8309 220.189 61.8509 220.209 62.0509 220.209C62.1709 220.209 62.8109 220.169 64.6109 220.169H65.4909V221.289H63.8909C61.9909 221.289 61.3309 221.249 61.2109 221.249C61.0109 221.249 60.9909 221.269 60.9909 221.489V222.709C60.9909 222.929 61.0109 222.949 61.2109 222.949C61.3309 222.949 61.9909 222.909 63.8909 222.909H65.4709ZM69.7309 216.049H67.3909V214.929H69.7309V216.049ZM69.7309 212.269V213.369H67.3909V212.269H69.7309ZM59.4309 223.209C60.2309 221.749 60.7109 220.089 60.9909 218.069C61.0509 217.749 61.0909 217.529 61.2309 217.369C61.3909 217.209 61.4509 217.129 61.4509 216.969C61.4509 216.809 61.3709 216.669 60.9709 216.249C60.5709 215.789 60.4109 215.669 60.2509 215.669C60.1509 215.669 60.1109 215.709 59.9909 215.769C59.8709 215.849 59.7309 215.869 59.5309 215.869H58.5709C59.3309 214.589 59.9309 213.429 60.3909 212.589C60.5509 212.309 60.7109 211.969 60.9309 211.849C61.0509 211.749 61.1309 211.689 61.1309 211.509C61.1309 211.329 60.9509 211.089 60.6109 210.649C60.2109 210.149 60.0709 210.069 59.9509 210.069C59.8709 210.069 59.7909 210.109 59.7109 210.129C59.6309 210.149 59.4709 210.169 59.2709 210.169H57.0909C55.7909 210.169 55.3909 210.129 55.2709 210.129C55.0709 210.129 55.0509 210.149 55.0509 210.369V211.849C55.0509 212.049 55.0709 212.069 55.2709 212.069C55.3909 212.069 55.7909 212.029 57.0909 212.029H58.4109C57.6309 213.689 56.6709 215.429 55.3509 217.269C55.2709 217.369 55.2309 217.449 55.2309 217.509C55.2309 217.629 55.4309 217.709 56.0309 217.989C56.5109 218.209 56.7309 218.309 56.8709 218.309C56.9709 218.309 57.0309 218.249 57.1109 218.129L57.4309 217.649H59.1509C58.9509 219.189 58.6109 220.449 58.1109 221.509C57.7509 220.889 57.4309 220.169 57.1509 219.289C57.0109 218.949 56.9909 218.869 56.6509 219.049L55.6709 219.569C55.4109 219.709 55.4109 219.769 55.5509 220.089C56.0109 221.309 56.5309 222.309 57.1109 223.149C56.4309 224.029 55.5709 224.809 54.5109 225.589C54.8909 225.909 55.2509 226.309 55.5509 226.829C55.7109 227.089 55.7909 227.229 55.9109 227.229C56.0109 227.229 56.1309 227.129 56.3509 226.949C57.1709 226.229 57.8709 225.509 58.4509 224.729C58.5709 224.869 58.7109 224.969 58.8509 225.089C60.6109 226.629 63.2309 226.929 65.6909 226.929C68.2709 226.929 69.9909 226.869 71.9909 226.729C72.6109 226.709 72.6109 226.709 72.7509 226.049C72.8309 225.529 73.0309 225.049 73.3109 224.589C70.7509 224.889 68.6909 224.969 65.7109 224.969C62.6109 224.969 60.8309 224.389 59.5309 223.289L59.4309 223.209ZM85.3309 217.569C83.5909 217.569 83.0109 217.529 82.8909 217.529C82.6909 217.529 82.6709 217.549 82.6709 217.729V219.129C82.6709 219.349 82.6909 219.369 82.8909 219.369C82.9509 219.369 83.2109 219.349 83.7909 219.349C84.3509 220.989 85.1509 222.349 86.1509 223.509C84.9509 224.429 83.4509 225.229 81.6909 225.749V222.649C81.6909 221.709 81.7309 221.229 81.7309 221.109C81.7309 220.909 81.7109 220.889 81.5109 220.889C81.3709 220.889 80.9709 220.929 79.6709 220.929H77.8909C76.6109 220.929 76.1909 220.889 76.0709 220.889C75.8509 220.889 75.8309 220.909 75.8309 221.109C75.8309 221.249 75.8709 221.729 75.8709 222.989V224.269C75.8709 226.689 75.8309 227.149 75.8309 227.289C75.8309 227.489 75.8509 227.509 76.0709 227.509H77.4909C77.6909 227.509 77.7109 227.489 77.7109 227.289V226.249H79.8709V226.909C79.8709 227.109 79.8909 227.129 80.0909 227.129H81.5109C81.7109 227.129 81.7309 227.109 81.7309 226.909C81.7309 226.829 81.7109 226.569 81.6909 225.769C82.0909 226.089 82.3909 226.509 82.6309 226.949C82.8109 227.309 82.8909 227.449 83.0509 227.449C83.1509 227.449 83.2909 227.409 83.5109 227.309C85.0909 226.669 86.4509 225.849 87.5909 224.889C88.7509 225.849 90.1309 226.609 91.6509 227.209C91.8709 227.289 92.0109 227.349 92.1109 227.349C92.2709 227.349 92.3309 227.189 92.5109 226.809C92.7309 226.309 93.0509 225.809 93.3709 225.409C91.6709 224.969 90.2309 224.329 89.0309 223.489C90.0309 222.349 90.8309 221.089 91.4109 219.769C91.5709 219.429 91.7309 219.249 91.8909 219.149C92.0509 219.049 92.1109 218.969 92.1109 218.789C92.1109 218.649 91.9509 218.429 91.4909 217.949C91.1109 217.569 90.8709 217.389 90.7309 217.389C90.6109 217.389 90.5109 217.449 90.4309 217.489C90.3309 217.529 90.2109 217.569 89.9909 217.569H85.3309ZM89.4509 219.329C89.0309 220.329 88.4109 221.329 87.5709 222.229C86.8109 221.409 86.2109 220.449 85.7509 219.329H89.4509ZM79.8709 222.589V224.589H77.7109V222.589H79.8709ZM88.2309 211.689V214.629C88.2309 215.309 88.3709 215.749 88.7709 216.009C89.0909 216.209 89.6509 216.289 90.4709 216.289C91.5309 216.289 92.1709 216.149 92.5109 215.829C92.9709 215.449 93.1709 214.889 93.2309 213.689C93.2509 213.169 93.2709 213.129 92.7709 212.969C92.3909 212.849 91.9109 212.629 91.5909 212.429C91.5509 213.549 91.5109 214.029 91.3909 214.229C91.2709 214.409 91.1309 214.509 90.8509 214.509C90.5309 214.509 90.3909 214.489 90.2909 214.389C90.1709 214.269 90.1509 214.029 90.1509 213.709V211.629C90.1509 210.609 90.1909 210.129 90.1909 210.009C90.1909 209.809 90.1709 209.789 89.9709 209.789C89.8509 209.789 89.4509 209.829 88.1709 209.829H86.1709C84.8909 209.829 84.5309 209.789 84.4109 209.789C84.1909 209.789 84.1709 209.809 84.1709 210.009C84.1709 210.129 84.2109 210.589 84.2109 211.489C84.2109 213.749 83.4709 214.929 82.1309 215.849C82.4909 216.029 82.9309 216.389 83.2309 216.729C83.4509 216.989 83.5909 217.109 83.7109 217.109C83.8309 217.109 83.9709 217.009 84.1909 216.789C85.3909 215.649 86.1109 214.209 86.1509 211.689H88.2309ZM77.3909 212.669C75.8709 212.669 75.3709 212.629 75.2709 212.629C75.0709 212.629 75.0509 212.649 75.0509 212.849V214.269C75.0509 214.489 75.0709 214.509 75.2709 214.509C75.3709 214.509 75.8709 214.469 77.3909 214.469H79.9909C81.5109 214.469 82.0109 214.509 82.1309 214.509C82.3309 214.509 82.3509 214.489 82.3509 214.269V212.849C82.3509 212.649 82.3309 212.629 82.1309 212.629C82.0109 212.629 81.5109 212.669 79.9909 212.669H77.3909ZM77.9309 209.929C76.6309 209.929 76.2309 209.889 76.1109 209.889C75.9109 209.889 75.8909 209.909 75.8909 210.109V211.449C75.8909 211.649 75.9109 211.669 76.1109 211.669C76.2309 211.669 76.6309 211.629 77.9309 211.629H79.7509C81.0509 211.629 81.4309 211.669 81.5509 211.669C81.7709 211.669 81.7909 211.649 81.7909 211.449V210.109C81.7909 209.909 81.7709 209.889 81.5509 209.889C81.4309 209.889 81.0509 209.929 79.7509 209.929H77.9309ZM78.0109 215.529C76.7909 215.529 76.4309 215.489 76.3109 215.489C76.1109 215.489 76.0909 215.509 76.0909 215.689V216.989C76.0909 217.189 76.1109 217.209 76.3109 217.209C76.4309 217.209 76.7909 217.169 78.0109 217.169H79.5909C80.8109 217.169 81.1709 217.209 81.2709 217.209C81.4909 217.209 81.5109 217.189 81.5109 216.989V215.689C81.5109 215.509 81.4909 215.489 81.2709 215.489C81.1709 215.489 80.8109 215.529 79.5909 215.529H78.0109ZM78.0109 218.209C76.7909 218.209 76.4309 218.169 76.3109 218.169C76.1109 218.169 76.0909 218.189 76.0909 218.389V219.669C76.0909 219.869 76.1109 219.889 76.3109 219.889C76.4309 219.889 76.7909 219.849 78.0109 219.849H79.5909C80.8109 219.849 81.1709 219.889 81.2709 219.889C81.4909 219.889 81.5109 219.869 81.5109 219.669V218.389C81.5109 218.189 81.4909 218.169 81.2709 218.169C81.1709 218.169 80.8109 218.209 79.5909 218.209H78.0109ZM100.211 213.729C100.111 213.809 100.071 213.869 100.071 213.929C100.071 213.989 100.111 214.029 100.211 214.089C101.531 214.849 102.791 215.629 103.991 216.609H98.2309C96.4509 216.609 95.8309 216.569 95.7109 216.569C95.5109 216.569 95.4909 216.589 95.4909 216.789V218.349C95.4909 218.549 95.5109 218.569 95.7109 218.569C95.8309 218.569 96.4509 218.529 98.2309 218.529H103.111V224.449C103.111 225.009 102.931 225.169 102.351 225.169C101.731 225.169 100.911 225.129 99.8909 225.049C100.171 225.489 100.411 226.089 100.571 226.649C100.731 227.289 100.731 227.289 101.351 227.289C103.371 227.289 104.111 227.169 104.691 226.769C105.111 226.469 105.331 225.949 105.331 224.969C105.331 224.229 105.311 223.309 105.311 221.849V218.529H109.671C109.051 219.309 107.991 220.189 106.991 220.889C107.391 221.069 107.991 221.449 108.371 221.769C108.631 221.989 108.751 222.089 108.851 222.089C108.971 222.089 109.091 221.989 109.311 221.789C110.431 220.869 111.271 219.929 112.051 218.949C112.411 218.509 112.591 218.329 112.791 218.209C112.991 218.069 113.071 217.989 113.071 217.829C113.071 217.609 113.031 217.489 112.411 216.989C111.771 216.449 111.571 216.409 111.411 216.409C111.331 216.409 111.211 216.449 111.111 216.509C111.011 216.569 110.911 216.609 110.651 216.609H106.131L106.451 216.329C106.671 216.149 106.671 216.129 106.511 215.989L105.811 215.409C107.311 214.509 108.931 213.329 109.951 212.409C110.191 212.169 110.391 212.029 110.691 211.889C110.931 211.789 111.051 211.689 111.051 211.509C111.051 211.289 110.931 211.109 110.331 210.529C109.831 210.029 109.551 209.889 109.391 209.889C109.291 209.889 109.231 209.929 109.111 209.989C109.011 210.029 108.851 210.049 108.591 210.049H100.211C98.2509 210.049 97.5709 210.009 97.4509 210.009C97.2709 210.009 97.2509 210.029 97.2509 210.229V211.729C97.2509 211.929 97.2709 211.949 97.4509 211.949C97.5709 211.949 98.2509 211.909 100.211 211.909H107.351C106.451 212.709 105.371 213.489 104.131 214.209C103.311 213.669 102.471 213.189 101.611 212.729C101.431 212.649 101.371 212.649 101.211 212.809L100.211 213.729ZM123.111 216.889V224.309C121.551 223.769 120.831 222.849 120.111 221.449C120.251 220.949 120.371 220.429 120.471 219.869C120.551 219.569 120.631 219.369 120.731 219.249C120.811 219.149 120.911 219.029 120.911 218.869C120.911 218.729 120.811 218.649 120.531 218.589C119.951 218.449 119.291 218.309 118.631 218.209C118.631 218.649 118.571 219.029 118.511 219.489C118.131 222.209 116.811 224.329 114.911 225.809C115.331 226.069 115.731 226.409 116.071 226.849C116.271 227.109 116.371 227.229 116.471 227.229C116.591 227.229 116.711 227.109 116.911 226.889C117.951 225.869 118.751 224.769 119.351 223.469C120.931 225.849 122.331 226.929 129.491 226.949C130.291 226.949 131.091 226.929 131.851 226.889C132.471 226.829 132.491 226.829 132.571 226.209C132.631 225.729 132.751 225.249 132.951 224.769C131.631 224.869 130.211 224.949 129.071 224.949C127.491 224.949 126.231 224.889 125.211 224.769V221.349H127.651C129.291 221.349 129.831 221.389 129.951 221.389C130.171 221.389 130.191 221.369 130.191 221.189V219.729C130.191 219.529 130.171 219.509 129.951 219.509C129.831 219.509 129.291 219.549 127.651 219.549H125.211V216.889H126.911C128.831 216.889 129.491 216.929 129.611 216.929C129.811 216.929 129.831 216.909 129.831 216.709V215.249C129.831 215.049 129.811 215.029 129.611 215.029C129.491 215.029 128.831 215.069 126.911 215.069H121.271C119.331 215.069 118.691 215.029 118.571 215.029C118.351 215.029 118.331 215.049 118.331 215.249V216.709C118.331 216.909 118.351 216.929 118.571 216.929C118.691 216.929 119.331 216.889 121.271 216.889H123.111ZM124.931 211.209V211.009C124.931 210.249 124.931 209.989 125.011 209.809C125.071 209.669 125.131 209.569 125.131 209.429C125.131 209.309 125.011 209.249 124.831 209.229C124.151 209.169 123.431 209.129 122.691 209.129C122.811 209.629 122.831 210.149 122.831 211.029V211.209H118.551C116.671 211.209 116.031 211.169 115.891 211.169C115.691 211.169 115.671 211.189 115.671 211.369C115.671 211.509 115.711 211.849 115.711 212.589V213.269C115.711 215.049 115.671 215.329 115.671 215.469C115.671 215.669 115.691 215.689 115.891 215.689H117.511C117.731 215.689 117.751 215.669 117.751 215.469V213.049H130.411V215.469C130.411 215.669 130.431 215.689 130.631 215.689H132.271C132.471 215.689 132.491 215.669 132.491 215.469C132.491 215.349 132.451 215.049 132.451 213.269V212.409C132.451 211.849 132.491 211.509 132.491 211.369C132.491 211.189 132.471 211.169 132.271 211.169C132.151 211.169 131.491 211.209 129.631 211.209H124.931ZM144.311 217.669L146.231 217.009V219.829C146.231 221.829 146.191 222.789 146.191 222.929C146.191 223.129 146.211 223.149 146.411 223.149H148.011C148.211 223.149 148.231 223.129 148.231 222.929C148.231 222.809 148.191 221.829 148.191 219.829V216.349L150.511 215.549C150.491 217.509 150.411 218.289 150.271 219.049C150.151 219.689 150.011 219.789 149.671 219.789C149.391 219.789 149.031 219.749 148.611 219.649C148.811 220.049 148.971 220.629 149.031 221.089C149.131 221.709 149.131 221.709 149.571 221.749C149.831 221.789 150.071 221.789 150.311 221.789C151.171 221.789 151.731 221.429 152.031 220.269C152.311 219.249 152.471 217.769 152.511 215.749L152.571 213.189C152.571 213.029 152.491 212.969 152.351 212.989C152.211 213.009 151.611 213.269 149.731 213.889L148.191 214.409V211.889C148.191 210.829 148.211 210.329 148.311 210.089C148.371 209.929 148.431 209.829 148.431 209.689C148.431 209.569 148.311 209.489 148.111 209.469C147.451 209.369 146.831 209.329 146.071 209.309C146.191 210.329 146.231 210.949 146.231 212.149V215.049L144.311 215.689V213.969C144.311 212.709 144.331 212.269 144.431 212.069C144.511 211.889 144.551 211.809 144.551 211.649C144.551 211.549 144.431 211.469 144.151 211.429C143.551 211.369 142.911 211.329 142.231 211.309C142.331 212.109 142.371 213.049 142.351 214.149V216.349C141.071 216.769 140.551 216.889 140.391 216.929C140.211 216.989 140.191 216.989 140.231 217.189L140.491 218.749C140.531 218.949 140.551 218.969 140.751 218.909C140.911 218.869 141.331 218.689 142.351 218.329V224.569C142.351 225.649 142.631 226.249 143.111 226.549C143.611 226.869 144.611 227.109 147.331 227.109C150.431 227.109 151.391 226.909 152.071 226.449C152.731 226.029 152.971 225.489 153.151 223.749C153.211 223.229 153.211 223.229 152.711 223.089C152.131 222.929 151.671 222.689 151.271 222.449C151.211 224.029 151.111 224.429 150.791 224.709C150.391 225.029 149.731 225.129 147.571 225.129C145.591 225.129 144.971 225.069 144.691 224.909C144.411 224.769 144.311 224.529 144.311 224.009V217.669ZM139.271 216.289C140.411 216.289 140.791 216.329 140.911 216.329C141.091 216.329 141.111 216.309 141.111 216.109V214.589C141.111 214.389 141.091 214.369 140.911 214.369C140.791 214.369 140.411 214.409 139.271 214.409V212.269C139.271 211.109 139.291 210.609 139.391 210.369C139.451 210.209 139.511 210.109 139.511 209.969C139.511 209.849 139.391 209.749 139.191 209.729C138.531 209.649 137.911 209.609 137.131 209.589C137.271 210.389 137.291 211.209 137.291 212.529V214.409H137.131C135.831 214.409 135.431 214.369 135.311 214.369C135.111 214.369 135.111 214.389 135.111 214.589V216.109C135.111 216.309 135.111 216.329 135.311 216.329C135.431 216.329 135.831 216.289 137.131 216.289H137.291V221.969L136.831 222.109C136.111 222.349 135.491 222.489 134.851 222.609C135.031 223.289 135.191 223.869 135.391 224.389C135.471 224.569 135.571 224.629 135.691 224.629C135.811 224.629 135.951 224.569 136.031 224.489C136.111 224.409 136.351 224.309 136.691 224.169C138.011 223.669 139.431 223.089 140.671 222.469C141.231 222.189 141.231 222.209 141.191 221.549C141.171 221.129 141.171 220.669 141.211 220.309C140.531 220.669 139.911 220.969 139.271 221.229V216.289Z" fill="#6A6A6A"/>
<rect x="-13.3441" y="0.888672" width="234" height="36" fill="#41A6C7"/>
<path d="M36.2159 16.1487C36.3359 14.3287 37.1159 13.3887 38.3759 13.3887C39.5959 13.3887 40.3759 14.1687 40.3759 15.5087C40.3759 16.7687 39.9359 17.5687 37.9359 19.4887C35.7559 21.5887 34.4759 23.2687 33.5759 25.1487V26.9287H43.0359V24.9287H36.1759C36.7959 23.6887 37.7959 22.5687 39.8959 20.6887C42.2359 18.5087 42.9759 17.2287 42.9759 15.5287C42.9759 12.8887 41.1559 11.4087 38.4159 11.4087C35.9159 11.4087 34.0559 12.8887 33.7159 15.6287L36.2159 16.1487ZM48.3407 24.1687H45.4807V26.9287H48.3407V24.1687ZM69.4098 15.2487C68.6098 17.4687 67.5898 19.1687 66.0298 20.9487C64.1898 23.0887 62.4098 24.4687 59.4898 25.9487C60.2298 26.2487 60.8898 26.6087 61.3498 27.0487C61.5098 27.2087 61.6898 27.2687 61.8498 27.2687C62.0298 27.2687 62.2098 27.2087 62.3898 27.0887C64.4098 25.9487 66.3498 24.2887 68.0698 22.3287C69.7498 20.3887 70.9698 18.1887 71.9498 15.8287C72.1298 15.4287 72.2298 15.2287 72.4098 15.0487C72.5898 14.8887 72.6898 14.7287 72.6898 14.5487C72.6898 14.4287 72.6498 14.3287 72.5498 14.2087C72.1698 13.7287 71.6298 13.2287 71.0898 12.8887C70.9498 12.8287 70.8298 12.7887 70.7098 12.7887C70.6098 12.7887 70.5098 12.8087 70.4098 12.8687C70.1298 13.0287 69.9098 13.0687 69.3098 13.0687H62.1698C60.2898 13.0687 59.2298 13.0287 58.3298 12.9287C58.3698 13.5087 58.4498 14.5487 58.5098 14.9487C58.5498 15.2287 58.6298 15.3687 58.8898 15.3487C59.7498 15.3087 60.8898 15.2487 62.1898 15.2487H69.4098ZM85.6698 25.3487C85.6698 25.6287 85.5498 25.7687 85.2698 25.8287C84.8498 25.9087 84.0098 25.9887 82.8698 25.9887C83.4898 26.4487 83.8898 26.8487 84.1498 27.5087C84.2498 27.7487 84.3898 27.8487 84.7298 27.8487C85.4698 27.8487 86.4098 27.5887 86.9298 27.2487C87.4898 26.9287 87.7698 26.4487 87.7298 25.4087L87.4698 19.8287H88.7898C89.9698 19.8287 91.0098 19.8687 91.7698 19.8687C91.9898 19.8887 92.1098 19.7687 92.1098 19.5887C92.1298 19.1287 92.1298 18.6487 92.1098 18.1887C92.1098 17.9887 92.0098 17.9087 91.7698 17.9287C90.9298 17.9287 89.7298 17.9887 88.7298 17.9887H87.3298L87.2698 16.5687C87.2498 15.9487 87.2498 15.6887 87.3698 15.4087C87.4698 15.1687 87.4098 14.9487 87.1098 14.9087C86.6098 14.8287 85.6898 14.7487 84.9298 14.7287C85.1098 15.4087 85.1498 15.9687 85.2098 16.6887L85.2698 18.0087H81.8698C80.8898 18.0087 80.1898 18.0087 78.9698 17.9287C79.0098 18.6287 79.0498 19.1487 79.1098 19.5887C79.1298 19.8087 79.2498 19.9287 79.4098 19.9087C80.2698 19.8887 81.0898 19.8287 81.9298 19.8287H84.2298C83.6498 20.5687 82.9498 21.2487 82.0498 22.0287C80.8898 23.0087 80.1898 23.5287 78.3298 24.5487C78.9498 24.7887 79.3698 25.0487 79.7698 25.5287C79.8898 25.6687 79.9898 25.7287 80.0898 25.7287C80.1898 25.7287 80.2898 25.6887 80.4298 25.6087C81.2898 25.1087 82.6898 24.0887 83.4898 23.3887C84.2698 22.6887 84.9298 21.9287 85.4898 21.1887L85.6698 25.3487ZM108.41 20.7087C109.89 20.7087 111.37 20.7287 112.87 20.7487C113.15 20.7687 113.23 20.6887 113.23 20.4487C113.27 19.8487 113.27 19.1687 113.23 18.5687C113.23 18.3287 113.17 18.2687 112.87 18.2887C111.33 18.3087 109.79 18.3487 108.27 18.3487H101.83C99.8098 18.3487 98.8098 18.3087 97.5098 18.1087C97.5898 19.1287 97.7098 20.0687 97.8098 20.5287C97.8698 20.8287 98.0298 20.9487 98.2698 20.9487C98.4698 20.9487 99.2298 20.7087 101.21 20.7087H108.41ZM122.834 11.1687C122.774 12.1687 122.574 12.8687 122.254 13.9087C121.214 17.2687 120.174 20.2287 118.754 23.8087C117.954 23.8287 117.114 23.8487 116.314 23.7887C116.594 25.0287 116.854 26.0287 117.014 26.3687C117.114 26.6487 117.334 26.6887 117.594 26.5687C118.074 26.3287 118.614 26.2287 119.934 26.0887C123.194 25.7487 126.234 25.4087 129.434 24.9287C129.674 25.4487 129.894 25.9687 130.134 26.5287C130.194 26.7087 130.294 26.8087 130.414 26.8087C130.494 26.8087 130.574 26.7887 130.654 26.7487C131.194 26.5087 131.694 26.2487 132.174 25.9287C132.354 25.8287 132.434 25.7087 132.434 25.5887C132.434 25.5087 132.414 25.4287 132.354 25.3287C131.374 23.1087 129.874 20.6087 128.314 18.7887C128.174 18.6287 128.054 18.5487 127.834 18.6687C127.274 18.9687 126.694 19.3087 126.094 19.6287C126.954 20.6287 127.694 21.7287 128.314 22.8287C126.074 23.1687 124.394 23.3287 121.314 23.5887C122.574 20.5887 123.634 17.6487 124.754 14.5887C124.974 14.0087 125.214 13.3887 125.574 12.9287C125.714 12.7687 125.774 12.6287 125.774 12.5287C125.774 12.4087 125.674 12.3087 125.534 12.2087C124.914 11.8087 124.054 11.5287 122.834 11.1687ZM140.894 11.2887C139.454 11.2887 139.014 11.2487 138.894 11.2487C138.674 11.2487 138.654 11.2687 138.654 11.4687V13.1487C138.654 13.3487 138.674 13.3687 138.894 13.3687C139.014 13.3687 139.454 13.3287 140.894 13.3287H143.374C143.114 19.0487 140.294 23.8287 135.334 26.2687C135.734 26.5687 136.194 27.0487 136.514 27.5887C136.714 27.9087 136.794 28.0687 136.934 28.0687C137.034 28.0687 137.154 27.9687 137.394 27.8287C141.014 25.5887 143.674 21.9687 144.754 17.8687C145.754 21.8487 147.974 25.1087 151.614 27.7887C151.834 27.9487 151.974 28.0487 152.074 28.0487C152.194 28.0487 152.274 27.9087 152.434 27.5887C152.794 26.9087 153.254 26.4087 153.614 26.0687C148.914 23.2287 146.454 19.1087 145.834 13.7087C145.714 12.7487 145.674 12.2087 145.714 11.4887C145.714 11.2887 145.634 11.2487 145.454 11.2487C145.334 11.2487 144.894 11.2887 143.454 11.2887H140.894ZM169.674 16.6287C169.674 19.9687 169.494 22.6687 169.154 24.5887C168.954 25.6487 168.434 25.9287 167.694 25.9287C166.714 25.9287 165.994 25.8887 164.694 25.6687C164.954 26.0887 165.134 26.6087 165.274 27.2487C165.394 27.8887 165.394 27.9087 166.014 27.9687C166.614 28.0287 167.174 28.0687 167.934 28.0487C169.934 28.0287 170.914 27.3287 171.274 25.4087C171.674 23.2687 171.854 19.9487 171.894 16.6287C171.894 16.1087 171.894 15.4287 171.934 14.8287C171.934 14.6287 171.894 14.5887 171.694 14.5887C171.554 14.5887 170.894 14.6287 168.954 14.6287H164.754C164.774 14.0487 164.774 13.4687 164.774 12.9287C164.774 12.0487 164.834 11.4687 164.934 11.2287C165.034 11.0687 165.114 10.9487 165.114 10.7287C165.114 10.5887 165.014 10.4887 164.714 10.4487C164.034 10.3287 163.134 10.2687 162.354 10.2287C162.494 11.1287 162.534 11.9087 162.534 12.8887C162.534 13.4687 162.514 14.0487 162.514 14.6287H159.294C157.374 14.6287 156.714 14.5887 156.614 14.5887C156.394 14.5887 156.374 14.6087 156.374 14.8087V16.4487C156.374 16.6487 156.394 16.6687 156.614 16.6687C156.714 16.6687 157.374 16.6287 159.294 16.6287H162.414C162.294 18.0287 162.034 19.3687 161.574 20.6487C160.634 23.2687 158.614 25.1687 155.354 26.5887C155.774 26.8287 156.214 27.2287 156.614 27.7487C156.834 28.0487 156.934 28.1687 157.094 28.1687C157.194 28.1687 157.334 28.0887 157.574 27.9887C160.534 26.3887 162.474 24.4087 163.614 21.4487C164.174 20.0087 164.474 18.3087 164.614 16.6287H169.674Z" fill="white"/>
</g>
</g>
<defs>
<filter id="filter0_d" x="0.0308838" y="0.888672" width="208" height="262" filterUnits="userSpaceOnUse" color-interpolation-filters="sRGB">
<feFlood flood-opacity="0" result="BackgroundImageFix"/>
<feColorMatrix in="SourceAlpha" type="matrix" values="0 0 0 0 0 0 0 0 0 0 0 0 0 0 0 0 0 0 127 0"/>
<feOffset dy="4"/>
<feGaussianBlur stdDeviation="2"/>
<feColorMatrix type="matrix" values="0 0 0 0 0 0 0 0 0 0 0 0 0 0 0 0 0 0 0.25 0"/>
<feBlend mode="normal" in2="BackgroundImageFix" result="effect1_dropShadow"/>
<feBlend mode="normal" in="SourceGraphic" in2="effect1_dropShadow" result="shape"/>
</filter>
<clipPath id="clip0">
<rect x="4.03088" y="0.888672" width="200" height="254" rx="10" fill="white"/>
</clipPath>
</defs>
</svg>
