<svg width="210" height="263" viewBox="0 0 210 263" fill="none" xmlns="http://www.w3.org/2000/svg">
<g filter="url(#filter0_d)">
<g clip-path="url(#clip0)">
<rect x="4.15588" y="0.888672" width="201" height="254" rx="10" fill="white"/>
<g filter="url(#filter1_d)">
<path d="M150.265 79.6361L130.683 59.8887H59.489C56.8504 59.8887 54.7113 62.0377 54.7113 64.6887V175.089C54.7113 177.74 56.8504 179.889 59.489 179.889H145.488C148.126 179.889 150.265 177.74 150.265 175.089V79.6361Z" fill="white"/>
<path fill-rule="evenodd" clip-rule="evenodd" d="M137.127 130.809H67.85V127.329H137.127V130.809Z" fill="#CCCCCC"/>
<path fill-rule="evenodd" clip-rule="evenodd" d="M137.127 141.849H67.85V138.369H137.127V141.849Z" fill="#CCCCCC"/>
<path fill-rule="evenodd" clip-rule="evenodd" d="M137.127 152.889H67.85V149.409H137.127V152.889Z" fill="#CCCCCC"/>
<path fill-rule="evenodd" clip-rule="evenodd" d="M137.127 163.929H67.85V160.449H137.127V163.929Z" fill="#CCCCCC"/>
<path d="M150.263 79.5531L130.677 59.8887V74.7531C130.677 77.404 132.816 79.5531 135.454 79.5531H150.263Z" fill="#CCCCCC"/>
<rect x="45.1559" y="75.2487" width="71.9044" height="35.04" fill="#E06457"/>
<path d="M54.6322 119.889H54.7113V110.289H45.1559V110.368L54.6322 119.889Z" fill="#B85045"/>
<path d="M59.1051 83.1268V101.937H62.3623V94.0348H65.523C70.0107 94.0348 72.3993 91.9744 72.3993 88.5081C72.3993 85.0418 70.3243 83.1268 65.716 83.1268H59.1051ZM62.3623 85.5751H65.5471C68.0322 85.5751 69.118 86.6659 69.118 88.5324C69.118 90.4473 67.9116 91.5866 65.4265 91.5866H62.3623V85.5751Z" fill="white"/>
<path d="M75.8341 83.1268V101.937H81.6729C87.2946 101.937 91.0102 98.7374 91.0102 92.4108C91.0102 86.0841 87.6806 83.1268 82.1072 83.1268H75.8341ZM79.0671 85.6478H81.7694C85.3885 85.6478 87.56 87.587 87.56 92.435C87.56 97.3315 85.2438 99.4161 81.6005 99.4161H79.0671V85.6478Z" fill="white"/>
<path d="M106.801 83.1268H94.4715V101.937H97.7529V93.3804H104.605V90.7867H97.7529V85.7205H106.801V83.1268Z" fill="white"/>
</g>
<rect x="-12.2191" y="1" width="234" height="36" fill="#41A6C7"/>
<path d="M40.9609 11.68H38.9209C37.8609 12.46 36.6809 13.1 35.3609 13.48L35.7609 15.58C36.8609 15.22 37.8209 14.74 38.5809 14.22V25.1H35.5809V27.04H43.8209V25.1H40.9609V11.68ZM49.4657 24.28H46.6057V27.04H49.4657V24.28ZM71.6148 14.74C70.6148 16.18 69.6348 17.04 68.0348 18.24C68.6948 18.44 69.1948 18.66 69.6948 19.06C69.8348 19.18 70.0148 19.26 70.1748 19.26C70.3348 19.26 70.4748 19.2 70.5948 19.08C71.9348 18.02 73.1748 16.64 74.1148 15.22C74.2748 15 74.4348 14.8 74.6548 14.64C74.8348 14.52 74.9348 14.38 74.9348 14.22C74.9348 14.1 74.8748 13.98 74.7748 13.86C74.3948 13.4 74.0148 12.98 73.5748 12.6C73.4348 12.44 73.2748 12.32 73.1148 12.32C73.0148 12.32 72.8348 12.42 72.7348 12.46C72.5348 12.54 72.1948 12.58 71.3548 12.58H62.7748C61.1748 12.58 60.0748 12.54 58.7148 12.44C58.7948 13.04 58.9148 14.04 59.0748 14.6C59.1148 14.78 59.1948 14.92 59.4348 14.9C60.6148 14.82 61.8348 14.74 62.9748 14.74H71.6148ZM59.9148 26.36C60.6748 26.64 61.2548 26.96 61.7348 27.38C61.8548 27.5 61.9948 27.56 62.1348 27.56C62.3348 27.56 62.5148 27.48 62.6948 27.36C64.3548 26.3 65.5548 24.88 66.3348 23.38C67.2548 21.6 67.4548 19.82 67.5148 17.88C67.5348 17.54 67.5548 17.34 67.6948 17.06C67.7548 16.94 67.7948 16.82 67.7948 16.7C67.7948 16.52 67.7148 16.38 67.4548 16.32C66.8948 16.18 65.8548 16.04 64.8748 15.94C65.0348 16.62 65.0748 17.08 65.0748 17.82C65.0748 19.76 64.8548 21.12 64.0948 22.54C63.2348 24.14 62.0948 25.22 59.9148 26.36ZM79.5893 17.58C80.3893 18.54 81.0093 19.64 81.4693 20.8C81.5693 21.08 81.6893 21.18 81.9693 21.08C82.4293 20.9 82.7693 20.74 83.2493 20.46C83.4093 20.36 83.4893 20.3 83.4893 20.18C83.4893 20.1 83.4493 20.02 83.4093 19.88C83.0293 18.82 82.3893 17.8 81.6893 16.92C81.5293 16.7 81.3893 16.68 81.1693 16.78C80.7493 16.98 80.2693 17.2 79.5893 17.58ZM83.6093 16.56C84.3693 17.62 84.8293 18.58 85.2893 19.76C85.3893 20.04 85.4693 20.14 85.6893 20.06C86.2493 19.86 86.6893 19.66 87.0693 19.44C87.3293 19.3 87.3693 19.2 87.2693 18.9C86.9493 17.94 86.2693 16.68 85.7293 15.98C85.5693 15.74 85.4293 15.72 85.2093 15.82C84.8693 15.96 84.4093 16.18 83.6093 16.56ZM89.9093 16.08C89.8293 17.02 89.7093 17.46 89.4493 18.2C88.8693 19.76 87.7493 21.72 86.7493 23.02C85.5493 24.58 84.3493 25.6 81.9493 27.18C82.6893 27.4 83.1493 27.62 83.6493 28.02C83.7493 28.12 83.8693 28.16 83.9693 28.16C84.1293 28.16 84.2893 28.06 84.4493 27.94C86.1493 26.82 87.2493 25.76 88.5693 24.08C89.6893 22.62 90.7293 20.8 91.5893 18.76C91.7493 18.4 91.8893 18 92.1893 17.74C92.3493 17.6 92.4093 17.5 92.4093 17.38C92.4093 17.26 92.3093 17.16 92.1493 17.04C91.6493 16.7 90.7493 16.34 89.9093 16.08ZM109.249 15.62C108.449 17.84 107.429 19.54 105.869 21.32C104.029 23.46 102.249 24.84 99.3293 26.32C100.069 26.62 100.729 26.98 101.189 27.42C101.349 27.58 101.529 27.64 101.689 27.64C101.869 27.64 102.049 27.58 102.229 27.46C104.249 26.32 106.189 24.66 107.909 22.7C109.589 20.76 110.809 18.56 111.789 16.2C111.969 15.8 112.069 15.6 112.249 15.42C112.389 15.28 112.449 15.16 112.449 15.04C112.449 14.9 112.389 14.78 112.289 14.64C111.949 14.16 111.449 13.68 110.929 13.26C110.829 13.16 110.709 13.12 110.589 13.12C110.489 13.12 110.369 13.16 110.249 13.24C109.969 13.4 109.749 13.44 109.149 13.44H102.009C100.129 13.44 99.0693 13.4 98.1693 13.3C98.2093 13.88 98.2893 14.92 98.3493 15.32C98.3893 15.6 98.4693 15.74 98.7293 15.72C99.5893 15.68 100.729 15.62 102.029 15.62H109.249ZM113.689 9.64C112.489 9.64 111.529 10.54 111.529 11.78C111.529 12.98 112.489 13.92 113.689 13.92C114.889 13.92 115.849 12.98 115.849 11.78C115.849 10.58 114.889 9.64 113.689 9.64ZM113.689 10.6C114.369 10.6 114.869 11.1 114.869 11.78C114.869 12.46 114.369 12.96 113.689 12.96C113.009 12.96 112.509 12.46 112.509 11.78C112.509 11.1 113.009 10.6 113.689 10.6ZM129.009 24.66V25.72C129.009 26 129.029 26.04 129.269 26.04C129.869 26.06 130.509 26.06 131.109 26.04C131.389 26.04 131.489 25.98 131.489 25.7C131.449 24.62 131.389 23.64 131.389 21.9V17.12C131.389 15.94 131.409 14.86 131.409 13.88C131.429 13.58 131.369 13.48 131.149 13.48C130.209 13.52 128.689 13.52 127.389 13.52H122.629C121.289 13.52 120.109 13.52 119.049 13.46C118.909 13.46 118.829 13.54 118.829 13.74C118.889 14.9 118.869 15.98 118.869 17.06V21.96C118.869 23.48 118.829 24.9 118.809 25.94C118.789 26.18 118.889 26.22 119.229 26.24C119.729 26.26 120.309 26.26 120.809 26.24C121.169 26.22 121.249 26.18 121.249 25.84V24.66H129.009ZM129.009 22.54H121.229V15.64H129.009V22.54ZM148.129 20.82C149.609 20.82 151.089 20.84 152.589 20.86C152.869 20.88 152.949 20.8 152.949 20.56C152.989 19.96 152.989 19.28 152.949 18.68C152.949 18.44 152.889 18.38 152.589 18.4C151.049 18.42 149.509 18.46 147.989 18.46H141.549C139.529 18.46 138.529 18.42 137.229 18.22C137.309 19.24 137.429 20.18 137.529 20.64C137.589 20.94 137.749 21.06 137.989 21.06C138.189 21.06 138.949 20.82 140.929 20.82H148.129ZM164.029 13.86C164.029 12.74 164.029 12.24 164.169 11.98C164.269 11.8 164.329 11.64 164.329 11.52C164.329 11.36 164.229 11.24 163.949 11.18C163.369 11.02 162.369 10.92 161.449 10.86C161.589 11.66 161.649 12.32 161.649 13.82V23.66C161.649 24.94 161.629 26.12 161.569 27.6C161.569 27.84 161.669 27.9 161.949 27.9C162.529 27.94 163.149 27.94 163.729 27.9C164.009 27.9 164.109 27.84 164.089 27.6C164.049 26.16 164.009 24.98 164.009 23.68V19.26C165.629 19.76 167.429 20.64 169.269 21.82C169.349 21.9 169.429 21.92 169.489 21.92C169.589 21.92 169.669 21.84 169.749 21.7C170.029 21.24 170.349 20.62 170.609 19.96C170.709 19.7 170.609 19.56 170.389 19.44C168.409 18.26 166.469 17.48 164.029 16.72V13.86ZM167.629 12.54C168.409 13.18 169.049 13.94 169.649 14.86C169.749 15 169.849 15.02 169.989 14.92L170.829 14.3C170.969 14.2 170.969 14.1 170.889 13.98C170.329 13.12 169.609 12.32 168.989 11.84C168.869 11.74 168.789 11.72 168.689 11.8L167.629 12.54ZM169.469 11.22C170.289 11.9 170.929 12.66 171.469 13.52C171.549 13.64 171.649 13.7 171.809 13.58L172.609 12.96C172.769 12.84 172.749 12.72 172.669 12.6C172.229 11.9 171.509 11.1 170.769 10.54C170.649 10.44 170.589 10.42 170.469 10.5L169.469 11.22Z" fill="white"/>
<path d="M60.8359 216.289C58.8959 216.289 58.2159 216.249 58.0759 216.249C57.8759 216.249 57.8559 216.269 57.8559 216.469C57.8559 216.609 57.8959 217.029 57.8959 218.069V220.129C57.8959 221.169 57.8559 221.589 57.8559 221.729C57.8559 221.929 57.8759 221.949 58.0759 221.949C58.2159 221.949 58.8959 221.909 60.8359 221.909H67.4759C69.4159 221.909 70.0959 221.949 70.2359 221.949C70.4359 221.949 70.4559 221.929 70.4559 221.729C70.4559 221.609 70.4159 221.169 70.4159 220.129V218.069C70.4159 217.029 70.4559 216.589 70.4559 216.469C70.4559 216.269 70.4359 216.249 70.2359 216.249C70.0959 216.249 69.4159 216.289 67.4759 216.289H60.8359ZM68.3359 220.589H59.9559V219.689H68.3359V220.589ZM68.3359 217.629V218.489H59.9559V217.629H68.3359ZM70.2559 215.429C72.0359 215.429 72.6359 215.469 72.7559 215.469C72.9759 215.469 72.9959 215.449 72.9959 215.249V213.969C72.9959 213.769 72.9759 213.749 72.7559 213.749C72.6359 213.749 72.0359 213.789 70.2559 213.789H67.7759C67.9759 213.389 68.1359 212.929 68.2559 212.669C68.2959 212.549 68.3759 212.429 68.4359 212.329H68.6959C70.6559 212.329 71.3159 212.369 71.4359 212.369C71.6359 212.369 71.6559 212.349 71.6559 212.129V210.929C71.6559 210.729 71.6359 210.709 71.4359 210.709C71.3159 210.709 70.6559 210.749 68.7159 210.749H65.1759V210.609C65.1759 210.109 65.1959 209.909 65.2559 209.729C65.3159 209.589 65.3759 209.489 65.3759 209.349C65.3759 209.249 65.2559 209.169 65.0759 209.149C64.3759 209.089 63.5759 209.049 62.8559 209.049C62.9559 209.529 62.9959 209.969 62.9959 210.609V210.749H59.7159C57.7759 210.749 57.1159 210.709 56.9959 210.709C56.7759 210.709 56.7559 210.729 56.7559 210.929V212.129C56.7559 212.349 56.7759 212.369 56.9959 212.369C57.1159 212.369 57.7759 212.329 59.6959 212.329C59.9359 212.809 60.1359 213.289 60.3159 213.789H58.0559C56.2759 213.789 55.6759 213.749 55.5559 213.749C55.3559 213.749 55.3359 213.769 55.3359 213.969V215.249C55.3359 215.449 55.3559 215.469 55.5559 215.469C55.6759 215.469 56.2759 215.429 58.0559 215.429H70.2559ZM66.2359 212.329C66.1159 212.749 65.8959 213.309 65.6759 213.789H62.3759C62.1959 213.229 62.0159 212.749 61.8159 212.329H66.2359ZM62.0959 223.829C62.0959 223.389 62.1159 223.149 62.2159 222.989C62.2959 222.869 62.3159 222.789 62.3159 222.689C62.3159 222.609 62.2159 222.549 61.9559 222.509C61.3559 222.429 60.5759 222.389 59.9159 222.369C59.9959 222.949 60.0159 223.429 60.0159 224.029V225.289C60.0159 226.369 60.3159 226.689 60.7559 226.929C61.3159 227.189 62.4359 227.269 64.1759 227.269C66.2559 227.269 67.4159 227.169 68.1559 226.809C68.6559 226.549 68.9959 225.969 69.1759 224.909C69.2359 224.369 69.2359 224.369 68.7359 224.229C68.1559 224.069 67.6759 223.869 67.2759 223.629C67.2559 224.489 67.0959 225.069 66.7559 225.229C66.3159 225.449 65.5159 225.469 64.2359 225.469C63.4159 225.469 62.7359 225.449 62.4159 225.329C62.1759 225.229 62.0959 225.009 62.0959 224.589V223.829ZM69.0559 223.009C68.8159 223.169 68.7959 223.169 68.9559 223.329C69.9759 224.349 70.6959 225.189 71.4159 226.529C71.4759 226.629 71.5159 226.689 71.5759 226.689C71.6359 226.689 71.7159 226.649 71.8359 226.569L73.0759 225.749C73.2759 225.609 73.2959 225.549 73.1759 225.369C72.4359 224.309 71.5559 223.289 70.4959 222.369C70.3359 222.229 70.2959 222.209 70.0759 222.349L69.0559 223.009ZM56.5559 226.809C56.6559 226.889 56.7359 226.929 56.7959 226.929C56.8559 226.929 56.9159 226.889 56.9759 226.809C57.8959 225.749 58.6159 224.769 59.1559 223.409C59.2359 223.209 59.1959 223.169 58.9559 223.089L57.7359 222.589C57.4759 222.489 57.4359 222.449 57.3359 222.649C56.8759 223.769 56.2159 224.749 55.3159 225.589C55.1759 225.749 55.1759 225.829 55.4159 226.009L56.5559 226.809ZM63.2359 222.809C62.9759 223.029 62.9559 223.009 63.1759 223.149C63.7759 223.689 64.2759 224.189 64.7559 224.829C64.8359 224.929 64.8759 224.969 64.9559 224.969C65.0159 224.969 65.0959 224.929 65.2159 224.829L66.1159 224.069C66.3159 223.909 66.3159 223.869 66.1959 223.709C65.6559 223.069 65.0359 222.509 64.4759 222.129C64.2959 222.009 64.2359 222.009 64.0159 222.169L63.2359 222.809ZM78.1759 211.889H89.8759C91.7359 211.889 92.3759 211.929 92.4959 211.929C92.6959 211.929 92.7159 211.909 92.7159 211.709V210.129C92.7159 209.929 92.6959 209.909 92.4959 209.909C92.3759 209.909 91.7359 209.949 89.8759 209.949H78.8959C77.0359 209.949 76.3559 209.909 76.2359 209.909C76.0359 209.909 76.0159 209.929 76.0159 210.129C76.0159 210.249 76.0559 211.609 76.0559 214.349V223.009C76.0559 225.769 76.0159 227.129 76.0159 227.249C76.0159 227.449 76.0359 227.469 76.2359 227.469H77.9359C78.1559 227.469 78.1759 227.449 78.1759 227.249V226.609H89.9359C91.8759 226.609 92.5559 226.649 92.6759 226.649C92.8759 226.649 92.8959 226.629 92.8959 226.429V224.829C92.8959 224.629 92.8759 224.609 92.6759 224.609C92.5559 224.609 91.8759 224.649 89.9359 224.649H78.1759V211.889ZM86.0159 218.729V221.389C86.0159 223.009 85.9759 223.689 85.9759 223.809C85.9759 224.029 85.9959 224.049 86.1959 224.049H87.8759C88.0759 224.049 88.0959 224.029 88.0959 223.809C88.0959 223.689 88.0559 223.009 88.0559 221.389V218.729H89.0759C90.8959 218.729 91.4959 218.769 91.6159 218.769C91.8359 218.769 91.8559 218.749 91.8559 218.549V217.129C91.8559 216.929 91.8359 216.909 91.6159 216.909C91.4959 216.909 90.8959 216.949 89.0759 216.949H82.5959V215.489C85.1559 215.209 87.4559 214.769 89.2959 214.189C89.6559 214.089 89.9359 214.009 90.1559 213.989C90.3759 213.969 90.5159 213.909 90.5159 213.769C90.5159 213.649 90.4559 213.569 90.3359 213.429C89.8959 212.909 89.5359 212.569 88.9959 212.129C88.5959 212.349 88.2959 212.489 87.7159 212.689C86.3359 213.129 84.2159 213.629 82.1359 213.789C81.5759 213.629 81.1359 213.509 80.4959 213.389C80.5959 213.809 80.6159 214.709 80.6159 215.629V216.689C80.6159 218.409 80.5359 219.309 80.3359 220.069C80.0359 221.229 79.4559 222.189 78.6359 222.829C79.1359 223.129 79.5559 223.469 79.8759 223.869C80.0559 224.109 80.1559 224.229 80.2759 224.229C80.3759 224.229 80.4959 224.109 80.7159 223.869C81.4159 223.129 81.9359 222.049 82.2359 220.889C82.3759 220.309 82.4959 219.609 82.5559 218.729H86.0159ZM99.3759 218.229C99.2159 218.449 99.2159 218.509 99.3759 218.589C100.356 219.029 101.496 219.609 102.636 220.249C101.536 221.129 100.256 221.869 98.7359 222.529C99.0359 222.789 99.3359 223.149 99.5959 223.629C99.7759 223.949 99.8559 224.089 100.016 224.089C100.116 224.089 100.276 224.009 100.516 223.889C102.036 223.169 103.316 222.329 104.456 221.309C105.756 222.109 106.976 222.949 107.996 223.769C108.156 223.909 108.236 223.869 108.396 223.669L109.176 222.589C109.336 222.369 109.376 222.329 109.196 222.189C108.256 221.449 107.096 220.649 105.856 219.889C106.896 218.689 107.796 217.289 108.676 215.569C108.936 215.069 109.076 214.729 109.296 214.549C109.476 214.429 109.516 214.309 109.516 214.189C109.516 214.069 109.436 213.969 109.216 213.849C108.796 213.609 108.016 213.289 107.456 213.089C107.296 213.769 107.076 214.369 106.856 214.789C106.016 216.429 105.136 217.749 104.096 218.869C102.816 218.169 101.556 217.549 100.496 217.109C100.296 217.009 100.216 217.029 100.076 217.229L99.3759 218.229ZM99.4559 213.889C99.2159 214.009 99.2159 214.069 99.3359 214.209C99.9359 215.029 100.496 215.989 100.936 216.929C101.036 217.129 101.056 217.149 101.296 217.009L102.416 216.369C102.676 216.229 102.696 216.189 102.596 216.009C102.136 215.109 101.556 214.129 100.976 213.389C100.856 213.209 100.816 213.189 100.556 213.329L99.4559 213.889ZM102.776 212.829C102.516 212.949 102.476 212.969 102.596 213.169C103.156 214.029 103.496 214.889 103.896 215.929C103.976 216.149 104.036 216.169 104.316 216.049L105.456 215.529C105.716 215.409 105.736 215.369 105.656 215.169C105.236 214.169 104.856 213.329 104.276 212.449C104.156 212.269 104.136 212.209 103.876 212.329L102.776 212.829ZM97.7559 227.509C97.9559 227.509 97.9759 227.489 97.9759 227.289V226.369H110.336V227.269C110.336 227.469 110.356 227.489 110.556 227.489H112.276C112.476 227.489 112.496 227.469 112.496 227.269C112.496 227.149 112.456 225.789 112.456 219.589V214.949C112.456 211.669 112.496 210.269 112.496 210.149C112.496 209.949 112.476 209.929 112.276 209.929C112.136 209.929 111.496 209.969 109.616 209.969H98.6959C96.8359 209.969 96.1759 209.929 96.0359 209.929C95.8359 209.929 95.8159 209.949 95.8159 210.149C95.8159 210.269 95.8559 211.669 95.8559 215.629V219.609C95.8559 225.809 95.8159 227.149 95.8159 227.289C95.8159 227.489 95.8359 227.509 96.0359 227.509H97.7559ZM97.9759 211.849H110.336V224.469H97.9759V211.849ZM116.016 210.409V225.929H118.716V219.409H121.336C125.056 219.409 127.036 217.709 127.036 214.849C127.036 211.989 125.316 210.409 121.496 210.409H116.016ZM118.716 212.429H121.356C123.416 212.429 124.316 213.329 124.316 214.869C124.316 216.449 123.316 217.389 121.256 217.389H118.716V212.429ZM129.883 210.409V225.929H134.723C139.383 225.929 142.463 223.289 142.463 218.069C142.463 212.849 139.703 210.409 135.083 210.409H129.883ZM132.563 212.489H134.803C137.803 212.489 139.603 214.089 139.603 218.089C139.603 222.129 137.683 223.849 134.663 223.849H132.563V212.489ZM155.552 210.409H145.332V225.929H148.052V218.869H153.732V216.729H148.052V212.549H155.552V210.409Z" fill="#6A6A6A"/>
</g>
</g>
<defs>
<filter id="filter0_d" x="0.155884" y="0.888672" width="209" height="262" filterUnits="userSpaceOnUse" color-interpolation-filters="sRGB">
<feFlood flood-opacity="0" result="BackgroundImageFix"/>
<feColorMatrix in="SourceAlpha" type="matrix" values="0 0 0 0 0 0 0 0 0 0 0 0 0 0 0 0 0 0 127 0"/>
<feOffset dy="4"/>
<feGaussianBlur stdDeviation="2"/>
<feColorMatrix type="matrix" values="0 0 0 0 0 0 0 0 0 0 0 0 0 0 0 0 0 0 0.25 0"/>
<feBlend mode="normal" in2="BackgroundImageFix" result="effect1_dropShadow"/>
<feBlend mode="normal" in="SourceGraphic" in2="effect1_dropShadow" result="shape"/>
</filter>
<filter id="filter1_d" x="41.1559" y="55.8887" width="113.109" height="128" filterUnits="userSpaceOnUse" color-interpolation-filters="sRGB">
<feFlood flood-opacity="0" result="BackgroundImageFix"/>
<feColorMatrix in="SourceAlpha" type="matrix" values="0 0 0 0 0 0 0 0 0 0 0 0 0 0 0 0 0 0 127 0"/>
<feOffset/>
<feGaussianBlur stdDeviation="2"/>
<feColorMatrix type="matrix" values="0 0 0 0 0 0 0 0 0 0 0 0 0 0 0 0 0 0 0.25 0"/>
<feBlend mode="normal" in2="BackgroundImageFix" result="effect1_dropShadow"/>
<feBlend mode="normal" in="SourceGraphic" in2="effect1_dropShadow" result="shape"/>
</filter>
<clipPath id="clip0">
<rect x="4.15588" y="0.888672" width="201" height="254" rx="10" fill="white"/>
</clipPath>
</defs>
</svg>
