<svg style="padding: 14px;" width="400" height="177" viewBox="0 0 400 177" fill="none" xmlns="http://www.w3.org/2000/svg">
<g clip-path="url(#clip0)">
<g clip-path="url(#clip1)">
<path d="M5.7771 46.8135V48.0635H7.0271V46.8135H5.7771ZM8.2771 43.0635H7.0271V44.3135H8.2771V43.0635ZM5.7771 44.3135V45.5635H7.0271V44.3135H5.7771ZM8.2771 45.5635H7.0271V46.8135H8.2771V45.5635ZM15.2146 44.3877L11.9373 41.1104C11.5857 40.7588 11.1091 40.5596 10.613 40.5596H2.64038C1.60522 40.5635 0.765381 41.4033 0.765381 42.4385V58.6885C0.765381 59.7236 1.60522 60.5635 2.64038 60.5635H13.8904C14.9255 60.5635 15.7654 59.7236 15.7654 58.6885V45.7158C15.7654 45.2197 15.5662 44.7393 15.2146 44.3877ZM10.7654 42.5908L13.738 45.5635H10.7654V42.5908ZM13.8904 58.6885H2.64038V42.4385H5.75366V43.0635H7.00366V42.4385H8.89038V46.501C8.89038 47.0205 9.30835 47.4385 9.82788 47.4385H13.8904V58.6885ZM8.35132 50.9424C8.30835 50.7236 8.11694 50.5635 7.89038 50.5635H7.0271V49.3135H5.7771V50.5635L5.00757 54.3564C4.74976 55.626 5.71851 56.8135 7.01538 56.8135C8.30835 56.8135 9.2771 55.6338 9.0271 54.3682L8.35132 50.9424ZM7.0271 55.8018C6.32788 55.8018 5.76147 55.3291 5.76147 54.7471C5.76147 54.165 6.32788 53.6924 7.0271 53.6924C7.72632 53.6924 8.29272 54.165 8.29272 54.7471C8.29272 55.3291 7.72632 55.8018 7.0271 55.8018ZM8.2771 48.0635H7.0271V49.3135H8.2771V48.0635Z" fill="black"/>
</g>
<path d="M39.7154 56.9485C39.7154 56.8435 39.7004 56.8285 39.5954 56.8285C39.5204 56.8285 38.9954 56.8585 37.4654 56.8585H34.6904V52.2985H36.4604C37.9604 52.2985 38.4404 52.3285 38.5154 52.3285C38.6204 52.3285 38.6354 52.3135 38.6354 52.2085V51.5485C38.6354 51.4435 38.6204 51.4285 38.5154 51.4285C38.4404 51.4285 37.9604 51.4585 36.4604 51.4585H34.6904V49.7335C34.6904 48.8635 34.7204 48.4885 34.7804 48.3385C34.8254 48.2185 34.8404 48.1435 34.8404 48.0685C34.8404 47.9935 34.7654 47.9485 34.6754 47.9335C34.3754 47.8885 34.0754 47.8585 33.6704 47.8435C33.7604 48.3685 33.7754 48.7585 33.7754 49.7785V51.4585H32.2754C30.7904 51.4585 30.2954 51.4285 30.2204 51.4285C30.1154 51.4285 30.1004 51.4435 30.1004 51.5485V52.2085C30.1004 52.3135 30.1154 52.3285 30.2204 52.3285C30.2954 52.3285 30.7904 52.2985 32.2754 52.2985H33.7754V56.8585H31.1804C29.6654 56.8585 29.1404 56.8285 29.0654 56.8285C28.9604 56.8285 28.9454 56.8435 28.9454 56.9485V57.6235C28.9454 57.7135 28.9604 57.7285 29.0654 57.7285C29.1404 57.7285 29.6654 57.6985 31.1804 57.6985H37.4654C38.9954 57.6985 39.5204 57.7285 39.5954 57.7285C39.7004 57.7285 39.7154 57.7135 39.7154 57.6235V56.9485ZM39.4754 46.2985C39.4754 46.1785 39.4604 46.1635 39.3554 46.1635C39.2804 46.1635 38.7704 46.1935 37.2704 46.1935H30.2804C28.7804 46.1935 28.2404 46.1635 28.1654 46.1635C28.0604 46.1635 28.0454 46.1785 28.0454 46.2985C28.0454 46.3735 28.0754 47.2285 28.0754 49.3435C28.0754 51.1285 27.9854 52.7785 27.7754 53.9335C27.5354 55.3435 27.1154 56.5585 26.3504 57.6985C26.5754 57.8035 26.8004 57.9535 27.0104 58.1635C27.1004 58.2535 27.1604 58.2985 27.2054 58.2985C27.2504 58.2985 27.2804 58.2385 27.3554 58.1185C28.0454 56.8885 28.4504 55.5685 28.6754 54.2635C28.9154 52.9435 29.0054 51.3085 29.0054 49.3585V47.0485H37.2704C38.7704 47.0485 39.2804 47.0785 39.3554 47.0785C39.4604 47.0785 39.4754 47.0635 39.4754 46.9585V46.2985ZM54.9104 49.4485C54.9104 49.3285 54.9104 49.3135 54.8054 49.3135C54.7154 49.3135 54.3554 49.3435 53.2004 49.3435H51.2954C50.1254 49.3435 49.7654 49.3135 49.6904 49.3135C49.5854 49.3135 49.5704 49.3285 49.5704 49.4485V50.0035C49.5704 50.1085 49.5854 50.1235 49.6904 50.1235C49.7654 50.1235 50.1254 50.0935 51.2954 50.0935H51.6404C51.5354 50.6335 51.3854 51.2335 51.2204 51.7435C50.3054 51.7435 50.0054 51.7135 49.9304 51.7135C49.8254 51.7135 49.8104 51.7285 49.8104 51.8335C49.8104 51.9235 49.8404 52.3435 49.8404 53.9035V55.4785C49.8404 57.9835 49.8104 58.3735 49.8104 58.4635C49.8104 58.5685 49.8254 58.5835 49.9304 58.5835H50.5004C50.6054 58.5835 50.6204 58.5685 50.6204 58.4635V57.8635H53.6354V58.4785C53.6354 58.5835 53.6504 58.5985 53.7554 58.5985H54.3404C54.4454 58.5985 54.4604 58.5835 54.4604 58.4785C54.4604 58.4035 54.4304 57.9985 54.4304 55.4935V53.7085C54.4304 52.3585 54.4604 51.9235 54.4604 51.8335C54.4604 51.7285 54.4454 51.7135 54.3404 51.7135C54.2504 51.7135 53.9204 51.7435 52.8704 51.7435H52.0604C52.2104 51.2785 52.3604 50.6635 52.4804 50.0935H53.2004C54.3554 50.0935 54.7154 50.1235 54.8054 50.1235C54.9104 50.1235 54.9104 50.1085 54.9104 50.0035V49.4485ZM53.6354 57.1285H50.6204V55.0885H53.6354V57.1285ZM53.6354 54.3685H50.6204V52.4785H53.6354V54.3685ZM45.2204 50.0935C45.0254 50.1835 45.0104 50.2135 45.0554 50.2885C45.2504 50.6485 45.4154 51.0235 45.5654 51.4135C44.9204 51.4885 44.1404 51.5485 43.3454 51.5935C44.2004 50.4535 45.0104 49.2685 45.8504 47.9485C46.0904 47.5585 46.1804 47.4085 46.3304 47.3035C46.4204 47.2585 46.4804 47.1985 46.4804 47.1085C46.4804 47.0485 46.4354 47.0035 46.3154 46.9285C46.1054 46.7935 45.8504 46.6735 45.5804 46.5535C45.5054 46.8235 45.3554 47.1535 45.1604 47.4985C44.8004 48.0985 44.4404 48.6985 44.0654 49.2985C43.7354 48.9235 43.4354 48.5785 43.1204 48.2485C43.5704 47.5435 43.9604 46.8835 44.4404 46.0135C44.5304 45.8335 44.6054 45.7585 44.6954 45.6985C44.7554 45.6535 44.8004 45.6085 44.8004 45.5185C44.8004 45.4585 44.7554 45.3985 44.6504 45.3385C44.4254 45.2185 44.1704 45.1135 43.9004 45.0085C43.8554 45.2335 43.7504 45.5335 43.5704 45.9085C43.2104 46.6435 42.9404 47.1535 42.5804 47.6935L42.1304 47.2585C42.0404 47.1685 42.0104 47.1835 41.9054 47.3185L41.6504 47.6335C41.5304 47.7835 41.5304 47.8135 41.6204 47.8885C42.3554 48.5785 42.9404 49.2085 43.5854 50.0335C43.2254 50.5735 42.8504 51.1135 42.4454 51.6385H42.3554C42.0854 51.6535 41.7554 51.6385 41.4404 51.6085C41.4854 51.9235 41.5304 52.1785 41.5754 52.3885C41.6054 52.5235 41.6654 52.5985 41.7254 52.5985C41.8004 52.5985 41.8304 52.5685 41.9054 52.5235C41.9804 52.4785 42.1454 52.4485 42.4754 52.4185C42.8954 52.3885 43.3154 52.3585 43.7204 52.3135V56.3035C43.7204 57.9385 43.6904 58.4035 43.6904 58.4785C43.6904 58.5835 43.7054 58.5985 43.8104 58.5985H44.4704C44.5754 58.5985 44.5904 58.5835 44.5904 58.4785C44.5904 58.4035 44.5604 57.9385 44.5604 56.3035V52.2385C44.9804 52.1935 45.3854 52.1335 45.8054 52.0735L45.9404 52.5385C45.9854 52.6885 46.0004 52.6885 46.1954 52.6135L46.4804 52.4935C46.6604 52.4185 46.6754 52.4035 46.6454 52.2985C46.4204 51.5485 46.1054 50.7385 45.7154 50.0185C45.6554 49.9135 45.6404 49.9135 45.4754 49.9885L45.2204 50.0935ZM54.7754 47.4385C54.7754 47.1835 54.8054 47.0335 54.8054 46.9585C54.8054 46.8535 54.7904 46.8385 54.6704 46.8385C54.5954 46.8385 54.0854 46.8685 52.6454 46.8685H51.1454V46.5985C51.1454 45.9385 51.1604 45.7135 51.2204 45.5635C51.2654 45.4585 51.3104 45.3985 51.3104 45.2785C51.3104 45.2185 51.2354 45.1735 51.1304 45.1585C50.8304 45.1135 50.5004 45.0835 50.1404 45.0685C50.2304 45.4735 50.2454 45.8485 50.2454 46.6135V46.8685H48.9104C47.4704 46.8685 46.9754 46.8385 46.9004 46.8385C46.7804 46.8385 46.7654 46.8535 46.7654 46.9585C46.7654 47.0335 46.7954 47.1985 46.7954 47.5885V47.9635C46.7954 48.9835 46.7654 49.1185 46.7654 49.2085C46.7654 49.3135 46.7804 49.3285 46.9004 49.3285H47.5154C47.6204 49.3285 47.6354 49.3135 47.6354 49.2085V47.6185H53.9204V48.8635C53.9204 48.9685 53.9354 48.9835 54.0554 48.9835H54.6704C54.7904 48.9835 54.8054 48.9685 54.8054 48.8635C54.8054 48.7885 54.7754 48.6685 54.7754 47.8135V47.4385ZM47.6504 56.6185C47.6504 57.9085 47.6204 58.4485 47.6204 58.5385C47.6204 58.6285 47.6354 58.6435 47.7554 58.6435H48.3704C48.4754 58.6435 48.4904 58.6285 48.4904 58.5385C48.4904 58.4485 48.4604 57.9085 48.4604 56.6185V51.2185C48.7154 50.6635 48.9254 50.1385 49.0904 49.6735C49.1654 49.4335 49.2404 49.2535 49.3454 49.1485C49.4204 49.0885 49.4354 49.0435 49.4354 48.9685C49.4354 48.9085 49.3604 48.8485 49.2554 48.8035C49.0754 48.7285 48.8504 48.6535 48.4754 48.5635C48.4604 48.8335 48.4004 49.1185 48.3254 49.3585C47.9504 50.6635 47.2304 52.1935 46.0454 53.4535C46.2254 53.5285 46.3454 53.6035 46.4804 53.7235C46.5854 53.8135 46.6454 53.8735 46.7054 53.8735C46.7654 53.8735 46.8254 53.8135 46.9154 53.6935C47.1854 53.3785 47.4404 53.0185 47.6654 52.6435C47.6504 52.9885 47.6504 53.3785 47.6504 53.7535V56.6185ZM43.0304 53.7985C43.0304 53.7235 42.9854 53.6935 42.8204 53.6485C42.6554 53.6035 42.3704 53.5585 42.0854 53.5135C42.1004 53.8135 42.0854 54.0685 42.0554 54.3535C41.9354 55.3885 41.7704 56.1535 41.3354 57.1735C41.5304 57.2185 41.6954 57.3085 41.8304 57.3985C41.9504 57.4735 42.0104 57.5185 42.0554 57.5185C42.1154 57.5185 42.1454 57.4585 42.2054 57.3085C42.5804 56.3485 42.7304 55.4785 42.8354 54.5035C42.8654 54.2485 42.9104 54.0835 42.9554 53.9935C42.9854 53.9335 43.0304 53.8585 43.0304 53.7985ZM45.3254 53.6185C45.1454 53.6785 45.1154 53.6935 45.1604 53.8135C45.4454 54.5485 45.7154 55.6585 45.8504 56.5735C45.8654 56.7085 45.8954 56.7235 46.0904 56.6635L46.4054 56.5585C46.5854 56.4985 46.6004 56.4685 46.5854 56.3485C46.4354 55.5385 46.1354 54.3085 45.8504 53.6035C45.8054 53.4985 45.7604 53.4835 45.6104 53.5285L45.3254 53.6185ZM66.9404 48.5485C66.3104 50.4235 65.2454 52.0885 64.1204 53.3485C62.8604 54.7885 61.5704 55.9135 59.2754 57.0535C59.5904 57.1885 59.8754 57.3835 60.0554 57.5635C60.1904 57.7135 60.3854 57.7135 60.5654 57.5935C62.4254 56.5735 63.8054 55.3435 65.0204 53.9785C66.1904 52.6585 67.2404 50.9635 67.9604 49.0585C68.0654 48.8185 68.1554 48.6685 68.2904 48.5485C68.4404 48.4135 68.4554 48.2485 68.3354 48.0835C68.1554 47.8735 67.9154 47.6485 67.6604 47.4685C67.5404 47.3935 67.3904 47.3785 67.2704 47.4535C67.1054 47.5435 66.9554 47.5885 66.5204 47.5885H61.2104C60.1004 47.5885 59.2604 47.5585 58.3304 47.4685C58.3454 47.7235 58.3904 48.1885 58.4054 48.3985C58.4354 48.5935 58.4954 48.6535 58.6754 48.6385C59.4854 48.5785 60.3104 48.5485 61.1954 48.5485H66.9404ZM81.5654 50.4535C81.0554 51.2935 80.2454 52.1185 79.4054 52.7185C79.6754 52.7935 79.8704 52.9285 80.0504 53.0785C80.1554 53.1685 80.2454 53.1835 80.3654 53.0785C81.0704 52.5385 81.8954 51.6235 82.4804 50.7235C82.5404 50.6185 82.6604 50.5285 82.8104 50.4685C82.9604 50.4085 82.9904 50.2735 82.9004 50.1235C82.7504 49.8985 82.5254 49.6435 82.3604 49.5085C82.2404 49.4035 82.1504 49.4035 82.0304 49.4635C81.9104 49.5385 81.7454 49.5685 81.1004 49.5685H76.0754C75.1904 49.5685 74.6204 49.5535 73.8854 49.4785C73.9154 49.8085 73.9604 50.2285 74.0054 50.4235C74.0354 50.5285 74.1254 50.5585 74.2454 50.5435C74.9054 50.4985 75.3554 50.4535 76.1504 50.4535H81.5654ZM77.4554 51.3985C77.5754 51.8485 77.5904 52.0435 77.5904 52.4185C77.5904 54.6535 76.6904 56.4835 74.6054 57.5635C74.8604 57.6535 75.1304 57.8185 75.2954 57.9685C75.4154 58.0735 75.5204 58.0585 75.6704 57.9535C77.4704 56.9035 78.5204 54.9835 78.5804 52.4635C78.5804 52.1935 78.6404 52.0285 78.7154 51.9235C78.8204 51.7585 78.7904 51.6835 78.6104 51.6085C78.3554 51.5035 77.8604 51.4285 77.4554 51.3985ZM94.5704 49.6585C95.2754 48.9535 95.8154 48.3535 96.4454 47.5885C96.8204 47.1535 97.1054 46.8835 97.2854 46.7935C97.4654 46.7035 97.4954 46.5235 97.3454 46.3735C97.1204 46.1485 96.7154 45.9085 96.3104 45.6985C96.1754 46.1785 95.9054 46.6285 95.2754 47.3935C94.5704 48.2485 93.5054 49.3135 92.3654 50.2885C91.1204 51.3535 89.5604 52.4335 87.7004 53.4535C87.9854 53.5885 88.2554 53.7385 88.4504 53.9335C88.5554 54.0385 88.6604 54.0685 88.7954 53.9935C90.4604 53.0185 91.9304 51.9985 93.5054 50.6035V55.0435C93.5054 55.9135 93.4754 56.8135 93.4454 57.7135C93.4454 57.8485 93.4754 57.8935 93.5954 57.8935C93.8654 57.9085 94.1954 57.9085 94.4654 57.8935C94.5854 57.8935 94.6304 57.8485 94.6154 57.7135C94.5854 56.7535 94.5704 55.8985 94.5704 54.9985V49.6585ZM108.598 49.6435C108.598 48.4285 108.643 47.8735 108.733 47.6635C108.823 47.4535 108.868 47.3035 108.643 47.2285C108.373 47.1535 107.803 47.0785 107.398 47.0335C107.503 47.5135 107.548 48.2185 107.548 49.6585V53.9185C107.548 54.9385 107.533 55.2235 107.488 55.4035C107.458 55.5385 107.428 55.6435 107.518 55.7785C107.668 55.9885 107.893 56.1985 108.103 56.3635C108.223 56.4685 108.373 56.4685 108.508 56.3485C108.628 56.2285 108.718 56.1835 109.003 56.0185C109.948 55.4785 110.788 54.9235 111.598 54.3385C112.408 53.7385 113.218 53.0035 113.968 52.2385C114.133 52.0735 114.118 51.9835 114.058 51.8485C113.908 51.5635 113.833 51.2335 113.803 50.9035C112.918 51.9685 112.018 52.7935 111.148 53.4085C110.353 53.9935 109.588 54.4735 108.598 54.9985V49.6435ZM104.233 47.9635C104.353 48.4735 104.368 48.8635 104.368 49.5235C104.368 51.1435 104.053 52.3585 103.558 53.4085C103.018 54.5785 102.163 55.4635 101.143 56.1985C101.458 56.2885 101.713 56.3935 101.938 56.5735C102.058 56.6785 102.193 56.6635 102.358 56.5135C103.243 55.7635 103.963 54.9685 104.503 53.8435C105.058 52.7335 105.373 51.4435 105.433 49.7335C105.448 49.1335 105.493 48.7735 105.583 48.5635C105.658 48.3835 105.643 48.2485 105.478 48.1885C105.223 48.0985 104.758 48.0085 104.233 47.9635ZM119.833 44.5585C117.688 46.7185 116.698 48.9385 116.698 51.8635C116.698 54.7885 117.688 57.0085 119.833 59.1685L120.268 58.8085C118.393 56.5435 117.688 54.5485 117.688 51.8635C117.688 49.1785 118.393 47.1835 120.268 44.9185L119.833 44.5585ZM123.477 55.6585H121.842V57.2935H123.477V55.6585ZM130.718 49.6285H125.438V50.5435H129.338L125.198 56.4835V57.2935H130.823V56.3935H126.563L130.718 50.4235V49.6285ZM134.035 49.6285H132.805V57.2935H134.035V49.6285ZM134.17 46.6735H132.67V48.1585H134.17V46.6735ZM137.959 49.6285H136.789V60.0085H138.004V56.1385C138.514 57.0385 139.174 57.4735 140.149 57.4735C141.829 57.4735 143.179 55.9885 143.179 53.4385C143.179 50.8885 141.919 49.4635 140.224 49.4635C139.354 49.4635 138.514 49.9435 137.959 50.8285V49.6285ZM138.004 51.9235C138.514 50.9185 139.219 50.4535 139.984 50.4535C141.094 50.4535 141.934 51.4735 141.934 53.4685C141.934 55.4635 141.034 56.4835 139.894 56.4835C139.129 56.4835 138.514 56.0335 138.004 55.0585V51.9235ZM144.531 44.9185C146.406 47.1835 147.111 49.1785 147.111 51.8635C147.111 54.5485 146.406 56.5435 144.531 58.8085L144.966 59.1685C147.111 57.0085 148.101 54.7885 148.101 51.8635C148.101 48.9385 147.111 46.7185 144.966 44.5585L144.531 44.9185ZM158.599 52.8685C159.694 52.4035 160.639 52.0585 161.779 51.5785C162.124 51.4435 162.424 51.3685 162.604 51.3385C162.754 51.3085 162.874 51.2185 162.754 50.9935C162.664 50.8135 162.364 50.4235 162.019 50.1235C161.704 50.4385 161.314 50.6785 160.879 50.8885C160.129 51.2485 159.274 51.6385 158.539 51.9685C158.419 50.7985 157.759 50.2135 156.649 50.2135C156.064 50.2135 155.404 50.4085 154.774 50.8585L154.759 50.8285C155.299 50.2135 155.779 49.5085 156.289 48.5935C157.489 48.4735 158.764 48.3085 159.949 48.0985C160.114 48.0685 160.144 48.0235 160.144 47.9185C160.129 47.6785 160.084 47.4685 160.054 47.2585C160.024 47.1685 159.994 47.1685 159.874 47.1985C158.839 47.4235 157.759 47.5885 156.709 47.6935C156.904 47.2435 157.039 46.9285 157.219 46.5535C157.339 46.2985 157.429 46.1935 157.489 46.1335C157.609 46.0285 157.609 45.8785 157.459 45.8035C157.204 45.6835 156.769 45.5485 156.334 45.4735C156.349 45.8035 156.289 46.0285 156.214 46.2835C156.064 46.8385 155.854 47.3335 155.674 47.7835C154.459 47.8585 153.289 47.8585 152.194 47.7985C152.209 48.0385 152.254 48.3685 152.284 48.5485C152.299 48.6535 152.329 48.6985 152.449 48.6985C153.394 48.7285 154.309 48.7285 155.239 48.6685C154.369 50.1985 153.124 51.6535 151.759 52.8385C151.669 52.9285 151.684 52.9585 151.729 53.0485C151.849 53.2135 152.104 53.4985 152.254 53.6335C152.329 53.7085 152.389 53.7085 152.479 53.6035C153.004 53.0485 153.364 52.6585 153.904 52.1485C154.864 51.3235 155.719 50.9485 156.364 50.9335C157.249 50.9185 157.594 51.3235 157.624 52.3435C155.134 53.5585 154.309 54.5785 154.309 55.8385C154.309 57.4435 155.674 57.9835 157.774 57.9835C159.184 57.9835 160.414 57.9085 161.479 57.7735C161.539 57.7585 161.599 57.6985 161.599 57.5635C161.599 57.3535 161.554 57.0535 161.509 56.8285C161.479 56.7235 161.419 56.7085 161.344 56.7235C160.249 56.8735 159.019 57.0235 157.774 57.0235C156.034 57.0235 155.209 56.6635 155.209 55.7785C155.209 54.8785 156.019 54.1135 157.669 53.2885C157.654 54.0535 157.654 54.7885 157.654 55.4485C157.654 55.5535 157.699 55.6285 157.789 55.6285C157.984 55.6285 158.284 55.5985 158.434 55.5685C158.569 55.5535 158.599 55.5085 158.599 55.3885V52.8685ZM171.319 47.9935C171.319 47.0335 171.334 46.5835 171.424 46.3285C171.499 46.1035 171.559 45.9385 171.319 45.8785C171.049 45.7885 170.599 45.7285 170.074 45.6835C170.179 46.1935 170.239 46.9585 170.239 48.0835V54.7585C170.239 55.6735 170.224 56.8435 170.179 57.8035C170.179 57.9685 170.224 58.0135 170.389 58.0135C170.629 58.0285 170.929 58.0285 171.154 58.0135C171.319 58.0135 171.364 57.9685 171.349 57.8185C171.334 56.8435 171.304 55.6735 171.304 54.7585V51.2785C172.669 51.6685 174.274 52.3735 175.669 53.2885C175.804 53.3785 175.864 53.3485 175.954 53.2285C176.074 53.0335 176.209 52.7635 176.314 52.4935C176.359 52.3885 176.329 52.3135 176.209 52.2535C174.709 51.3685 173.044 50.6635 171.319 50.1685V47.9935ZM174.499 46.6435C175.174 47.1235 175.804 47.8285 176.239 48.5635C176.284 48.6385 176.359 48.6535 176.434 48.5935L176.869 48.2335C176.929 48.1885 176.944 48.1285 176.899 48.0685C176.464 47.4085 175.804 46.6735 175.204 46.2535C175.144 46.2085 175.099 46.2085 175.039 46.2535L174.499 46.6435ZM175.819 45.6385C176.524 46.1635 177.169 46.8985 177.544 47.5135C177.604 47.6035 177.664 47.6035 177.724 47.5435L178.129 47.1835C178.204 47.1235 178.219 47.0785 178.174 47.0035C177.739 46.3735 177.064 45.7135 176.464 45.2485C176.404 45.2035 176.359 45.2185 176.299 45.2635L175.819 45.6385ZM188.539 47.6035C189.454 47.6035 190.084 47.6335 190.774 47.6335C190.939 47.6485 190.969 47.6035 190.969 47.4385C190.984 47.2285 190.984 46.9585 190.969 46.7635C190.969 46.6285 190.939 46.5835 190.804 46.5835C190.084 46.6285 189.424 46.6585 188.479 46.6585H186.154C185.149 46.6585 184.579 46.6435 183.709 46.5535C183.709 46.8235 183.754 47.2285 183.784 47.4535C183.799 47.6185 183.829 47.6785 183.964 47.6635C184.624 47.6185 185.299 47.6035 186.094 47.6035H188.539ZM190.564 50.7235C189.439 53.6785 187.159 55.8985 184.039 57.3985C184.339 57.5035 184.654 57.6685 184.879 57.8635C184.999 57.9835 185.104 57.9835 185.284 57.8935C188.434 56.2735 190.309 54.0835 191.614 51.1285C191.734 50.8735 191.809 50.7235 191.959 50.6185C192.124 50.4985 192.139 50.4085 191.989 50.2135C191.854 50.0335 191.629 49.8235 191.434 49.6735C191.284 49.5535 191.209 49.5685 191.029 49.6585C190.879 49.7335 190.669 49.7635 190.294 49.7635H184.924C183.979 49.7635 183.199 49.7335 182.434 49.6585C182.449 50.0185 182.494 50.3635 182.539 50.6035C182.569 50.7535 182.629 50.8135 182.764 50.7985C183.379 50.7385 184.039 50.7235 184.879 50.7235H190.564ZM197.884 50.5135C198.409 51.1585 198.859 51.9985 199.174 52.7485C199.219 52.8685 199.279 52.9285 199.414 52.8685C199.609 52.7935 199.789 52.7185 199.984 52.5985C200.119 52.5085 200.119 52.4785 200.059 52.3285C199.729 51.5185 199.324 50.8585 198.829 50.2285C198.739 50.1235 198.679 50.0935 198.559 50.1535C198.379 50.2435 198.154 50.3635 197.884 50.5135ZM200.809 49.8085C201.319 50.4985 201.649 51.2035 201.964 52.0285C202.024 52.1635 202.069 52.2085 202.174 52.1635C202.399 52.0735 202.609 51.9685 202.774 51.8785C202.894 51.8185 202.924 51.7585 202.879 51.6385C202.594 50.8885 202.174 50.1235 201.754 49.5535C201.679 49.4335 201.604 49.4185 201.499 49.4635C201.319 49.5385 201.124 49.6435 200.809 49.8085ZM205.459 49.7035C205.399 50.2135 205.339 50.5435 205.204 50.9335C204.724 52.2235 203.974 53.5885 203.164 54.6235C202.234 55.8085 201.364 56.5885 199.804 57.6085C200.119 57.6835 200.359 57.8035 200.584 57.9835C200.674 58.0735 200.809 58.0435 200.914 57.9685C202.144 57.1435 203.014 56.3185 203.944 55.1185C204.784 54.0535 205.504 52.7185 206.149 51.2485C206.329 50.8585 206.434 50.6635 206.584 50.5285C206.719 50.4085 206.704 50.2735 206.569 50.1685C206.329 49.9885 205.834 49.8085 205.459 49.7035ZM216.424 48.3385C216.634 48.0385 216.799 47.7535 217.024 47.3935C217.144 47.1985 217.309 46.9885 217.474 46.8835C217.639 46.7785 217.624 46.5985 217.474 46.4935C217.249 46.3135 216.799 46.1035 216.349 45.9685C216.274 46.5685 216.079 47.0485 215.599 47.8435C214.684 49.3435 213.574 50.6935 211.684 52.2085C211.999 52.2685 212.284 52.4035 212.449 52.5235C212.614 52.6435 212.749 52.6435 212.914 52.4935C213.979 51.5935 214.774 50.6635 215.884 49.2835L220.204 49.1635C219.349 51.1285 218.509 52.4485 217.384 53.7535C215.959 55.3735 214.624 56.5285 212.419 57.7285C212.764 57.8335 213.049 57.9685 213.259 58.1635C213.364 58.2535 213.469 58.2835 213.589 58.2085C215.314 57.2185 216.919 55.8685 218.269 54.3235C219.289 53.1535 220.249 51.5935 221.164 49.6435C221.284 49.3885 221.404 49.2535 221.554 49.1185C221.674 48.9985 221.704 48.8485 221.524 48.6685C221.344 48.4885 221.104 48.2935 220.924 48.1735C220.759 48.0685 220.639 48.0385 220.534 48.1135C220.369 48.2335 220.234 48.2635 219.784 48.2785L216.424 48.3385ZM220.909 46.5835C221.584 47.0635 222.214 47.7685 222.649 48.5035C222.694 48.5785 222.769 48.5935 222.844 48.5335L223.279 48.1735C223.339 48.1285 223.354 48.0685 223.309 48.0085C222.874 47.3485 222.214 46.6135 221.614 46.1935C221.554 46.1485 221.509 46.1485 221.449 46.1935L220.909 46.5835ZM222.229 45.5785C222.934 46.1035 223.579 46.8385 223.954 47.4535C224.014 47.5435 224.074 47.5435 224.134 47.4835L224.539 47.1235C224.614 47.0635 224.629 47.0185 224.584 46.9435C224.149 46.3135 223.474 45.6535 222.874 45.1885C222.814 45.1435 222.769 45.1585 222.709 45.2035L222.229 45.5785ZM235.594 51.9085C235.489 53.1685 235.279 54.2035 234.724 55.0285C233.794 53.9785 232.714 52.5535 231.874 51.2635C233.824 50.6635 234.604 49.7785 234.604 48.4885C234.604 47.1085 233.614 46.2385 232.144 46.2385C230.674 46.2385 229.609 47.2735 229.609 48.6385C229.609 49.4335 229.849 50.0785 230.434 50.9785C228.784 51.7435 228.019 52.7185 228.019 54.2935C228.019 56.1535 229.474 57.4885 231.559 57.4885C232.804 57.4885 233.764 57.1585 234.574 56.4235C235.264 57.1885 235.804 57.4585 236.899 57.4585H237.199L237.484 56.5435C236.509 56.5435 236.044 56.3785 235.369 55.6285C236.044 54.8935 236.524 53.5435 236.659 52.1635L235.594 51.9085ZM230.869 51.6385C231.754 53.0335 232.954 54.6385 233.974 55.7935C233.389 56.3335 232.669 56.5735 231.724 56.5735C230.269 56.5735 229.174 55.5535 229.174 54.1885C229.174 52.9885 229.639 52.2685 230.869 51.6385ZM231.454 50.6035C230.899 49.7335 230.719 49.2385 230.719 48.5935C230.719 47.7085 231.364 47.1085 232.144 47.1085C232.954 47.1085 233.494 47.6635 233.494 48.4435C233.494 49.4335 233.029 50.0485 231.454 50.6035ZM246.319 47.9935C246.319 47.0335 246.334 46.5835 246.424 46.3285C246.499 46.1035 246.559 45.9385 246.319 45.8785C246.049 45.7885 245.599 45.7285 245.074 45.6835C245.179 46.1935 245.239 46.9585 245.239 48.0835V54.7585C245.239 55.6735 245.224 56.8435 245.179 57.8035C245.179 57.9685 245.224 58.0135 245.389 58.0135C245.629 58.0285 245.929 58.0285 246.154 58.0135C246.319 58.0135 246.364 57.9685 246.349 57.8185C246.334 56.8435 246.304 55.6735 246.304 54.7585V51.2785C247.669 51.6685 249.274 52.3735 250.669 53.2885C250.804 53.3785 250.864 53.3485 250.954 53.2285C251.074 53.0335 251.209 52.7635 251.314 52.4935C251.359 52.3885 251.329 52.3135 251.209 52.2535C249.709 51.3685 248.044 50.6635 246.319 50.1685V47.9935ZM249.499 46.6435C250.174 47.1235 250.804 47.8285 251.239 48.5635C251.284 48.6385 251.359 48.6535 251.434 48.5935L251.869 48.2335C251.929 48.1885 251.944 48.1285 251.899 48.0685C251.464 47.4085 250.804 46.6735 250.204 46.2535C250.144 46.2085 250.099 46.2085 250.039 46.2535L249.499 46.6435ZM250.819 45.6385C251.524 46.1635 252.169 46.8985 252.544 47.5135C252.604 47.6035 252.664 47.6035 252.724 47.5435L253.129 47.1835C253.204 47.1235 253.219 47.0785 253.174 47.0035C252.739 46.3735 252.064 45.7135 251.464 45.2485C251.404 45.2035 251.359 45.2185 251.299 45.2635L250.819 45.6385ZM265.549 55.4935V56.3785C265.549 56.5285 265.564 56.5735 265.699 56.5735H266.479C266.629 56.5735 266.674 56.5285 266.674 56.3635C266.644 55.5985 266.599 54.5635 266.599 53.4085V50.3935C266.599 49.5835 266.614 48.7885 266.629 48.0235C266.629 47.8585 266.599 47.8135 266.449 47.8135C265.669 47.8435 264.694 47.8435 263.794 47.8435H260.494C259.654 47.8435 258.844 47.8435 258.079 47.8135C257.959 47.8135 257.914 47.8435 257.914 47.9785C257.944 48.7885 257.944 49.5835 257.944 50.3785V53.3335C257.944 54.6085 257.929 55.5985 257.884 56.5435C257.884 56.6935 257.929 56.7235 258.094 56.7385C258.304 56.7535 258.604 56.7385 258.799 56.7385C258.979 56.7235 259.009 56.6935 259.009 56.5135V55.4935H265.549ZM265.549 54.5335H258.994V48.8035H265.549V54.5335ZM272.884 50.5135C273.409 51.1585 273.859 51.9985 274.174 52.7485C274.219 52.8685 274.279 52.9285 274.414 52.8685C274.609 52.7935 274.789 52.7185 274.984 52.5985C275.119 52.5085 275.119 52.4785 275.059 52.3285C274.729 51.5185 274.324 50.8585 273.829 50.2285C273.739 50.1235 273.679 50.0935 273.559 50.1535C273.379 50.2435 273.154 50.3635 272.884 50.5135ZM275.809 49.8085C276.319 50.4985 276.649 51.2035 276.964 52.0285C277.024 52.1635 277.069 52.2085 277.174 52.1635C277.399 52.0735 277.609 51.9685 277.774 51.8785C277.894 51.8185 277.924 51.7585 277.879 51.6385C277.594 50.8885 277.174 50.1235 276.754 49.5535C276.679 49.4335 276.604 49.4185 276.499 49.4635C276.319 49.5385 276.124 49.6435 275.809 49.8085ZM280.459 49.7035C280.399 50.2135 280.339 50.5435 280.204 50.9335C279.724 52.2235 278.974 53.5885 278.164 54.6235C277.234 55.8085 276.364 56.5885 274.804 57.6085C275.119 57.6835 275.359 57.8035 275.584 57.9835C275.674 58.0735 275.809 58.0435 275.914 57.9685C277.144 57.1435 278.014 56.3185 278.944 55.1185C279.784 54.0535 280.504 52.7185 281.149 51.2485C281.329 50.8585 281.434 50.6635 281.584 50.5285C281.719 50.4085 281.704 50.2735 281.569 50.1685C281.329 49.9885 280.834 49.8085 280.459 49.7035ZM295.519 48.7285C294.889 50.6035 293.824 52.2685 292.699 53.5285C291.439 54.9685 290.149 56.0935 287.854 57.2335C288.169 57.3685 288.454 57.5635 288.634 57.7435C288.769 57.8935 288.964 57.8935 289.144 57.7735C291.004 56.7535 292.384 55.5235 293.599 54.1585C294.769 52.8385 295.819 51.1435 296.539 49.2385C296.644 48.9985 296.734 48.8485 296.869 48.7285C297.019 48.5935 297.034 48.4285 296.914 48.2635C296.734 48.0535 296.494 47.8285 296.239 47.6485C296.119 47.5735 295.969 47.5585 295.849 47.6335C295.684 47.7235 295.534 47.7685 295.099 47.7685H289.789C288.679 47.7685 287.839 47.7385 286.909 47.6485C286.924 47.9035 286.969 48.3685 286.984 48.5785C287.014 48.7735 287.074 48.8335 287.254 48.8185C288.064 48.7585 288.889 48.7285 289.774 48.7285H295.519ZM298.054 44.8135C297.214 44.8135 296.539 45.4885 296.539 46.3285C296.539 47.1685 297.214 47.8435 298.054 47.8435C298.894 47.8435 299.569 47.1685 299.569 46.3285C299.569 45.4885 298.894 44.8135 298.054 44.8135ZM298.054 45.3835C298.579 45.3835 298.999 45.8035 298.999 46.3285C298.999 46.8535 298.579 47.2735 298.054 47.2735C297.529 47.2735 297.109 46.8535 297.109 46.3285C297.109 45.8035 297.529 45.3835 298.054 45.3835Z" fill="black"/>
</g>
<path d="M7.98038 96.1235C7.54538 96.0485 7.00538 96.0035 6.40538 96.0035C4.66538 96.0035 3.64538 96.8585 3.64538 97.8335C3.64538 98.9435 4.54538 99.6185 6.30038 99.6185C8.11538 99.6185 9.00038 98.9585 8.98538 97.2785C10.1854 97.6835 11.1904 98.2385 12.4054 99.1835C12.4954 99.2435 12.5554 99.2285 12.6304 99.1385C12.7804 98.9735 12.9454 98.6885 13.0054 98.4935C13.0504 98.3585 13.0204 98.2985 12.9454 98.2385C11.7004 97.3085 10.2904 96.6785 8.94038 96.3035C8.88038 95.4035 8.83538 94.6235 8.83538 93.6935C10.0354 93.6185 11.0854 93.4835 12.1504 93.2885C12.2554 93.2735 12.3004 93.2285 12.3004 93.1385C12.3004 92.8835 12.2854 92.5985 12.2854 92.4185C12.2704 92.3435 12.2254 92.3135 12.1204 92.3435C10.9654 92.5685 9.96038 92.7035 8.80538 92.7785C8.79038 92.0735 8.79038 91.2935 8.79038 90.5585C10.1704 90.4685 11.3854 90.3185 12.5554 90.1235C12.6004 90.1235 12.6604 90.0935 12.6604 89.9735C12.6604 89.7935 12.6454 89.5535 12.6154 89.3135C12.6004 89.2085 12.5704 89.1785 12.4504 89.2085C11.3854 89.4035 10.1554 89.5985 8.79038 89.7035C8.80538 89.1935 8.80538 88.8635 8.83538 88.3835C8.85038 88.0835 8.91038 87.8585 9.01538 87.6935C9.09038 87.5735 9.04538 87.4085 8.88038 87.3485C8.59538 87.2585 8.19038 87.1985 7.69538 87.1535C7.78538 87.4535 7.81538 87.7085 7.83038 88.1435C7.83038 88.6985 7.84538 89.1185 7.84538 89.7335C6.40538 89.7935 4.99538 89.7785 3.67538 89.6135C3.67538 89.9435 3.70538 90.1685 3.73538 90.3935C3.75038 90.4985 3.78038 90.5285 3.87038 90.5435C5.10038 90.6635 6.39038 90.6785 7.84538 90.6185C7.84538 91.3385 7.86038 92.1185 7.86038 92.8535C6.69038 92.9135 5.34038 92.8835 4.23038 92.7485C4.23038 92.9585 4.24538 93.3185 4.27538 93.5135C4.29038 93.6485 4.32038 93.6935 4.44038 93.6935C5.52038 93.7835 6.73538 93.7835 7.89038 93.7385C7.90538 94.6085 7.93538 95.2685 7.98038 96.1235ZM7.99538 97.0235C8.04038 97.6385 7.90538 98.0135 7.72538 98.2385C7.45538 98.5535 6.88538 98.7035 6.19538 98.7035C5.10038 98.7035 4.51538 98.4035 4.51538 97.7735C4.51538 97.2335 5.14538 96.8285 6.40538 96.8285C6.94538 96.8285 7.47038 96.9035 7.99538 97.0235ZM21.8704 90.1235C22.0354 89.5535 22.1704 88.9385 22.3504 88.3235C22.4254 88.0085 22.4854 87.8735 22.5904 87.7385C22.6654 87.6485 22.7104 87.5735 22.7104 87.4985C22.7104 87.4235 22.6654 87.3635 22.5904 87.3335C22.2754 87.1985 21.8104 87.0635 21.3904 86.9885C21.4204 87.4835 21.3454 87.9785 21.2704 88.3985C21.1654 88.9535 21.0454 89.4935 20.8354 90.2885C19.8754 90.4085 18.8404 90.4685 18.1354 90.4685C17.7304 90.4685 17.4754 90.4685 17.1904 90.4385C17.2354 90.7385 17.2804 91.0535 17.3104 91.2635C17.3404 91.3985 17.3704 91.4135 17.5504 91.4135C18.5704 91.3985 19.6054 91.3385 20.5804 91.2335C19.8754 93.7385 19.0204 96.0785 17.7754 98.7185C17.7454 98.7935 17.7604 98.8685 17.8354 98.9135C18.0304 99.0185 18.4204 99.1985 18.5404 99.2435C18.6454 99.2885 18.7054 99.2885 18.7654 99.1535C19.8304 96.7235 20.7454 94.1135 21.6454 91.0685C22.5604 90.9185 23.3854 90.7235 24.3604 90.4535C24.4954 90.4235 24.5254 90.3785 24.5104 90.2285C24.4954 90.0485 24.4654 89.7935 24.4354 89.6135C24.4204 89.5085 24.3754 89.4785 24.2554 89.5085C23.4154 89.7785 22.5754 90.0035 21.8704 90.1235ZM22.8004 96.4535C22.8154 97.3535 23.0104 98.0285 23.5354 98.4785C24.2104 99.0935 25.2154 99.3035 26.8354 99.3035C27.5554 99.3035 28.3354 99.2285 28.8004 99.1535C28.9204 99.1385 28.9654 99.1085 28.9654 98.9585C28.9654 98.7485 28.9354 98.4185 28.9054 98.2385C28.8904 98.1185 28.8454 98.1185 28.7254 98.1335C28.1104 98.2235 27.2704 98.3285 26.5054 98.3285C24.6154 98.3285 23.7754 97.8785 23.6704 96.5285C23.6554 96.4085 23.6254 96.3785 23.5054 96.3785C23.3404 96.3785 23.0554 96.4085 22.8004 96.4535ZM23.9254 93.3185C24.8254 93.1235 25.7554 92.9885 26.6854 92.9885C27.3154 92.9885 27.9604 93.0485 28.6054 93.1535C28.7404 93.1835 28.7854 93.1385 28.8004 92.9585C28.8154 92.7635 28.8004 92.4485 28.7854 92.2985C28.7704 92.2085 28.7404 92.1635 28.5604 92.1335C27.9754 92.0585 27.3154 91.9835 26.7004 91.9835C25.8154 91.9835 24.9454 92.1035 24.0754 92.2985C23.9104 92.3435 23.8804 92.3885 23.8804 92.5235C23.8804 92.7035 23.8954 93.0635 23.9254 93.3185ZM40.6354 95.7635C40.1554 95.6585 39.5404 95.5985 39.0604 95.5985C37.7854 95.5985 36.7504 96.2735 36.7504 97.3835C36.7504 98.4785 37.6804 99.0935 39.0904 99.0935C40.7854 99.0935 41.5354 98.3885 41.5954 97.0685C42.3754 97.4435 43.0354 97.8935 43.6954 98.4485C43.7554 98.5085 43.8154 98.5235 43.8754 98.4335C44.0404 98.2385 44.1904 97.9835 44.2804 97.7735C44.3254 97.6685 44.3254 97.6385 44.2504 97.5785C43.4704 96.9485 42.5854 96.4385 41.6104 96.0335C41.5354 94.6835 41.4904 93.2585 41.4754 91.5035C42.2854 91.4285 43.1854 91.3235 43.9504 91.1435C44.0104 91.1285 44.0554 91.0685 44.0554 90.9635C44.0554 90.7835 44.0254 90.5285 43.9954 90.3635C43.9804 90.2585 43.9654 90.2285 43.8454 90.2585C43.0654 90.4085 42.2554 90.5285 41.4754 90.6035C41.4754 89.9885 41.4754 89.4635 41.5054 88.9385C41.5204 88.6535 41.5504 88.3535 41.6254 88.2185C41.6704 88.1285 41.6854 88.0835 41.6854 88.0085C41.6854 87.9335 41.6254 87.8735 41.5204 87.8285C41.2054 87.7235 40.8604 87.6635 40.3654 87.6185C40.4854 88.1285 40.5154 88.5335 40.5154 88.9535C40.5154 89.5535 40.5004 90.1235 40.5004 90.6785C39.4054 90.7535 38.2054 90.7685 36.9604 90.6785C36.9604 90.9485 36.9904 91.2635 37.0204 91.4735C37.0354 91.5935 37.0954 91.6085 37.1854 91.6085C38.3704 91.6835 39.4654 91.6535 40.5304 91.5935C40.5304 93.1385 40.5754 94.5185 40.6354 95.7635ZM40.6354 96.9635C40.6354 97.7585 40.1104 98.2385 39.0454 98.2385C38.1454 98.2385 37.6054 97.9235 37.6054 97.3835C37.6054 96.7685 38.1604 96.4235 39.0004 96.4235C39.5254 96.4235 40.0654 96.5135 40.6354 96.6785V96.9635ZM33.7204 87.6935C33.7654 88.1135 33.7204 88.6835 33.6454 89.1785C33.2554 91.4735 33.0004 93.1535 33.0004 94.8035C33.0004 96.1835 33.0754 97.9235 33.5704 99.1835C33.6154 99.3035 33.6604 99.3335 33.7654 99.3035C33.9904 99.2585 34.2604 99.1835 34.4404 99.1085C34.5154 99.0635 34.5454 99.0185 34.5154 98.9135C34.4854 98.7335 34.5004 98.5085 34.5304 98.2385C34.5904 97.8485 34.9204 97.0085 35.4304 95.8685C35.4904 95.7485 35.5054 95.6735 35.4154 95.5385C35.2954 95.3735 35.1754 95.2085 35.0704 94.9235C34.6804 95.8085 34.3354 96.5585 34.0204 97.3685C33.9004 96.4085 33.9154 95.6285 33.9154 94.7735C33.9154 93.3785 34.1854 91.3985 34.6354 89.2385C34.7104 88.8635 34.7854 88.6385 34.8754 88.4885C34.9804 88.3235 34.9654 88.2035 34.7854 88.0835C34.5754 87.9485 34.0954 87.7685 33.7204 87.6935Z" fill="black"/>
<g filter="url(#filter0_d)">
<rect x="54.7654" y="80.5635" width="115" height="26" rx="5" fill="#41A6C7"/>
<path d="M73.8134 91.2075C73.2134 92.0715 72.6254 92.5875 71.6654 93.3075C72.0614 93.4275 72.3614 93.5595 72.6614 93.7995C72.7454 93.8715 72.8534 93.9195 72.9494 93.9195C73.0454 93.9195 73.1294 93.8835 73.2014 93.8115C74.0054 93.1755 74.7494 92.3475 75.3134 91.4955C75.4094 91.3635 75.5054 91.2435 75.6374 91.1475C75.7454 91.0755 75.8054 90.9915 75.8054 90.8955C75.8054 90.8235 75.7694 90.7515 75.7094 90.6795C75.4814 90.4035 75.2534 90.1515 74.9894 89.9235C74.9054 89.8275 74.8094 89.7555 74.7134 89.7555C74.6534 89.7555 74.5454 89.8155 74.4854 89.8395C74.3654 89.8875 74.1614 89.9115 73.6574 89.9115H68.5094C67.5494 89.9115 66.8894 89.8875 66.0734 89.8275C66.1214 90.1875 66.1934 90.7875 66.2894 91.1235C66.3134 91.2315 66.3614 91.3155 66.5054 91.3035C67.2134 91.2555 67.9454 91.2075 68.6294 91.2075H73.8134ZM66.7934 98.1795C67.2494 98.3475 67.5974 98.5395 67.8854 98.7915C67.9574 98.8635 68.0414 98.8995 68.1254 98.8995C68.2454 98.8995 68.3534 98.8515 68.4614 98.7795C69.4574 98.1435 70.1774 97.2915 70.6454 96.3915C71.1974 95.3235 71.3174 94.2555 71.3534 93.0915C71.3654 92.8875 71.3774 92.7675 71.4614 92.5995C71.4974 92.5275 71.5214 92.4555 71.5214 92.3835C71.5214 92.2755 71.4734 92.1915 71.3174 92.1555C70.9814 92.0715 70.3574 91.9875 69.7694 91.9275C69.8654 92.3355 69.8894 92.6115 69.8894 93.0555C69.8894 94.2195 69.7574 95.0355 69.3014 95.8875C68.7854 96.8475 68.1014 97.4955 66.7934 98.1795ZM78.5981 92.9115C79.0781 93.4875 79.4501 94.1475 79.7261 94.8435C79.7861 95.0115 79.8581 95.0715 80.0261 95.0115C80.3021 94.9035 80.5061 94.8075 80.7941 94.6395C80.8901 94.5795 80.9381 94.5435 80.9381 94.4715C80.9381 94.4235 80.9141 94.3755 80.8901 94.2915C80.6621 93.6555 80.2781 93.0435 79.8581 92.5155C79.7621 92.3835 79.6781 92.3715 79.5461 92.4315C79.2941 92.5515 79.0061 92.6835 78.5981 92.9115ZM81.0101 92.2995C81.4661 92.9355 81.7421 93.5115 82.0181 94.2195C82.0781 94.3875 82.1261 94.4475 82.2581 94.3995C82.5941 94.2795 82.8581 94.1595 83.0861 94.0275C83.2421 93.9435 83.2661 93.8835 83.2061 93.7035C83.0141 93.1275 82.6061 92.3715 82.2821 91.9515C82.1861 91.8075 82.1021 91.7955 81.9701 91.8555C81.7661 91.9395 81.4901 92.0715 81.0101 92.2995ZM84.7901 92.0115C84.7421 92.5755 84.6701 92.8395 84.5141 93.2835C84.1661 94.2195 83.4941 95.3955 82.8941 96.1755C82.1741 97.1115 81.4541 97.7235 80.0141 98.6715C80.4581 98.8035 80.7341 98.9355 81.0341 99.1755C81.0941 99.2355 81.1661 99.2595 81.2261 99.2595C81.3221 99.2595 81.4181 99.1995 81.5141 99.1275C82.5341 98.4555 83.1941 97.8195 83.9861 96.8115C84.6581 95.9355 85.2821 94.8435 85.7981 93.6195C85.8941 93.4035 85.9781 93.1635 86.1581 93.0075C86.2541 92.9235 86.2901 92.8635 86.2901 92.7915C86.2901 92.7195 86.2301 92.6595 86.1341 92.5875C85.8341 92.3835 85.2941 92.1675 84.7901 92.0115ZM96.3941 91.7355C95.9141 93.0675 95.3021 94.0875 94.3661 95.1555C93.2621 96.4395 92.1941 97.2675 90.4421 98.1555C90.8861 98.3355 91.2821 98.5515 91.5581 98.8155C91.6541 98.9115 91.7621 98.9475 91.8581 98.9475C91.9661 98.9475 92.0741 98.9115 92.1821 98.8395C93.3941 98.1555 94.5581 97.1595 95.5901 95.9835C96.5981 94.8195 97.3301 93.4995 97.9181 92.0835C98.0261 91.8435 98.0861 91.7235 98.1941 91.6155C98.2781 91.5315 98.3141 91.4595 98.3141 91.3875C98.3141 91.3035 98.2781 91.2315 98.2181 91.1475C98.0141 90.8595 97.7141 90.5715 97.4021 90.3195C97.3421 90.2595 97.2701 90.2355 97.1981 90.2355C97.1381 90.2355 97.0661 90.2595 96.9941 90.3075C96.8261 90.4035 96.6941 90.4275 96.3341 90.4275H92.0501C90.9221 90.4275 90.2861 90.4035 89.7461 90.3435C89.7701 90.6915 89.8181 91.3155 89.8541 91.5555C89.8781 91.7235 89.9261 91.8075 90.0821 91.7955C90.5981 91.7715 91.2821 91.7355 92.0621 91.7355H96.3941ZM99.0581 88.1475C98.3381 88.1475 97.7621 88.6875 97.7621 89.4315C97.7621 90.1515 98.3381 90.7155 99.0581 90.7155C99.7781 90.7155 100.354 90.1515 100.354 89.4315C100.354 88.7115 99.7781 88.1475 99.0581 88.1475ZM99.0581 88.7235C99.4661 88.7235 99.7661 89.0235 99.7661 89.4315C99.7661 89.8395 99.4661 90.1395 99.0581 90.1395C98.6501 90.1395 98.3501 89.8395 98.3501 89.4315C98.3501 89.0235 98.6501 88.7235 99.0581 88.7235ZM108.25 97.1595V97.7955C108.25 97.9635 108.262 97.9875 108.406 97.9875C108.766 97.9995 109.15 97.9995 109.51 97.9875C109.678 97.9875 109.738 97.9515 109.738 97.7835C109.714 97.1355 109.678 96.5475 109.678 95.5035V92.6355C109.678 91.9275 109.69 91.2795 109.69 90.6915C109.702 90.5115 109.666 90.4515 109.534 90.4515C108.97 90.4755 108.058 90.4755 107.278 90.4755H104.422C103.618 90.4755 102.91 90.4755 102.274 90.4395C102.19 90.4395 102.142 90.4875 102.142 90.6075C102.178 91.3035 102.166 91.9515 102.166 92.5995V95.5395C102.166 96.4515 102.142 97.3035 102.13 97.9275C102.118 98.0715 102.178 98.0955 102.382 98.1075C102.682 98.1195 103.03 98.1195 103.33 98.1075C103.546 98.0955 103.594 98.0715 103.594 97.8675V97.1595H108.25ZM108.25 95.8875H103.582V91.7475H108.25V95.8875ZM119.722 94.8555C120.61 94.8555 121.498 94.8675 122.398 94.8795C122.566 94.8915 122.614 94.8435 122.614 94.6995C122.638 94.3395 122.638 93.9315 122.614 93.5715C122.614 93.4275 122.578 93.3915 122.398 93.4035C121.474 93.4155 120.55 93.4395 119.638 93.4395H115.774C114.562 93.4395 113.962 93.4155 113.182 93.2955C113.23 93.9075 113.302 94.4715 113.362 94.7475C113.398 94.9275 113.494 94.9995 113.638 94.9995C113.758 94.9995 114.214 94.8555 115.402 94.8555H119.722ZM129.262 90.6795C129.262 90.0075 129.262 89.7075 129.346 89.5515C129.406 89.4435 129.442 89.3475 129.442 89.2755C129.442 89.1795 129.382 89.1075 129.214 89.0715C128.866 88.9755 128.266 88.9155 127.714 88.8795C127.798 89.3595 127.834 89.7555 127.834 90.6555V96.5595C127.834 97.3275 127.822 98.0355 127.786 98.9235C127.786 99.0675 127.846 99.1035 128.014 99.1035C128.362 99.1275 128.734 99.1275 129.082 99.1035C129.25 99.1035 129.31 99.0675 129.298 98.9235C129.274 98.0595 129.25 97.3515 129.25 96.5715V93.9195C130.222 94.2195 131.302 94.7475 132.406 95.4555C132.454 95.5035 132.502 95.5155 132.538 95.5155C132.598 95.5155 132.646 95.4675 132.694 95.3835C132.862 95.1075 133.054 94.7355 133.21 94.3395C133.27 94.1835 133.21 94.0995 133.078 94.0275C131.89 93.3195 130.726 92.8515 129.262 92.3955V90.6795ZM131.422 89.8875C131.89 90.2715 132.274 90.7275 132.634 91.2795C132.694 91.3635 132.754 91.3755 132.838 91.3155L133.342 90.9435C133.426 90.8835 133.426 90.8235 133.378 90.7515C133.042 90.2355 132.61 89.7555 132.238 89.4675C132.166 89.4075 132.118 89.3955 132.058 89.4435L131.422 89.8875ZM132.526 89.0955C133.018 89.5035 133.402 89.9595 133.726 90.4755C133.774 90.5475 133.834 90.5835 133.93 90.5115L134.41 90.1395C134.506 90.0675 134.494 89.9955 134.446 89.9235C134.182 89.5035 133.75 89.0235 133.306 88.6875C133.234 88.6275 133.198 88.6155 133.126 88.6635L132.526 89.0955ZM141.886 90.7035C140.446 90.7875 138.898 90.8835 138.166 90.9435C137.53 90.9915 137.146 91.0395 136.702 90.9915C136.798 91.4835 136.906 91.9635 137.002 92.2035C137.038 92.3235 137.086 92.3715 137.206 92.3715C137.314 92.3715 137.506 92.2635 137.77 92.2275C138.718 92.0955 140.41 91.9515 141.922 91.8675C141.922 92.2635 141.934 92.6715 141.934 93.0915C141.742 92.9235 141.382 92.8515 141.022 92.8515C140.05 92.8515 139.21 93.5355 139.21 94.6515C139.21 95.8035 139.93 96.4875 140.878 96.4875C141.274 96.4875 141.766 96.3555 142.006 96.0075C141.79 97.0155 140.95 98.0235 139.546 98.6475C139.858 98.7435 140.182 98.8995 140.458 99.1275C140.578 99.2235 140.71 99.3075 140.818 99.3075C140.926 99.3075 141.082 99.2115 141.286 99.0795C142.858 98.0475 143.422 96.5955 143.422 95.2035C143.422 94.8075 143.362 94.3395 143.242 94.0155C143.23 93.2835 143.23 92.5155 143.23 91.7835C144.478 91.7715 145.642 91.7715 146.89 91.8075C147.034 91.8195 147.094 91.7835 147.094 91.6515C147.106 91.3515 147.106 91.0395 147.094 90.7395C147.082 90.5835 147.058 90.5595 146.914 90.5595C145.762 90.5595 144.526 90.5715 143.23 90.6195C143.242 90.1635 143.242 90.0075 143.254 89.8515C143.278 89.6955 143.314 89.5755 143.35 89.5035C143.422 89.3835 143.458 89.3235 143.458 89.2275C143.458 89.1195 143.326 89.0355 143.122 88.9995C142.834 88.9395 142.258 88.8675 141.718 88.8315C141.814 89.1915 141.838 89.3595 141.862 89.7075C141.874 90.0315 141.874 90.3315 141.886 90.7035ZM141.118 93.7875C141.598 93.7875 141.91 94.0635 141.91 94.5555C141.91 95.1075 141.538 95.3835 141.094 95.3835C140.662 95.3835 140.326 95.0955 140.326 94.5675C140.326 94.0395 140.746 93.7875 141.118 93.7875ZM152.685 93.4995C153.597 92.6235 154.401 91.7835 155.277 90.9315C155.505 90.7275 155.601 90.6435 155.805 90.5475C155.937 90.4875 156.009 90.3795 156.009 90.2595C156.009 90.1635 155.973 90.0795 155.877 89.9715C155.673 89.7195 155.433 89.4795 155.073 89.2035C154.989 89.1435 154.917 89.1075 154.797 89.1075C154.737 89.1075 154.629 89.1675 154.569 89.2035C154.449 89.2635 154.209 89.3235 153.909 89.3835C152.973 89.5635 151.917 89.7195 151.185 89.7915C150.825 89.8155 150.429 89.8155 150.069 89.7675C150.237 90.4515 150.345 90.7875 150.489 91.0635C150.549 91.2075 150.633 91.2675 150.753 91.2675C150.813 91.2675 150.933 91.2315 150.993 91.2075C151.185 91.1355 151.341 91.0995 151.497 91.0635C152.241 90.9075 153.093 90.7395 153.813 90.6075C153.261 91.2915 152.697 91.8915 151.953 92.6595C150.873 93.7875 150.045 94.5555 149.109 95.3115C149.013 95.4075 148.977 95.4915 149.049 95.5875C149.241 95.8395 149.505 96.1515 149.757 96.3675C149.829 96.4395 149.889 96.4755 149.937 96.4755C149.997 96.4755 150.057 96.4275 150.141 96.3435C150.501 95.9835 150.837 95.6355 151.185 95.3235C152.157 94.4955 153.261 94.0515 154.257 94.0515C155.373 94.0515 156.141 94.7715 156.141 95.8635C156.141 96.7755 155.757 97.3035 154.917 97.6875C154.617 96.5355 153.789 95.9355 152.661 95.9355C151.725 95.9355 150.969 96.5955 150.969 97.3995C150.969 98.5155 151.881 99.1635 153.393 99.1635C155.961 99.1635 157.581 97.8795 157.581 95.8755C157.581 94.1475 156.357 92.9955 154.605 92.9955C153.933 92.9955 153.369 93.1515 152.697 93.5355L152.685 93.4995ZM153.729 97.9875C153.549 98.0235 153.393 98.0355 153.177 98.0355C152.457 98.0355 152.133 97.7835 152.133 97.4115C152.133 97.1595 152.361 96.9555 152.709 96.9555C153.213 96.9555 153.573 97.3275 153.729 97.9875Z" fill="white"/>
</g>
<path d="M189.94 90.0485C189.31 91.9235 188.245 93.5885 187.12 94.8485C185.86 96.2885 184.57 97.4135 182.275 98.5535C182.59 98.6885 182.875 98.8835 183.055 99.0635C183.19 99.2135 183.385 99.2135 183.565 99.0935C185.425 98.0735 186.805 96.8435 188.02 95.4785C189.19 94.1585 190.24 92.4635 190.96 90.5585C191.065 90.3185 191.155 90.1685 191.29 90.0485C191.44 89.9135 191.455 89.7485 191.335 89.5835C191.155 89.3735 190.915 89.1485 190.66 88.9685C190.54 88.8935 190.39 88.8785 190.27 88.9535C190.105 89.0435 189.955 89.0885 189.52 89.0885H184.21C183.1 89.0885 182.26 89.0585 181.33 88.9685C181.345 89.2235 181.39 89.6885 181.405 89.8985C181.435 90.0935 181.495 90.1535 181.675 90.1385C182.485 90.0785 183.31 90.0485 184.195 90.0485H189.94ZM204.565 91.9535C204.055 92.7935 203.245 93.6185 202.405 94.2185C202.675 94.2935 202.87 94.4285 203.05 94.5785C203.155 94.6685 203.245 94.6835 203.365 94.5785C204.07 94.0385 204.895 93.1235 205.48 92.2235C205.54 92.1185 205.66 92.0285 205.81 91.9685C205.96 91.9085 205.99 91.7735 205.9 91.6235C205.75 91.3985 205.525 91.1435 205.36 91.0085C205.24 90.9035 205.15 90.9035 205.03 90.9635C204.91 91.0385 204.745 91.0685 204.1 91.0685H199.075C198.19 91.0685 197.62 91.0535 196.885 90.9785C196.915 91.3085 196.96 91.7285 197.005 91.9235C197.035 92.0285 197.125 92.0585 197.245 92.0435C197.905 91.9985 198.355 91.9535 199.15 91.9535H204.565ZM200.455 92.8985C200.575 93.3485 200.59 93.5435 200.59 93.9185C200.59 96.1535 199.69 97.9835 197.605 99.0635C197.86 99.1535 198.13 99.3185 198.295 99.4685C198.415 99.5735 198.52 99.5585 198.67 99.4535C200.47 98.4035 201.52 96.4835 201.58 93.9635C201.58 93.6935 201.64 93.5285 201.715 93.4235C201.82 93.2585 201.79 93.1835 201.61 93.1085C201.355 93.0035 200.86 92.9285 200.455 92.8985ZM217.57 91.1585C218.275 90.4535 218.815 89.8535 219.445 89.0885C219.82 88.6535 220.105 88.3835 220.285 88.2935C220.465 88.2035 220.495 88.0235 220.345 87.8735C220.12 87.6485 219.715 87.4085 219.31 87.1985C219.175 87.6785 218.905 88.1285 218.275 88.8935C217.57 89.7485 216.505 90.8135 215.365 91.7885C214.12 92.8535 212.56 93.9335 210.7 94.9535C210.985 95.0885 211.255 95.2385 211.45 95.4335C211.555 95.5385 211.66 95.5685 211.795 95.4935C213.46 94.5185 214.93 93.4985 216.505 92.1035V96.5435C216.505 97.4135 216.475 98.3135 216.445 99.2135C216.445 99.3485 216.475 99.3935 216.595 99.3935C216.865 99.4085 217.195 99.4085 217.465 99.3935C217.585 99.3935 217.63 99.3485 217.615 99.2135C217.585 98.2535 217.57 97.3985 217.57 96.4985V91.1585ZM231.598 91.1435C231.598 89.9285 231.643 89.3735 231.733 89.1635C231.823 88.9535 231.868 88.8035 231.643 88.7285C231.373 88.6535 230.803 88.5785 230.398 88.5335C230.503 89.0135 230.548 89.7185 230.548 91.1585V95.4185C230.548 96.4385 230.533 96.7235 230.488 96.9035C230.458 97.0385 230.428 97.1435 230.518 97.2785C230.668 97.4885 230.893 97.6985 231.103 97.8635C231.223 97.9685 231.373 97.9685 231.508 97.8485C231.628 97.7285 231.718 97.6835 232.003 97.5185C232.948 96.9785 233.788 96.4235 234.598 95.8385C235.408 95.2385 236.218 94.5035 236.968 93.7385C237.133 93.5735 237.118 93.4835 237.058 93.3485C236.908 93.0635 236.833 92.7335 236.803 92.4035C235.918 93.4685 235.018 94.2935 234.148 94.9085C233.353 95.4935 232.588 95.9735 231.598 96.4985V91.1435ZM227.233 89.4635C227.353 89.9735 227.368 90.3635 227.368 91.0235C227.368 92.6435 227.053 93.8585 226.558 94.9085C226.018 96.0785 225.163 96.9635 224.143 97.6985C224.458 97.7885 224.713 97.8935 224.938 98.0735C225.058 98.1785 225.193 98.1635 225.358 98.0135C226.243 97.2635 226.963 96.4685 227.503 95.3435C228.058 94.2335 228.373 92.9435 228.433 91.2335C228.448 90.6335 228.493 90.2735 228.583 90.0635C228.658 89.8835 228.643 89.7485 228.478 89.6885C228.223 89.5985 227.758 89.5085 227.233 89.4635ZM246.838 94.3685C247.933 93.9035 248.878 93.5585 250.018 93.0785C250.363 92.9435 250.663 92.8685 250.843 92.8385C250.993 92.8085 251.113 92.7185 250.993 92.4935C250.903 92.3135 250.603 91.9235 250.258 91.6235C249.943 91.9385 249.553 92.1785 249.118 92.3885C248.368 92.7485 247.513 93.1385 246.778 93.4685C246.658 92.2985 245.998 91.7135 244.888 91.7135C244.303 91.7135 243.643 91.9085 243.013 92.3585L242.998 92.3285C243.538 91.7135 244.018 91.0085 244.528 90.0935C245.728 89.9735 247.003 89.8085 248.188 89.5985C248.353 89.5685 248.383 89.5235 248.383 89.4185C248.368 89.1785 248.323 88.9685 248.293 88.7585C248.263 88.6685 248.233 88.6685 248.113 88.6985C247.078 88.9235 245.998 89.0885 244.948 89.1935C245.143 88.7435 245.278 88.4285 245.458 88.0535C245.578 87.7985 245.668 87.6935 245.728 87.6335C245.848 87.5285 245.848 87.3785 245.698 87.3035C245.443 87.1835 245.008 87.0485 244.573 86.9735C244.588 87.3035 244.528 87.5285 244.453 87.7835C244.303 88.3385 244.093 88.8335 243.913 89.2835C242.698 89.3585 241.528 89.3585 240.433 89.2985C240.448 89.5385 240.493 89.8685 240.523 90.0485C240.538 90.1535 240.568 90.1985 240.688 90.1985C241.633 90.2285 242.548 90.2285 243.478 90.1685C242.608 91.6985 241.363 93.1535 239.998 94.3385C239.908 94.4285 239.923 94.4585 239.968 94.5485C240.088 94.7135 240.343 94.9985 240.493 95.1335C240.568 95.2085 240.628 95.2085 240.718 95.1035C241.243 94.5485 241.603 94.1585 242.143 93.6485C243.103 92.8235 243.958 92.4485 244.603 92.4335C245.488 92.4185 245.833 92.8235 245.863 93.8435C243.373 95.0585 242.548 96.0785 242.548 97.3385C242.548 98.9435 243.913 99.4835 246.013 99.4835C247.423 99.4835 248.653 99.4085 249.718 99.2735C249.778 99.2585 249.838 99.1985 249.838 99.0635C249.838 98.8535 249.793 98.5535 249.748 98.3285C249.718 98.2235 249.658 98.2085 249.583 98.2235C248.488 98.3735 247.258 98.5235 246.013 98.5235C244.273 98.5235 243.448 98.1635 243.448 97.2785C243.448 96.3785 244.258 95.6135 245.908 94.7885C245.893 95.5535 245.893 96.2885 245.893 96.9485C245.893 97.0535 245.938 97.1285 246.028 97.1285C246.223 97.1285 246.523 97.0985 246.673 97.0685C246.808 97.0535 246.838 97.0085 246.838 96.8885V94.3685ZM266.968 95.4185C266.968 95.3135 266.953 95.2985 266.848 95.2985C266.773 95.2985 266.263 95.3285 264.748 95.3285H264.133V93.9785H264.193C265.648 93.9785 266.128 94.0085 266.218 94.0085C266.323 94.0085 266.338 93.9935 266.338 93.8735V93.3635C266.338 93.2585 266.323 93.2435 266.218 93.2435C266.128 93.2435 265.648 93.2735 264.193 93.2735H264.133V93.0185C264.133 92.8235 264.148 92.6885 264.208 92.5835C264.268 92.4785 264.298 92.4485 264.298 92.3585C264.298 92.2985 264.223 92.2385 264.103 92.2235C263.818 92.1785 263.578 92.1635 263.218 92.1335C263.293 92.4485 263.308 92.6735 263.308 93.2135V93.2735H261.058V93.0635C261.058 92.8085 261.058 92.6885 261.133 92.5685C261.193 92.4785 261.208 92.4335 261.208 92.3435C261.208 92.2835 261.133 92.2385 261.028 92.2235C260.758 92.1785 260.518 92.1485 260.158 92.1335C260.233 92.4785 260.248 92.6885 260.248 93.1835V93.2735C258.838 93.2735 258.373 93.2435 258.283 93.2435C258.178 93.2435 258.163 93.2585 258.163 93.3635V93.8735C258.163 93.9935 258.178 94.0085 258.283 94.0085C258.373 94.0085 258.838 93.9785 260.248 93.9785V95.3285H259.858C258.343 95.3285 257.833 95.2985 257.758 95.2985C257.653 95.2985 257.638 95.3135 257.638 95.4185V95.9285C257.638 96.0485 257.653 96.0635 257.758 96.0635C257.833 96.0635 258.343 96.0335 259.858 96.0335H264.748C266.263 96.0335 266.773 96.0635 266.848 96.0635C266.953 96.0635 266.968 96.0485 266.968 95.9285V95.4185ZM263.308 95.3285H261.058V93.9785H263.308V95.3285ZM256.933 93.9785C256.933 93.0335 256.963 92.6435 256.963 92.5685C256.963 92.4635 256.948 92.4485 256.843 92.4485C256.768 92.4485 256.543 92.4785 255.763 92.4785H254.998C254.233 92.4785 254.038 92.4485 253.978 92.4485C253.873 92.4485 253.858 92.4635 253.858 92.5685V93.2135C253.858 93.3335 253.873 93.3485 253.978 93.3485C254.038 93.3485 254.233 93.3185 254.998 93.3185H256.078V97.0385C255.658 97.5035 255.163 97.9235 254.728 98.2535C254.413 98.4935 254.143 98.6435 253.813 98.8085C253.948 99.1085 254.098 99.3635 254.248 99.5885C254.308 99.6785 254.368 99.7235 254.428 99.7235C254.488 99.7235 254.548 99.6785 254.608 99.5885C254.653 99.4985 254.743 99.4235 254.923 99.2735C255.523 98.7635 256.033 98.3135 256.498 97.8185C256.828 98.5085 257.248 98.9885 257.938 99.3035C258.658 99.6485 259.993 99.7835 261.628 99.7835C263.158 99.7835 265.003 99.7235 266.953 99.6035C267.253 99.5735 267.253 99.5735 267.298 99.2735C267.343 99.0485 267.403 98.8385 267.568 98.6435C265.348 98.8535 263.203 98.9435 261.283 98.9435C259.858 98.9435 258.838 98.8085 258.283 98.5835C257.608 98.2685 257.203 97.8785 256.933 97.0985V93.9785ZM263.473 89.7335H265.168C266.008 89.7335 266.263 89.7635 266.353 89.7635C266.458 89.7635 266.473 89.7485 266.473 89.6435C266.473 89.5685 266.443 89.3435 266.443 88.7285V88.2185C266.443 87.6335 266.473 87.4235 266.473 87.3485C266.473 87.2435 266.458 87.2285 266.353 87.2285C266.263 87.2285 266.008 87.2585 265.168 87.2585H263.893C262.963 87.2585 262.708 87.2285 262.633 87.2285C262.513 87.2285 262.498 87.2435 262.498 87.3485V87.8735C262.498 87.9785 262.513 87.9935 262.633 87.9935C262.708 87.9935 262.963 87.9635 263.893 87.9635H265.633V89.0585H263.833C263.098 89.0585 262.828 89.0285 262.738 89.0285C262.633 89.0285 262.618 89.0435 262.618 89.1485C262.618 89.2385 262.648 89.4035 262.648 89.7335V90.4685C262.648 91.1885 262.753 91.3535 262.963 91.5335C263.158 91.6985 263.608 91.7585 264.658 91.7585C265.843 91.7585 266.308 91.6985 266.548 91.5035C266.728 91.3535 266.818 91.1885 266.893 90.7835C266.938 90.5135 266.938 90.4985 266.698 90.4085C266.518 90.3485 266.308 90.2435 266.143 90.1235C266.128 90.6035 266.083 90.8135 265.978 90.9185C265.858 91.0235 265.573 91.0685 264.838 91.0685C263.938 91.0685 263.713 91.0385 263.608 90.9485C263.503 90.8585 263.473 90.7385 263.473 90.3035V89.7335ZM258.583 89.7335H260.233C261.073 89.7335 261.343 89.7635 261.418 89.7635C261.523 89.7635 261.538 89.7485 261.538 89.6435C261.538 89.5685 261.508 89.3435 261.508 88.7285V88.2185C261.508 87.6335 261.538 87.4235 261.538 87.3485C261.538 87.2435 261.523 87.2285 261.418 87.2285C261.343 87.2285 261.073 87.2585 260.233 87.2585H258.988C258.073 87.2585 257.803 87.2285 257.713 87.2285C257.608 87.2285 257.593 87.2435 257.593 87.3485V87.8735C257.593 87.9785 257.608 87.9935 257.713 87.9935C257.803 87.9935 258.073 87.9635 258.988 87.9635H260.698V89.0585H258.928C258.223 89.0585 257.938 89.0285 257.863 89.0285C257.743 89.0285 257.728 89.0435 257.728 89.1485C257.728 89.2385 257.758 89.4035 257.758 89.7335V90.4685C257.758 91.1885 257.863 91.3535 258.088 91.5335C258.283 91.6985 258.718 91.7585 259.753 91.7585C260.848 91.7585 261.283 91.6985 261.523 91.5035C261.703 91.3535 261.793 91.1885 261.868 90.7835C261.898 90.5135 261.898 90.4985 261.688 90.4235C261.463 90.3485 261.298 90.2435 261.148 90.1235C261.133 90.5885 261.118 90.7835 260.998 90.9035C260.878 91.0235 260.503 91.0685 259.813 91.0685C259.048 91.0685 258.823 91.0385 258.718 90.9485C258.613 90.8585 258.583 90.7385 258.583 90.2885V89.7335ZM263.248 96.5285C263.113 96.6635 263.143 96.6935 263.233 96.7535C264.178 97.4735 265.048 97.9235 266.053 98.3285C266.323 98.4185 266.353 98.4185 266.503 98.1485C266.578 97.9985 266.698 97.8185 266.833 97.6835C265.618 97.3085 264.658 96.9035 263.788 96.2285C263.683 96.1535 263.653 96.1385 263.518 96.2735L263.248 96.5285ZM254.578 87.5435C254.413 87.6485 254.398 87.6785 254.473 87.7535C255.073 88.3235 255.628 89.0885 256.138 89.9135C256.213 90.0335 256.258 90.0185 256.438 89.8835L256.783 89.6135C256.933 89.4935 256.948 89.4635 256.888 89.3735C256.348 88.5485 255.793 87.8735 255.178 87.2585C255.088 87.1835 255.073 87.1985 254.908 87.3035L254.578 87.5435ZM261.343 96.7535C261.358 96.6935 261.298 96.6185 261.208 96.5585C261.028 96.4235 260.833 96.2735 260.623 96.1685C260.458 96.3785 260.263 96.5585 260.023 96.7235C259.618 96.9635 258.883 97.3685 257.833 97.7135C257.998 97.8035 258.133 97.9235 258.238 98.0735C258.433 98.3135 258.448 98.3135 258.718 98.2085C259.543 97.8785 260.188 97.5335 260.713 97.1735C260.848 97.0985 261.058 96.9335 261.148 96.9035C261.253 96.8735 261.328 96.8135 261.343 96.7535ZM280.393 92.5835V93.2585C280.393 93.3635 280.408 93.3785 280.513 93.3785H281.188C281.293 93.3785 281.308 93.3635 281.308 93.2585C281.308 93.1835 281.278 92.8385 281.278 91.6085V89.2085C281.278 88.1585 281.308 87.7835 281.308 87.6935C281.308 87.5885 281.293 87.5735 281.188 87.5735C281.113 87.5735 280.663 87.6035 279.343 87.6035H276.643C275.338 87.6035 274.888 87.5735 274.798 87.5735C274.693 87.5735 274.678 87.5885 274.678 87.6935C274.678 87.7835 274.708 88.3385 274.708 89.6585C274.708 91.9835 274.708 93.5285 274.438 94.9985C274.123 96.6785 273.418 98.1485 272.218 99.4085C272.398 99.4985 272.608 99.6335 272.773 99.8285C272.878 99.9335 272.923 99.9785 272.968 99.9785C273.028 99.9785 273.073 99.9335 273.148 99.8285C274.273 98.4635 274.978 96.9185 275.263 95.3885C275.443 94.4585 275.533 93.5885 275.578 92.5835H277.573C278.023 95.6135 279.253 98.1185 281.383 99.7985C281.488 99.8735 281.548 99.9185 281.593 99.9185C281.653 99.9185 281.698 99.8585 281.773 99.7385C281.923 99.5135 282.163 99.3035 282.328 99.1835C280.183 97.8185 278.848 95.4035 278.428 92.5835H280.393ZM280.393 91.7585H275.593C275.608 91.1585 275.608 90.5135 275.608 89.7635V88.4285H280.393V91.7585ZM271.948 90.5585H272.128C273.238 90.5585 273.553 90.5885 273.643 90.5885C273.748 90.5885 273.763 90.5735 273.763 90.4685V89.8235C273.763 89.7185 273.748 89.7035 273.643 89.7035C273.553 89.7035 273.238 89.7335 272.128 89.7335H271.948V88.5185C271.948 87.6635 271.948 87.3785 272.023 87.2135C272.068 87.1085 272.113 87.0335 272.113 86.9285C272.113 86.8685 272.038 86.8235 271.933 86.8085C271.648 86.7635 271.318 86.7335 270.943 86.7185C271.033 87.2135 271.048 87.6485 271.048 88.5335V89.7335H270.463C269.368 89.7335 269.038 89.7035 268.963 89.7035C268.858 89.7035 268.843 89.7185 268.843 89.8235V90.4685C268.843 90.5735 268.858 90.5885 268.963 90.5885C269.038 90.5885 269.368 90.5585 270.463 90.5585H271.048V93.8135C270.688 93.9485 270.343 94.0685 270.058 94.1585C269.518 94.3385 269.143 94.4285 268.738 94.5035C268.828 94.8335 268.918 95.1185 269.023 95.3885C269.068 95.4935 269.113 95.5235 269.173 95.5235C269.248 95.5235 269.323 95.4635 269.368 95.4185C269.443 95.3435 269.593 95.2535 269.923 95.1335C270.283 95.0135 270.673 94.8635 271.048 94.7135V98.4035C271.048 98.4785 271.048 98.5535 271.033 98.6285C271.003 98.9735 270.853 99.0785 270.493 99.0785C270.028 99.0785 269.668 99.0635 269.293 99.0335C269.413 99.1985 269.518 99.4385 269.578 99.6935C269.653 99.9785 269.653 99.9935 269.953 99.9935C270.943 99.9935 271.273 99.9485 271.573 99.7235C271.858 99.5135 271.963 99.2435 271.963 98.5535C271.963 97.9835 271.948 97.0985 271.948 96.2735V94.3535C272.518 94.1135 273.058 93.8585 273.538 93.6335C273.808 93.4985 273.838 93.4385 273.838 93.1835C273.838 92.9585 273.853 92.7335 273.868 92.5685C273.253 92.8685 272.593 93.1835 271.948 93.4535V90.5585ZM287.203 87.4385C287.368 88.1285 287.353 88.7735 287.323 89.7035C287.248 91.8185 287.113 94.2635 287.113 96.3935C287.113 98.5985 288.028 99.4085 289.723 99.4085C291.868 99.4085 293.863 98.4035 295.438 96.8885C295.573 96.7685 295.618 96.6935 295.618 96.6035C295.618 96.5435 295.588 96.4835 295.558 96.3935C295.468 96.1685 295.348 95.8685 295.303 95.5235C293.758 97.2335 291.808 98.3885 289.903 98.3885C288.598 98.3885 288.133 97.8785 288.133 96.1985C288.133 94.1285 288.223 92.0735 288.358 89.8085C288.418 88.9085 288.478 88.4435 288.538 88.2635C288.598 88.1135 288.658 87.9935 288.658 87.8735C288.658 87.7685 288.583 87.6935 288.418 87.6485C288.118 87.5435 287.653 87.4835 287.203 87.4385ZM305.637 89.7185C303.282 90.9635 301.977 92.7035 301.977 94.8185C301.977 97.8485 304.707 98.9285 307.242 99.1535C307.407 99.1685 307.452 99.1085 307.482 98.9435C307.527 98.7335 307.572 98.3885 307.572 98.2235C307.572 98.1035 307.527 98.0735 307.332 98.0585C305.142 97.8785 302.967 97.1435 302.967 94.6535C302.967 92.6435 304.647 90.7985 306.837 89.9285C307.617 89.6135 308.217 89.5235 309.027 89.4785C309.177 89.4635 309.222 89.4335 309.222 89.2985C309.222 89.1035 309.177 88.7435 309.132 88.5485C309.102 88.4585 309.027 88.4135 308.877 88.4285C304.857 88.9235 301.812 89.3735 299.577 89.7335C298.647 89.8685 298.257 89.9135 297.717 89.9135C297.852 90.3185 297.987 90.6785 298.137 90.9785C298.182 91.0535 298.257 91.1135 298.347 91.1135C298.437 91.1135 298.527 91.0535 298.632 91.0085C298.812 90.9185 298.992 90.8585 299.532 90.7535C301.422 90.3635 303.372 90.0485 305.622 89.6885L305.637 89.7185ZM320.217 87.1985C320.037 87.5585 319.857 87.8135 319.557 88.1285C318.222 89.4785 316.587 91.0685 315.372 92.3585C315.027 92.7185 314.847 92.9735 314.847 93.3335C314.847 93.6935 315.027 93.9635 315.432 94.2785C317.202 95.6135 319.137 97.2185 321.087 99.3635C321.192 99.4985 321.252 99.4835 321.372 99.3935C321.522 99.2585 321.762 99.0335 321.942 98.8235C322.062 98.6735 322.032 98.6435 321.927 98.5235C319.977 96.5435 317.982 94.9385 316.137 93.5735C316.002 93.4835 315.942 93.4085 315.942 93.3035C315.942 93.1985 316.002 93.0785 316.152 92.9285C317.277 91.7285 319.107 90.0335 320.577 88.6985C320.802 88.4885 320.952 88.3835 321.132 88.3085C321.222 88.2635 321.282 88.2035 321.282 88.1135C321.282 88.0535 321.237 87.9785 321.177 87.9185C320.967 87.7085 320.562 87.4235 320.217 87.1985ZM332.277 90.1685C332.442 89.5985 332.577 88.9835 332.757 88.3685C332.832 88.0535 332.892 87.9185 332.997 87.7835C333.072 87.6935 333.117 87.6185 333.117 87.5435C333.117 87.4685 333.072 87.4085 332.997 87.3785C332.682 87.2435 332.217 87.1085 331.797 87.0335C331.827 87.5285 331.752 88.0235 331.677 88.4435C331.572 88.9985 331.452 89.5385 331.242 90.3335C330.282 90.4535 329.247 90.5135 328.542 90.5135C328.137 90.5135 327.882 90.5135 327.597 90.4835C327.642 90.7835 327.687 91.0985 327.717 91.3085C327.747 91.4435 327.777 91.4585 327.957 91.4585C328.977 91.4435 330.012 91.3835 330.987 91.2785C330.282 93.7835 329.427 96.1235 328.182 98.7635C328.152 98.8385 328.167 98.9135 328.242 98.9585C328.437 99.0635 328.827 99.2435 328.947 99.2885C329.052 99.3335 329.112 99.3335 329.172 99.1985C330.237 96.7685 331.152 94.1585 332.052 91.1135C332.967 90.9635 333.792 90.7685 334.767 90.4985C334.902 90.4685 334.932 90.4235 334.917 90.2735C334.902 90.0935 334.872 89.8385 334.842 89.6585C334.827 89.5535 334.782 89.5235 334.662 89.5535C333.822 89.8235 332.982 90.0485 332.277 90.1685ZM333.207 96.4985C333.222 97.3985 333.417 98.0735 333.942 98.5235C334.617 99.1385 335.622 99.3485 337.242 99.3485C337.962 99.3485 338.742 99.2735 339.207 99.1985C339.327 99.1835 339.372 99.1535 339.372 99.0035C339.372 98.7935 339.342 98.4635 339.312 98.2835C339.297 98.1635 339.252 98.1635 339.132 98.1785C338.517 98.2685 337.677 98.3735 336.912 98.3735C335.022 98.3735 334.182 97.9235 334.077 96.5735C334.062 96.4535 334.032 96.4235 333.912 96.4235C333.747 96.4235 333.462 96.4535 333.207 96.4985ZM334.332 93.3635C335.232 93.1685 336.162 93.0335 337.092 93.0335C337.722 93.0335 338.367 93.0935 339.012 93.1985C339.147 93.2285 339.192 93.1835 339.207 93.0035C339.222 92.8085 339.207 92.4935 339.192 92.3435C339.177 92.2535 339.147 92.2085 338.967 92.1785C338.382 92.1035 337.722 92.0285 337.107 92.0285C336.222 92.0285 335.352 92.1485 334.482 92.3435C334.317 92.3885 334.287 92.4335 334.287 92.5685C334.287 92.7485 334.302 93.1085 334.332 93.3635ZM336.837 88.4735C337.512 88.9535 338.142 89.6585 338.577 90.3935C338.622 90.4685 338.697 90.4835 338.772 90.4235L339.207 90.0635C339.267 90.0185 339.282 89.9585 339.237 89.8985C338.802 89.2385 338.142 88.5035 337.542 88.0835C337.482 88.0385 337.437 88.0385 337.392 88.0685L336.837 88.4735ZM338.157 87.4685C338.862 87.9935 339.507 88.7285 339.882 89.3435C339.942 89.4335 340.002 89.4335 340.062 89.3735L340.467 89.0135C340.542 88.9535 340.557 88.9085 340.512 88.8335C340.077 88.2035 339.402 87.5435 338.802 87.0785C338.742 87.0335 338.697 87.0485 338.637 87.0935L338.157 87.4685ZM348.462 90.1985C347.307 90.3935 346.392 90.4985 345.522 90.5435C345.012 90.5735 344.547 90.5735 344.037 90.5435C344.082 90.8735 344.142 91.1435 344.202 91.3235C344.247 91.4435 344.277 91.5035 344.382 91.5035C344.757 91.5185 345.207 91.4885 345.657 91.4585C346.692 91.3835 347.727 91.2785 348.882 91.0835C349.512 92.4035 350.202 93.4835 351.192 94.5485C350.382 94.1885 349.407 93.8735 348.012 93.8735C345.942 93.8735 344.292 94.7435 344.292 96.4835C344.292 98.4935 346.602 99.3785 349.347 99.3785C350.007 99.3785 350.802 99.3335 351.072 99.3035C351.192 99.2735 351.222 99.2585 351.267 99.1535C351.342 98.9285 351.432 98.5085 351.462 98.1785C350.847 98.2985 350.067 98.3585 349.302 98.3585C347.112 98.3585 345.252 97.7885 345.252 96.4085C345.252 95.3435 346.242 94.6985 348.042 94.6985C349.482 94.6985 350.547 95.0435 351.447 95.5085C351.627 95.6135 351.792 95.7035 351.987 95.8385C352.077 95.8985 352.107 95.9285 352.167 95.9285C352.227 95.9285 352.287 95.8685 352.362 95.7785C352.467 95.6285 352.647 95.3585 352.752 95.1785C352.782 95.1335 352.797 95.0735 352.797 95.0135C352.797 94.9685 352.767 94.9235 352.692 94.8785C352.557 94.7885 352.437 94.6985 352.287 94.5485C351.132 93.2885 350.337 92.0585 349.797 90.8885C351.012 90.6035 352.107 90.3035 353.037 89.9885C353.112 89.9585 353.127 89.8985 353.112 89.7935C353.067 89.5535 352.992 89.2985 352.917 89.1335C352.872 89.0285 352.797 89.0285 352.707 89.0585C351.867 89.3885 350.637 89.7335 349.422 90.0185C349.227 89.5535 349.092 89.2085 348.927 88.7585C348.762 88.3085 348.687 87.9635 348.657 87.7535C348.627 87.6035 348.642 87.4535 348.642 87.3635C348.642 87.2285 348.537 87.1385 348.327 87.1385C348.072 87.1385 347.607 87.1985 347.142 87.2735C347.412 87.6035 347.532 87.8285 347.772 88.4435C348.042 89.1485 348.207 89.5685 348.462 90.1985ZM358.332 88.8185C358.437 89.3285 358.452 89.6885 358.452 90.2585C358.452 91.2485 358.512 92.9435 358.722 94.4435C359.052 96.7985 359.997 98.5385 361.257 98.5385C362.262 98.5385 363.072 97.3985 363.492 96.1835C363.537 96.0335 363.492 95.9135 363.372 95.8085C363.177 95.6285 363.042 95.4485 362.877 95.0585C362.442 96.4535 361.872 97.4135 361.272 97.4135C360.552 97.4135 359.907 96.1235 359.682 94.3535C359.487 92.8235 359.472 91.9085 359.472 90.9485C359.472 90.1685 359.532 89.7485 359.592 89.5685C359.622 89.4635 359.652 89.3735 359.652 89.2985C359.652 89.2385 359.607 89.1785 359.517 89.1335C359.232 88.9985 358.752 88.8635 358.332 88.8185ZM366.012 90.6935C367.467 92.0135 368.412 93.6035 368.832 95.8985C368.847 96.0035 368.922 96.0485 369.027 96.0185C369.282 95.9285 369.492 95.8235 369.717 95.6735C369.792 95.6285 369.837 95.5835 369.822 95.4785C369.447 93.4685 368.427 91.6235 366.897 90.2885C366.837 90.2285 366.762 90.2435 366.672 90.2885C366.522 90.3635 366.297 90.4985 366.012 90.6935Z" fill="black"/>
<defs>
<filter id="filter0_d" x="54.7654" y="80.5635" width="115" height="28" filterUnits="userSpaceOnUse" color-interpolation-filters="sRGB">
<feFlood flood-opacity="0" result="BackgroundImageFix"/>
<feColorMatrix in="SourceAlpha" type="matrix" values="0 0 0 0 0 0 0 0 0 0 0 0 0 0 0 0 0 0 127 0"/>
<feOffset dy="2"/>
<feColorMatrix type="matrix" values="0 0 0 0 0 0 0 0 0 0.494118 0 0 0 0 0.654902 0 0 0 1 0"/>
<feBlend mode="normal" in2="BackgroundImageFix" result="effect1_dropShadow"/>
<feBlend mode="normal" in="SourceGraphic" in2="effect1_dropShadow" result="shape"/>
</filter>
<clipPath id="clip0">
<rect x="0.765381" y="40.5635" width="300" height="23" fill="white"/>
</clipPath>
<clipPath id="clip1">
<rect x="0.765381" y="40.5635" width="15" height="20" fill="white"/>
</clipPath>
</defs>
</svg>
