<svg width="351" height="142" viewBox="15 15 321 112" fill="none" xmlns="http://www.w3.org/2000/svg">
<g clip-path="url(#clip0)">
<g clip-path="url(#clip1)">
<path d="M29.8435 45.6703V46.7536H30.9268V45.6703H29.8435ZM32.0102 42.4203H30.9268V43.5036H32.0102V42.4203ZM29.8435 43.5036V44.587H30.9268V43.5036H29.8435ZM32.0102 44.587H30.9268V45.6703H32.0102V44.587ZM38.0227 43.568L35.1823 40.7276C34.8776 40.4229 34.4646 40.2502 34.0346 40.2502H27.125C26.2279 40.2536 25.5 40.9815 25.5 41.8786V55.962C25.5 56.8591 26.2279 57.587 27.125 57.587H36.875C37.7721 57.587 38.5 56.8591 38.5 55.962V44.719C38.5 44.289 38.3273 43.8726 38.0227 43.568ZM34.1667 42.0107L36.743 44.587H34.1667V42.0107ZM36.875 55.962H27.125V41.8786H29.8232V42.4203H30.9065V41.8786H32.5417V45.3995C32.5417 45.8497 32.9039 46.212 33.3542 46.212H36.875V55.962ZM32.0745 49.2487C32.0372 49.0591 31.8714 48.9203 31.675 48.9203H30.9268V47.837H29.8435V48.9203L29.1766 52.2075C28.9531 53.3078 29.7927 54.337 30.9167 54.337C32.0372 54.337 32.8768 53.3146 32.6602 52.2177L32.0745 49.2487ZM30.9268 53.4601C30.3208 53.4601 29.8299 53.0505 29.8299 52.5461C29.8299 52.0417 30.3208 51.632 30.9268 51.632C31.5328 51.632 32.0237 52.0417 32.0237 52.5461C32.0237 53.0505 31.5328 53.4601 30.9268 53.4601ZM32.0102 46.7536H30.9268V47.837H32.0102V46.7536Z" fill="black"/>
</g>
<path d="M55.59 54.7212C55.59 54.6302 55.577 54.6172 55.486 54.6172C55.421 54.6172 54.966 54.6432 53.64 54.6432H51.235V50.6912H52.769C54.069 50.6912 54.485 50.7172 54.55 50.7172C54.641 50.7172 54.654 50.7042 54.654 50.6132V50.0412C54.654 49.9502 54.641 49.9372 54.55 49.9372C54.485 49.9372 54.069 49.9632 52.769 49.9632H51.235V48.4682C51.235 47.7141 51.261 47.3892 51.313 47.2592C51.352 47.1552 51.365 47.0902 51.365 47.0252C51.365 46.9602 51.3 46.9211 51.222 46.9082C50.962 46.8691 50.702 46.8432 50.351 46.8302C50.429 47.2851 50.442 47.6232 50.442 48.5071V49.9632H49.142C47.855 49.9632 47.426 49.9372 47.361 49.9372C47.27 49.9372 47.257 49.9502 47.257 50.0412V50.6132C47.257 50.7042 47.27 50.7172 47.361 50.7172C47.426 50.7172 47.855 50.6912 49.142 50.6912H50.442V54.6432H48.193C46.88 54.6432 46.425 54.6172 46.36 54.6172C46.269 54.6172 46.256 54.6302 46.256 54.7212V55.3062C46.256 55.3842 46.269 55.3972 46.36 55.3972C46.425 55.3972 46.88 55.3712 48.193 55.3712H53.64C54.966 55.3712 55.421 55.3972 55.486 55.3972C55.577 55.3972 55.59 55.3842 55.59 55.3062V54.7212ZM55.382 45.4911C55.382 45.3871 55.369 45.3741 55.278 45.3741C55.213 45.3741 54.771 45.4002 53.471 45.4002H47.413C46.113 45.4002 45.645 45.3741 45.58 45.3741C45.489 45.3741 45.476 45.3871 45.476 45.4911C45.476 45.5561 45.502 46.2972 45.502 48.1301C45.502 49.6772 45.424 51.1072 45.242 52.1082C45.034 53.3302 44.67 54.3832 44.007 55.3712C44.202 55.4622 44.397 55.5922 44.579 55.7742C44.657 55.8522 44.709 55.8912 44.748 55.8912C44.787 55.8912 44.813 55.8392 44.878 55.7352C45.476 54.6692 45.827 53.5252 46.022 52.3942C46.23 51.2502 46.308 49.8332 46.308 48.1431V46.1411H53.471C54.771 46.1411 55.213 46.1671 55.278 46.1671C55.369 46.1671 55.382 46.1541 55.382 46.0632V45.4911ZM68.759 48.2212C68.759 48.1172 68.759 48.1042 68.668 48.1042C68.59 48.1042 68.278 48.1301 67.277 48.1301H65.626C64.612 48.1301 64.3 48.1042 64.235 48.1042C64.144 48.1042 64.131 48.1172 64.131 48.2212V48.7022C64.131 48.7932 64.144 48.8062 64.235 48.8062C64.3 48.8062 64.612 48.7802 65.626 48.7802H65.925C65.834 49.2482 65.704 49.7682 65.561 50.2102C64.768 50.2102 64.508 50.1842 64.443 50.1842C64.352 50.1842 64.339 50.1972 64.339 50.2882C64.339 50.3662 64.365 50.7302 64.365 52.0822V53.4472C64.365 55.6182 64.339 55.9562 64.339 56.0342C64.339 56.1252 64.352 56.1382 64.443 56.1382H64.937C65.028 56.1382 65.041 56.1252 65.041 56.0342V55.5142H67.654V56.0472C67.654 56.1382 67.667 56.1512 67.758 56.1512H68.265C68.356 56.1512 68.369 56.1382 68.369 56.0472C68.369 55.9822 68.343 55.6312 68.343 53.4602V51.9132C68.343 50.7432 68.369 50.3662 68.369 50.2882C68.369 50.1972 68.356 50.1842 68.265 50.1842C68.187 50.1842 67.901 50.2102 66.991 50.2102H66.289C66.419 49.8072 66.549 49.2742 66.653 48.7802H67.277C68.278 48.7802 68.59 48.8062 68.668 48.8062C68.759 48.8062 68.759 48.7932 68.759 48.7022V48.2212ZM67.654 54.8772H65.041V53.1092H67.654V54.8772ZM67.654 52.4852H65.041V50.8472H67.654V52.4852ZM60.361 48.7802C60.192 48.8582 60.179 48.8842 60.218 48.9492C60.387 49.2612 60.53 49.5862 60.66 49.9242C60.101 49.9891 59.425 50.0412 58.736 50.0801C59.477 49.0921 60.179 48.0651 60.907 46.9211C61.115 46.5831 61.193 46.4531 61.323 46.3622C61.401 46.3231 61.453 46.2711 61.453 46.1932C61.453 46.1411 61.414 46.1021 61.31 46.0371C61.128 45.9201 60.907 45.8162 60.673 45.7122C60.608 45.9462 60.478 46.2322 60.309 46.5312C59.997 47.0511 59.685 47.5712 59.36 48.0912C59.074 47.7661 58.814 47.4671 58.541 47.1811C58.931 46.5701 59.269 45.9982 59.685 45.2441C59.763 45.0881 59.828 45.0231 59.906 44.9712C59.958 44.9322 59.997 44.8931 59.997 44.8151C59.997 44.7631 59.958 44.7111 59.867 44.6591C59.672 44.5552 59.451 44.4641 59.217 44.3732C59.178 44.5682 59.087 44.8281 58.931 45.1532C58.619 45.7901 58.385 46.2322 58.073 46.7001L57.683 46.3231C57.605 46.2452 57.579 46.2581 57.488 46.3752L57.267 46.6481C57.163 46.7782 57.163 46.8041 57.241 46.8691C57.878 47.4671 58.385 48.0131 58.944 48.7281C58.632 49.1962 58.307 49.6642 57.956 50.1192H57.878C57.644 50.1322 57.358 50.1192 57.085 50.0932C57.124 50.3662 57.163 50.5872 57.202 50.7692C57.228 50.8862 57.28 50.9512 57.332 50.9512C57.397 50.9512 57.423 50.9252 57.488 50.8862C57.553 50.8472 57.696 50.8212 57.982 50.7952C58.346 50.7692 58.71 50.7432 59.061 50.7042V54.1622C59.061 55.5792 59.035 55.9822 59.035 56.0472C59.035 56.1382 59.048 56.1512 59.139 56.1512H59.711C59.802 56.1512 59.815 56.1382 59.815 56.0472C59.815 55.9822 59.789 55.5792 59.789 54.1622V50.6392C60.153 50.6002 60.504 50.5482 60.868 50.4962L60.985 50.8992C61.024 51.0292 61.037 51.0292 61.206 50.9642L61.453 50.8602C61.609 50.7952 61.622 50.7822 61.596 50.6912C61.401 50.0412 61.128 49.3392 60.79 48.7152C60.738 48.6241 60.725 48.6241 60.582 48.6892L60.361 48.7802ZM68.642 46.4792C68.642 46.2581 68.668 46.1282 68.668 46.0632C68.668 45.9721 68.655 45.9591 68.551 45.9591C68.486 45.9591 68.044 45.9851 66.796 45.9851H65.496V45.7512C65.496 45.1791 65.509 44.9842 65.561 44.8542C65.6 44.7631 65.639 44.7111 65.639 44.6071C65.639 44.5552 65.574 44.5161 65.483 44.5032C65.223 44.4641 64.937 44.4382 64.625 44.4251C64.703 44.7761 64.716 45.1012 64.716 45.7642V45.9851H63.559C62.311 45.9851 61.882 45.9591 61.817 45.9591C61.713 45.9591 61.7 45.9721 61.7 46.0632C61.7 46.1282 61.726 46.2711 61.726 46.6092V46.9341C61.726 47.8182 61.7 47.9352 61.7 48.0131C61.7 48.1042 61.713 48.1172 61.817 48.1172H62.35C62.441 48.1172 62.454 48.1042 62.454 48.0131V46.6351H67.901V47.7141C67.901 47.8052 67.914 47.8182 68.018 47.8182H68.551C68.655 47.8182 68.668 47.8052 68.668 47.7141C68.668 47.6491 68.642 47.5451 68.642 46.8041V46.4792ZM62.467 54.4352C62.467 55.5532 62.441 56.0212 62.441 56.0992C62.441 56.1772 62.454 56.1902 62.558 56.1902H63.091C63.182 56.1902 63.195 56.1772 63.195 56.0992C63.195 56.0212 63.169 55.5532 63.169 54.4352V49.7552C63.39 49.2742 63.572 48.8191 63.715 48.4162C63.78 48.2081 63.845 48.0522 63.936 47.9611C64.001 47.9092 64.014 47.8702 64.014 47.8052C64.014 47.7532 63.949 47.7012 63.858 47.6621C63.702 47.5971 63.507 47.5321 63.182 47.4542C63.169 47.6882 63.117 47.9352 63.052 48.1431C62.727 49.2742 62.103 50.6002 61.076 51.6922C61.232 51.7572 61.336 51.8222 61.453 51.9262C61.544 52.0042 61.596 52.0562 61.648 52.0562C61.7 52.0562 61.752 52.0042 61.83 51.9002C62.064 51.6272 62.285 51.3152 62.48 50.9902C62.467 51.2892 62.467 51.6272 62.467 51.9522V54.4352ZM58.463 51.9912C58.463 51.9262 58.424 51.9002 58.281 51.8612C58.138 51.8222 57.891 51.7832 57.644 51.7442C57.657 52.0042 57.644 52.2252 57.618 52.4722C57.514 53.3692 57.371 54.0322 56.994 54.9162C57.163 54.9552 57.306 55.0332 57.423 55.1112C57.527 55.1762 57.579 55.2152 57.618 55.2152C57.67 55.2152 57.696 55.1632 57.748 55.0332C58.073 54.2012 58.203 53.4472 58.294 52.6022C58.32 52.3812 58.359 52.2382 58.398 52.1602C58.424 52.1082 58.463 52.0432 58.463 51.9912ZM60.452 51.8352C60.296 51.8872 60.27 51.9002 60.309 52.0042C60.556 52.6412 60.79 53.6032 60.907 54.3962C60.92 54.5132 60.946 54.5262 61.115 54.4742L61.388 54.3832C61.544 54.3312 61.557 54.3052 61.544 54.2012C61.414 53.4992 61.154 52.4332 60.907 51.8222C60.868 51.7312 60.829 51.7182 60.699 51.7572L60.452 51.8352ZM79.185 47.4412C78.639 49.0662 77.716 50.5092 76.741 51.6012C75.649 52.8492 74.531 53.8242 72.542 54.8122C72.815 54.9292 73.062 55.0982 73.218 55.2542C73.335 55.3842 73.504 55.3842 73.66 55.2802C75.272 54.3962 76.468 53.3302 77.521 52.1472C78.535 51.0032 79.445 49.5342 80.069 47.8831C80.16 47.6752 80.238 47.5451 80.355 47.4412C80.485 47.3242 80.498 47.1811 80.394 47.0382C80.238 46.8562 80.03 46.6612 79.809 46.5051C79.705 46.4401 79.575 46.4272 79.471 46.4922C79.328 46.5701 79.198 46.6092 78.821 46.6092H74.219C73.257 46.6092 72.529 46.5831 71.723 46.5051C71.736 46.7262 71.775 47.1292 71.788 47.3112C71.814 47.4801 71.866 47.5321 72.022 47.5192C72.724 47.4671 73.439 47.4412 74.206 47.4412H79.185ZM91.86 49.0921C91.418 49.8202 90.716 50.5352 89.988 51.0552C90.222 51.1202 90.391 51.2372 90.547 51.3672C90.638 51.4452 90.716 51.4582 90.82 51.3672C91.431 50.8992 92.146 50.1062 92.653 49.3262C92.705 49.2352 92.809 49.1572 92.939 49.1052C93.069 49.0532 93.095 48.9361 93.017 48.8062C92.887 48.6111 92.692 48.3902 92.549 48.2732C92.445 48.1822 92.367 48.1822 92.263 48.2342C92.159 48.2992 92.016 48.3251 91.457 48.3251H87.102C86.335 48.3251 85.841 48.3121 85.204 48.2471C85.23 48.5332 85.269 48.8972 85.308 49.0662C85.334 49.1572 85.412 49.1832 85.516 49.1702C86.088 49.1312 86.478 49.0921 87.167 49.0921H91.86ZM88.298 49.9112C88.402 50.3012 88.415 50.4701 88.415 50.7952C88.415 52.7322 87.635 54.3182 85.828 55.2542C86.049 55.3322 86.283 55.4752 86.426 55.6052C86.53 55.6962 86.621 55.6832 86.751 55.5922C88.311 54.6822 89.221 53.0182 89.273 50.8342C89.273 50.6002 89.325 50.4572 89.39 50.3662C89.481 50.2232 89.455 50.1582 89.299 50.0932C89.078 50.0022 88.649 49.9372 88.298 49.9112ZM103.131 48.4032C103.742 47.7922 104.21 47.2722 104.756 46.6092C105.081 46.2322 105.328 45.9982 105.484 45.9201C105.64 45.8421 105.666 45.6861 105.536 45.5561C105.341 45.3611 104.99 45.1532 104.639 44.9712C104.522 45.3871 104.288 45.7771 103.742 46.4401C103.131 47.1811 102.208 48.1042 101.22 48.9492C100.141 49.8721 98.789 50.8082 97.177 51.6922C97.424 51.8092 97.658 51.9392 97.827 52.1082C97.918 52.1992 98.009 52.2252 98.126 52.1602C99.569 51.3152 100.843 50.4312 102.208 49.2222V53.0702C102.208 53.8242 102.182 54.6042 102.156 55.3842C102.156 55.5012 102.182 55.5402 102.286 55.5402C102.52 55.5532 102.806 55.5532 103.04 55.5402C103.144 55.5402 103.183 55.5012 103.17 55.3842C103.144 54.5522 103.131 53.8112 103.131 53.0312V48.4032ZM115.289 48.3902C115.289 47.3372 115.328 46.8562 115.406 46.6742C115.484 46.4922 115.523 46.3622 115.328 46.2972C115.094 46.2322 114.6 46.1671 114.249 46.1282C114.34 46.5442 114.379 47.1552 114.379 48.4032V52.0952C114.379 52.9792 114.366 53.2262 114.327 53.3822C114.301 53.4992 114.275 53.5902 114.353 53.7072C114.483 53.8892 114.678 54.0712 114.86 54.2142C114.964 54.3052 115.094 54.3052 115.211 54.2012C115.315 54.0972 115.393 54.0582 115.64 53.9152C116.459 53.4472 117.187 52.9662 117.889 52.4592C118.591 51.9392 119.293 51.3022 119.943 50.6392C120.086 50.4962 120.073 50.4182 120.021 50.3012C119.891 50.0542 119.826 49.7682 119.8 49.4821C119.033 50.4052 118.253 51.1202 117.499 51.6532C116.81 52.1602 116.147 52.5762 115.289 53.0312V48.3902ZM111.506 46.9341C111.61 47.3762 111.623 47.7141 111.623 48.2862C111.623 49.6901 111.35 50.7432 110.921 51.6532C110.453 52.6672 109.712 53.4342 108.828 54.0712C109.101 54.1492 109.322 54.2402 109.517 54.3962C109.621 54.4872 109.738 54.4742 109.881 54.3442C110.648 53.6942 111.272 53.0052 111.74 52.0302C112.221 51.0682 112.494 49.9502 112.546 48.4682C112.559 47.9481 112.598 47.6362 112.676 47.4542C112.741 47.2981 112.728 47.1811 112.585 47.1292C112.364 47.0511 111.961 46.9732 111.506 46.9341ZM125.026 43.9831C123.167 45.8551 122.309 47.7791 122.309 50.3142C122.309 52.8492 123.167 54.7732 125.026 56.6452L125.403 56.3332C123.778 54.3702 123.167 52.6412 123.167 50.3142C123.167 47.9872 123.778 46.2581 125.403 44.2951L125.026 43.9831ZM128.183 53.6032H126.766V55.0202H128.183V53.6032ZM134.459 48.3771H129.883V49.1702H133.263L129.675 54.3182V55.0202H134.55V54.2402H130.858L134.459 49.0662V48.3771ZM137.333 48.3771H136.267V55.0202H137.333V48.3771ZM137.45 45.8162H136.15V47.1031H137.45V45.8162ZM140.734 48.3771H139.72V57.3732H140.773V54.0192C141.215 54.7992 141.787 55.1762 142.632 55.1762C144.088 55.1762 145.258 53.8892 145.258 51.6792C145.258 49.4692 144.166 48.2342 142.697 48.2342C141.943 48.2342 141.215 48.6502 140.734 49.4171V48.3771ZM140.773 50.3662C141.215 49.4952 141.826 49.0921 142.489 49.0921C143.451 49.0921 144.179 49.9762 144.179 51.7052C144.179 53.4342 143.399 54.3182 142.411 54.3182C141.748 54.3182 141.215 53.9282 140.773 53.0832V50.3662ZM146.43 44.2951C148.055 46.2581 148.666 47.9872 148.666 50.3142C148.666 52.6412 148.055 54.3702 146.43 56.3332L146.807 56.6452C148.666 54.7732 149.524 52.8492 149.524 50.3142C149.524 47.7791 148.666 45.8551 146.807 43.9831L146.43 44.2951ZM158.623 51.1852C159.572 50.7822 160.391 50.4832 161.379 50.0672C161.678 49.9502 161.938 49.8852 162.094 49.8592C162.224 49.8332 162.328 49.7552 162.224 49.5602C162.146 49.4042 161.886 49.0662 161.587 48.8062C161.314 49.0792 160.976 49.2872 160.599 49.4692C159.949 49.7811 159.208 50.1192 158.571 50.4052C158.467 49.3911 157.895 48.8842 156.933 48.8842C156.426 48.8842 155.854 49.0532 155.308 49.4432L155.295 49.4171C155.763 48.8842 156.179 48.2732 156.621 47.4801C157.661 47.3762 158.766 47.2331 159.793 47.0511C159.936 47.0252 159.962 46.9861 159.962 46.8952C159.949 46.6871 159.91 46.5051 159.884 46.3231C159.858 46.2452 159.832 46.2452 159.728 46.2711C158.831 46.4661 157.895 46.6092 156.985 46.7001C157.154 46.3102 157.271 46.0371 157.427 45.7122C157.531 45.4911 157.609 45.4002 157.661 45.3482C157.765 45.2571 157.765 45.1271 157.635 45.0621C157.414 44.9581 157.037 44.8411 156.66 44.7761C156.673 45.0621 156.621 45.2571 156.556 45.4781C156.426 45.9591 156.244 46.3881 156.088 46.7782C155.035 46.8432 154.021 46.8432 153.072 46.7912C153.085 46.9991 153.124 47.2851 153.15 47.4412C153.163 47.5321 153.189 47.5712 153.293 47.5712C154.112 47.5971 154.905 47.5971 155.711 47.5451C154.957 48.8712 153.878 50.1322 152.695 51.1592C152.617 51.2372 152.63 51.2632 152.669 51.3412C152.773 51.4842 152.994 51.7312 153.124 51.8482C153.189 51.9132 153.241 51.9132 153.319 51.8222C153.774 51.3412 154.086 51.0032 154.554 50.5611C155.386 49.8462 156.127 49.5212 156.686 49.5081C157.453 49.4952 157.752 49.8462 157.778 50.7302C155.62 51.7832 154.905 52.6672 154.905 53.7592C154.905 55.1502 156.088 55.6182 157.908 55.6182C159.13 55.6182 160.196 55.5532 161.119 55.4362C161.171 55.4232 161.223 55.3712 161.223 55.2542C161.223 55.0722 161.184 54.8122 161.145 54.6172C161.119 54.5262 161.067 54.5132 161.002 54.5262C160.053 54.6562 158.987 54.7862 157.908 54.7862C156.4 54.7862 155.685 54.4742 155.685 53.7072C155.685 52.9272 156.387 52.2642 157.817 51.5492C157.804 52.2122 157.804 52.8492 157.804 53.4212C157.804 53.5122 157.843 53.5772 157.921 53.5772C158.09 53.5772 158.35 53.5512 158.48 53.5252C158.597 53.5122 158.623 53.4732 158.623 53.3692V51.1852ZM174.34 46.9732C173.716 47.9611 172.819 48.8191 171.701 49.5342C171.974 49.6122 172.182 49.7032 172.377 49.8592C172.481 49.9502 172.611 49.9502 172.715 49.8721C173.716 49.1181 174.6 48.2081 175.198 47.3112C175.276 47.1942 175.367 47.0511 175.484 46.9861C175.64 46.8821 175.653 46.7391 175.549 46.6092C175.406 46.4142 175.25 46.2581 175.068 46.1021C175.003 46.0502 174.938 46.0112 174.873 46.0112C174.821 46.0112 174.743 46.0371 174.678 46.0632C174.561 46.1021 174.431 46.1411 173.703 46.1411H168.295C167.177 46.1411 166.41 46.1282 165.617 46.0502C165.643 46.3231 165.708 46.7262 165.76 46.9471C165.786 47.0511 165.838 47.1031 165.981 47.0902C166.605 47.0252 167.372 46.9732 168.399 46.9732H174.34ZM166.566 54.9032C166.852 55.0072 167.086 55.1372 167.268 55.3062C167.385 55.4102 167.528 55.3842 167.658 55.3062C168.685 54.6562 169.595 53.7462 170.102 52.7322C170.635 51.6662 170.843 50.3792 170.843 49.2742C170.843 48.9101 170.882 48.7542 170.947 48.6372C171.025 48.4812 171.025 48.3382 170.817 48.2601C170.57 48.1692 170.167 48.1042 169.79 48.0781C169.868 48.4291 169.907 48.7281 169.907 49.1572C169.907 50.3142 169.738 51.3542 169.257 52.3552C168.763 53.3952 167.84 54.2402 166.566 54.9032ZM179.276 49.1442C179.731 49.7032 180.121 50.4312 180.394 51.0812C180.433 51.1852 180.485 51.2372 180.602 51.1852C180.771 51.1202 180.927 51.0552 181.096 50.9512C181.213 50.8732 181.213 50.8472 181.161 50.7172C180.875 50.0152 180.524 49.4432 180.095 48.8972C180.017 48.8062 179.965 48.7802 179.861 48.8322C179.705 48.9101 179.51 49.0142 179.276 49.1442ZM181.811 48.5332C182.253 49.1312 182.539 49.7422 182.812 50.4572C182.864 50.5742 182.903 50.6132 182.994 50.5742C183.189 50.4962 183.371 50.4052 183.514 50.3272C183.618 50.2752 183.644 50.2232 183.605 50.1192C183.358 49.4692 182.994 48.8062 182.63 48.3121C182.565 48.2081 182.5 48.1951 182.409 48.2342C182.253 48.2992 182.084 48.3902 181.811 48.5332ZM185.841 48.4421C185.789 48.8842 185.737 49.1702 185.62 49.5081C185.204 50.6262 184.554 51.8092 183.852 52.7062C183.046 53.7332 182.292 54.4092 180.94 55.2932C181.213 55.3582 181.421 55.4622 181.616 55.6182C181.694 55.6962 181.811 55.6702 181.902 55.6052C182.968 54.8902 183.722 54.1752 184.528 53.1352C185.256 52.2122 185.88 51.0552 186.439 49.7811C186.595 49.4432 186.686 49.2742 186.816 49.1572C186.933 49.0532 186.92 48.9361 186.803 48.8451C186.595 48.6892 186.166 48.5332 185.841 48.4421ZM198.893 47.5971C198.347 49.2222 197.424 50.6652 196.449 51.7572C195.357 53.0052 194.239 53.9802 192.25 54.9682C192.523 55.0852 192.77 55.2542 192.926 55.4102C193.043 55.5402 193.212 55.5402 193.368 55.4362C194.98 54.5522 196.176 53.4862 197.229 52.3032C198.243 51.1592 199.153 49.6901 199.777 48.0392C199.868 47.8311 199.946 47.7012 200.063 47.5971C200.193 47.4801 200.206 47.3372 200.102 47.1942C199.946 47.0122 199.738 46.8171 199.517 46.6612C199.413 46.5962 199.283 46.5831 199.179 46.6481C199.036 46.7262 198.906 46.7651 198.529 46.7651H193.927C192.965 46.7651 192.237 46.7391 191.431 46.6612C191.444 46.8821 191.483 47.2851 191.496 47.4671C191.522 47.6362 191.574 47.6882 191.73 47.6752C192.432 47.6232 193.147 47.5971 193.914 47.5971H198.893ZM201.09 44.2042C200.362 44.2042 199.777 44.7891 199.777 45.5172C199.777 46.2452 200.362 46.8302 201.09 46.8302C201.818 46.8302 202.403 46.2452 202.403 45.5172C202.403 44.7891 201.818 44.2042 201.09 44.2042ZM201.09 44.6981C201.545 44.6981 201.909 45.0621 201.909 45.5172C201.909 45.9721 201.545 46.3361 201.09 46.3361C200.635 46.3361 200.271 45.9721 200.271 45.5172C200.271 45.0621 200.635 44.6981 201.09 44.6981ZM211.398 53.4602V54.2272C211.398 54.3572 211.411 54.3962 211.528 54.3962H212.204C212.334 54.3962 212.373 54.3572 212.373 54.2142C212.347 53.5512 212.308 52.6542 212.308 51.6532V49.0402C212.308 48.3382 212.321 47.6491 212.334 46.9861C212.334 46.8432 212.308 46.8041 212.178 46.8041C211.502 46.8302 210.657 46.8302 209.877 46.8302H207.017C206.289 46.8302 205.587 46.8302 204.924 46.8041C204.82 46.8041 204.781 46.8302 204.781 46.9471C204.807 47.6491 204.807 48.3382 204.807 49.0271V51.5882C204.807 52.6932 204.794 53.5512 204.755 54.3702C204.755 54.5002 204.794 54.5262 204.937 54.5392C205.119 54.5522 205.379 54.5392 205.548 54.5392C205.704 54.5262 205.73 54.5002 205.73 54.3442V53.4602H211.398ZM211.398 52.6282H205.717V47.6621H211.398V52.6282ZM223.501 50.8992C224.372 50.8992 225.334 50.8992 226.309 50.9252C226.465 50.9382 226.504 50.9122 226.504 50.7692C226.517 50.5611 226.517 50.2882 226.504 50.0932C226.504 49.9502 226.465 49.9242 226.309 49.9372C225.321 49.9632 224.359 49.9762 223.462 49.9762H219.471C218.392 49.9762 217.391 49.9632 216.598 49.8592C216.624 50.2102 216.676 50.6262 216.728 50.8472C216.767 50.9772 216.832 51.0292 216.949 51.0292C217.027 51.0292 217.573 50.8992 218.704 50.8992H223.501ZM233.732 46.9602C233.732 46.1282 233.745 45.7381 233.823 45.5172C233.888 45.3221 233.94 45.1791 233.732 45.1271C233.498 45.0492 233.108 44.9971 232.653 44.9581C232.744 45.4002 232.796 46.0632 232.796 47.0382V52.8232C232.796 53.6162 232.783 54.6302 232.744 55.4622C232.744 55.6052 232.783 55.6442 232.926 55.6442C233.134 55.6572 233.394 55.6572 233.589 55.6442C233.732 55.6442 233.771 55.6052 233.758 55.4752C233.745 54.6302 233.719 53.6162 233.719 52.8232V49.8072C234.902 50.1452 236.293 50.7562 237.502 51.5492C237.619 51.6272 237.671 51.6012 237.749 51.4972C237.853 51.3282 237.97 51.0942 238.061 50.8602C238.1 50.7692 238.074 50.7042 237.97 50.6522C236.67 49.8852 235.227 49.2742 233.732 48.8451V46.9602ZM236.488 45.7901C237.073 46.2061 237.619 46.8171 237.996 47.4542C238.035 47.5192 238.1 47.5321 238.165 47.4801L238.542 47.1681C238.594 47.1292 238.607 47.0772 238.568 47.0252C238.191 46.4531 237.619 45.8162 237.099 45.4522C237.047 45.4132 237.008 45.4132 236.956 45.4522L236.488 45.7901ZM237.632 44.9192C238.243 45.3741 238.802 46.0112 239.127 46.5442C239.179 46.6221 239.231 46.6221 239.283 46.5701L239.634 46.2581C239.699 46.2061 239.712 46.1671 239.673 46.1021C239.296 45.5561 238.711 44.9842 238.191 44.5811C238.139 44.5421 238.1 44.5552 238.048 44.5941L237.632 44.9192ZM249.189 47.2331C247.148 48.3121 246.017 49.8202 246.017 51.6532C246.017 54.2792 248.383 55.2152 250.58 55.4102C250.723 55.4232 250.762 55.3712 250.788 55.2282C250.827 55.0462 250.866 54.7472 250.866 54.6042C250.866 54.5002 250.827 54.4742 250.658 54.4612C248.76 54.3052 246.875 53.6682 246.875 51.5102C246.875 49.7682 248.331 48.1692 250.229 47.4151C250.905 47.1422 251.425 47.0641 252.127 47.0252C252.257 47.0122 252.296 46.9861 252.296 46.8691C252.296 46.7001 252.257 46.3881 252.218 46.2191C252.192 46.1411 252.127 46.1021 251.997 46.1152C248.513 46.5442 245.874 46.9341 243.937 47.2461C243.131 47.3631 242.793 47.4021 242.325 47.4021C242.442 47.7532 242.559 48.0651 242.689 48.3251C242.728 48.3902 242.793 48.4421 242.871 48.4421C242.949 48.4421 243.027 48.3902 243.118 48.3512C243.274 48.2732 243.43 48.2212 243.898 48.1301C245.536 47.7922 247.226 47.5192 249.176 47.2072L249.189 47.2331ZM250.281 49.3911C250.866 49.8072 251.412 50.4182 251.789 51.0552C251.828 51.1202 251.893 51.1332 251.958 51.0812L252.335 50.7692C252.387 50.7302 252.4 50.6782 252.361 50.6262C251.984 50.0542 251.412 49.4171 250.892 49.0532C250.84 49.0142 250.801 49.0142 250.762 49.0402L250.281 49.3911ZM251.425 48.5202C252.036 48.9752 252.595 49.6122 252.92 50.1452C252.972 50.2232 253.024 50.2232 253.076 50.1711L253.427 49.8592C253.492 49.8072 253.505 49.7682 253.466 49.7032C253.089 49.1572 252.504 48.5852 251.984 48.1822C251.932 48.1431 251.893 48.1562 251.841 48.1951L251.425 48.5202ZM259.914 46.8691C258.965 47.0122 257.665 47.1681 256.43 47.1811C256.469 47.4151 256.521 47.6752 256.547 47.7791C256.573 47.8961 256.612 47.9092 256.716 47.9092C257.873 47.8702 259.082 47.7271 260.135 47.5321C260.343 48.0522 260.564 48.5591 260.772 49.0011C259.589 49.2222 258.406 49.3522 257.067 49.3911C257.08 49.5862 257.132 49.8462 257.184 50.0022C257.223 50.1192 257.236 50.1322 257.34 50.1322C258.549 50.0932 259.784 49.9372 261.097 49.7032C261.578 50.5872 262.059 51.3022 262.566 51.8612C261.903 51.5362 260.98 51.3802 259.875 51.3802C257.977 51.3802 256.872 52.1602 256.872 53.4342C256.872 54.9292 258.367 55.6312 260.967 55.6312C261.461 55.6312 261.773 55.6052 262.111 55.5792C262.228 55.5662 262.254 55.5272 262.28 55.4232C262.345 55.2282 262.397 54.9812 262.423 54.7992C262.436 54.7082 262.423 54.6432 262.319 54.6562C261.89 54.6952 261.461 54.7342 260.993 54.7342C258.926 54.7342 257.704 54.3702 257.704 53.3692C257.704 52.4722 258.575 52.0822 259.927 52.0822C260.954 52.0822 261.721 52.2122 262.41 52.4722C262.735 52.6022 263.073 52.7582 263.333 52.9402C263.45 53.0442 263.515 53.0312 263.619 52.9142C263.736 52.7712 263.853 52.5892 263.931 52.4072C263.983 52.3032 263.957 52.2642 263.879 52.1862C263.073 51.5102 262.358 50.4832 261.851 49.5342C262.67 49.3522 263.528 49.1181 264.321 48.8582C264.425 48.8191 264.438 48.7672 264.425 48.6761C264.399 48.5071 264.36 48.3512 264.308 48.1822C264.269 48.0912 264.23 48.0781 264.126 48.1172C263.333 48.4291 262.501 48.6632 261.539 48.8582C261.292 48.3512 261.084 47.8572 260.928 47.3892C261.851 47.1811 262.761 46.9602 263.723 46.6612C263.814 46.6351 263.853 46.5831 263.84 46.4792C263.814 46.3361 263.775 46.1541 263.723 45.9982C263.697 45.9071 263.658 45.9201 263.58 45.9462C262.54 46.2972 261.63 46.5051 260.707 46.7001C260.629 46.4272 260.551 46.1932 260.46 45.8551C260.382 45.5431 260.356 45.4261 260.356 45.3091C260.356 45.2312 260.382 45.1532 260.382 45.1012C260.382 45.0101 260.291 44.9451 260.161 44.9451C259.914 44.9451 259.524 44.9712 259.147 45.0362C259.355 45.2961 259.459 45.5041 259.576 45.8681C259.719 46.2841 259.81 46.5701 259.914 46.8691ZM273.317 52.7062C272.94 52.6412 272.472 52.6022 271.952 52.6022C270.444 52.6022 269.56 53.3432 269.56 54.1882C269.56 55.1502 270.34 55.7352 271.861 55.7352C273.434 55.7352 274.201 55.1632 274.188 53.7072C275.228 54.0582 276.099 54.5392 277.152 55.3582C277.23 55.4102 277.282 55.3972 277.347 55.3192C277.477 55.1762 277.62 54.9292 277.672 54.7602C277.711 54.6432 277.685 54.5912 277.62 54.5392C276.541 53.7332 275.319 53.1872 274.149 52.8622C274.097 52.0822 274.058 51.4062 274.058 50.6002C275.098 50.5352 276.008 50.4182 276.931 50.2492C277.022 50.2362 277.061 50.1972 277.061 50.1192C277.061 49.8981 277.048 49.6512 277.048 49.4952C277.035 49.4302 276.996 49.4042 276.905 49.4302C275.904 49.6252 275.033 49.7422 274.032 49.8072C274.019 49.1962 274.019 48.5202 274.019 47.8831C275.215 47.8052 276.268 47.6752 277.282 47.5062C277.321 47.5062 277.373 47.4801 277.373 47.3762C277.373 47.2201 277.36 47.0122 277.334 46.8041C277.321 46.7132 277.295 46.6871 277.191 46.7132C276.268 46.8821 275.202 47.0511 274.019 47.1422C274.032 46.7001 274.032 46.4142 274.058 45.9982C274.071 45.7381 274.123 45.5431 274.214 45.4002C274.279 45.2961 274.24 45.1532 274.097 45.1012C273.85 45.0231 273.499 44.9712 273.07 44.9322C273.148 45.1921 273.174 45.4132 273.187 45.7901C273.187 46.2711 273.2 46.6351 273.2 47.1681C271.952 47.2201 270.73 47.2072 269.586 47.0641C269.586 47.3501 269.612 47.5451 269.638 47.7402C269.651 47.8311 269.677 47.8572 269.755 47.8702C270.821 47.9742 271.939 47.9872 273.2 47.9352C273.2 48.5591 273.213 49.2352 273.213 49.8721C272.199 49.9242 271.029 49.8981 270.067 49.7811C270.067 49.9632 270.08 50.2752 270.106 50.4442C270.119 50.5611 270.145 50.6002 270.249 50.6002C271.185 50.6782 272.238 50.6782 273.239 50.6392C273.252 51.3932 273.278 51.9652 273.317 52.7062ZM273.33 53.4862C273.369 54.0192 273.252 54.3442 273.096 54.5392C272.862 54.8122 272.368 54.9422 271.77 54.9422C270.821 54.9422 270.314 54.6822 270.314 54.1362C270.314 53.6682 270.86 53.3172 271.952 53.3172C272.42 53.3172 272.875 53.3822 273.33 53.4862ZM291.998 47.0122C291.998 46.8821 291.972 46.8691 291.855 46.8691C290.412 46.8691 289.138 46.8691 287.695 46.9082C287.695 46.3361 287.695 46.0891 287.721 45.8031C287.734 45.6342 287.76 45.5431 287.812 45.4522C287.864 45.3611 287.903 45.2961 287.903 45.2182C287.903 45.1271 287.812 45.0621 287.669 45.0231C287.448 44.9712 287.071 44.9061 286.681 44.8801C286.772 45.2182 286.798 45.4261 286.811 45.7512C286.824 46.1671 286.824 46.4272 286.837 46.9602C285.108 47.0641 283.769 47.1552 282.716 47.2331C281.949 47.2981 281.52 47.3372 281.078 47.3112C281.143 47.6621 281.208 47.9742 281.286 48.1431C281.312 48.2342 281.364 48.2732 281.442 48.2732C281.546 48.2732 281.702 48.1822 282.014 48.1431C283.249 47.9872 285.004 47.8572 286.863 47.7532C286.876 48.3641 286.876 48.9492 286.889 49.5862C286.616 49.2872 286.161 49.1442 285.667 49.1442C284.705 49.1442 283.886 49.8462 283.886 50.9512C283.886 52.1862 284.705 52.7842 285.602 52.7842C286.187 52.7842 286.746 52.5372 287.032 52.0432C286.915 53.3562 286.057 54.5522 284.198 55.3192C284.419 55.3972 284.653 55.5532 284.796 55.6832C284.874 55.7482 284.952 55.7872 285.03 55.7872C285.095 55.7872 285.199 55.7482 285.329 55.6702C287.162 54.6822 287.864 53.2912 287.864 51.6532C287.864 51.1592 287.812 50.6912 287.708 50.2882C287.695 49.4171 287.695 48.5202 287.695 47.7012C289.164 47.6491 290.438 47.6621 291.829 47.7012C291.959 47.7012 291.998 47.6882 291.998 47.5712V47.0122ZM285.732 49.7942C286.408 49.7942 286.889 50.2492 286.889 50.8992C286.889 51.4842 286.434 52.0432 285.706 52.0432C285.121 52.0432 284.653 51.6402 284.653 50.9252C284.653 50.2232 285.16 49.7942 285.732 49.7942ZM293.986 52.7712C292.985 52.7712 292.153 53.5772 292.153 54.5782C292.153 55.5792 292.985 56.3852 293.986 56.3852C294.987 56.3852 295.819 55.5792 295.819 54.5782C295.819 53.5772 294.987 52.7712 293.986 52.7712ZM293.986 53.4212C294.636 53.4212 295.143 53.9412 295.143 54.5782C295.143 55.2152 294.636 55.7352 293.986 55.7352C293.349 55.7352 292.829 55.2152 292.829 54.5782C292.829 53.9412 293.349 53.4212 293.986 53.4212Z" fill="black"/>
</g>
<g filter="url(#filter0_d)">
<rect x="25.5" y="75.2542" width="115" height="26" rx="5" fill="#41A6C7"/>
<path d="M44.548 85.8981C43.948 86.7622 43.36 87.2782 42.4 87.9982C42.796 88.1181 43.096 88.2502 43.396 88.4902C43.48 88.5622 43.588 88.6102 43.684 88.6102C43.78 88.6102 43.864 88.5742 43.936 88.5022C44.74 87.8662 45.484 87.0382 46.048 86.1861C46.144 86.0542 46.24 85.9342 46.372 85.8382C46.48 85.7662 46.54 85.6821 46.54 85.5861C46.54 85.5141 46.504 85.4422 46.444 85.3702C46.216 85.0942 45.988 84.8421 45.724 84.6142C45.64 84.5181 45.544 84.4462 45.448 84.4462C45.388 84.4462 45.28 84.5062 45.22 84.5301C45.1 84.5781 44.896 84.6022 44.392 84.6022H39.244C38.284 84.6022 37.624 84.5781 36.808 84.5181C36.856 84.8782 36.928 85.4782 37.024 85.8142C37.048 85.9222 37.096 86.0062 37.24 85.9942C37.948 85.9462 38.68 85.8981 39.364 85.8981H44.548ZM37.528 92.8702C37.984 93.0382 38.332 93.2302 38.62 93.4822C38.692 93.5542 38.776 93.5902 38.86 93.5902C38.98 93.5902 39.088 93.5422 39.196 93.4702C40.192 92.8342 40.912 91.9822 41.38 91.0822C41.932 90.0142 42.052 88.9462 42.088 87.7822C42.1 87.5782 42.112 87.4582 42.196 87.2902C42.232 87.2182 42.256 87.1462 42.256 87.0741C42.256 86.9661 42.208 86.8822 42.052 86.8461C41.716 86.7622 41.092 86.6781 40.504 86.6181C40.6 87.0261 40.624 87.3022 40.624 87.7462C40.624 88.9102 40.492 89.7262 40.036 90.5782C39.52 91.5382 38.836 92.1862 37.528 92.8702ZM49.3327 87.6022C49.8127 88.1782 50.1847 88.8382 50.4607 89.5342C50.5207 89.7022 50.5927 89.7622 50.7607 89.7022C51.0367 89.5942 51.2407 89.4982 51.5287 89.3302C51.6247 89.2702 51.6727 89.2342 51.6727 89.1622C51.6727 89.1142 51.6487 89.0662 51.6247 88.9822C51.3967 88.3462 51.0127 87.7342 50.5927 87.2062C50.4967 87.0741 50.4127 87.0622 50.2807 87.1221C50.0287 87.2421 49.7407 87.3742 49.3327 87.6022ZM51.7447 86.9902C52.2007 87.6262 52.4767 88.2021 52.7527 88.9102C52.8127 89.0782 52.8607 89.1382 52.9927 89.0902C53.3287 88.9702 53.5927 88.8502 53.8207 88.7182C53.9767 88.6342 54.0007 88.5742 53.9407 88.3942C53.7487 87.8182 53.3407 87.0622 53.0167 86.6422C52.9207 86.4982 52.8367 86.4862 52.7047 86.5462C52.5007 86.6301 52.2247 86.7622 51.7447 86.9902ZM55.5247 86.7022C55.4767 87.2662 55.4047 87.5302 55.2487 87.9742C54.9007 88.9102 54.2287 90.0862 53.6287 90.8662C52.9087 91.8022 52.1887 92.4142 50.7487 93.3622C51.1927 93.4942 51.4687 93.6262 51.7687 93.8662C51.8287 93.9262 51.9007 93.9502 51.9607 93.9502C52.0567 93.9502 52.1527 93.8902 52.2487 93.8182C53.2687 93.1462 53.9287 92.5102 54.7207 91.5022C55.3927 90.6262 56.0167 89.5342 56.5327 88.3102C56.6287 88.0942 56.7127 87.8542 56.8927 87.6982C56.9887 87.6142 57.0247 87.5542 57.0247 87.4821C57.0247 87.4102 56.9647 87.3502 56.8687 87.2782C56.5687 87.0741 56.0287 86.8581 55.5247 86.7022ZM67.1287 86.4262C66.6487 87.7581 66.0367 88.7782 65.1007 89.8462C63.9967 91.1302 62.9287 91.9582 61.1767 92.8462C61.6207 93.0262 62.0167 93.2422 62.2927 93.5062C62.3887 93.6022 62.4967 93.6382 62.5927 93.6382C62.7007 93.6382 62.8087 93.6022 62.9167 93.5302C64.1287 92.8462 65.2927 91.8502 66.3247 90.6742C67.3327 89.5102 68.0647 88.1902 68.6527 86.7742C68.7607 86.5342 68.8207 86.4141 68.9287 86.3061C69.0127 86.2222 69.0487 86.1502 69.0487 86.0781C69.0487 85.9942 69.0127 85.9222 68.9527 85.8382C68.7487 85.5502 68.4487 85.2622 68.1367 85.0101C68.0767 84.9502 68.0047 84.9262 67.9327 84.9262C67.8727 84.9262 67.8007 84.9502 67.7287 84.9982C67.5607 85.0942 67.4287 85.1181 67.0687 85.1181H62.7847C61.6567 85.1181 61.0207 85.0942 60.4807 85.0341C60.5047 85.3822 60.5527 86.0062 60.5887 86.2461C60.6127 86.4141 60.6607 86.4982 60.8167 86.4862C61.3327 86.4621 62.0167 86.4262 62.7967 86.4262H67.1287ZM69.7927 82.8382C69.0727 82.8382 68.4967 83.3782 68.4967 84.1221C68.4967 84.8421 69.0727 85.4061 69.7927 85.4061C70.5127 85.4061 71.0887 84.8421 71.0887 84.1221C71.0887 83.4021 70.5127 82.8382 69.7927 82.8382ZM69.7927 83.4141C70.2007 83.4141 70.5007 83.7142 70.5007 84.1221C70.5007 84.5301 70.2007 84.8302 69.7927 84.8302C69.3847 84.8302 69.0847 84.5301 69.0847 84.1221C69.0847 83.7142 69.3847 83.4141 69.7927 83.4141ZM78.9843 91.8502V92.4862C78.9843 92.6542 78.9963 92.6782 79.1403 92.6782C79.5003 92.6902 79.8843 92.6902 80.2443 92.6782C80.4123 92.6782 80.4723 92.6422 80.4723 92.4742C80.4483 91.8262 80.4123 91.2382 80.4123 90.1942V87.3262C80.4123 86.6181 80.4243 85.9701 80.4243 85.3822C80.4363 85.2022 80.4003 85.1421 80.2683 85.1421C79.7043 85.1662 78.7923 85.1662 78.0123 85.1662H75.1563C74.3523 85.1662 73.6443 85.1662 73.0083 85.1301C72.9243 85.1301 72.8763 85.1781 72.8763 85.2981C72.9123 85.9942 72.9003 86.6422 72.9003 87.2902V90.2302C72.9003 91.1422 72.8763 91.9942 72.8643 92.6182C72.8523 92.7622 72.9123 92.7862 73.1163 92.7982C73.4163 92.8102 73.7643 92.8102 74.0643 92.7982C74.2803 92.7862 74.3283 92.7622 74.3283 92.5582V91.8502H78.9843ZM78.9843 90.5782H74.3163V86.4382H78.9843V90.5782ZM90.4563 89.5462C91.3443 89.5462 92.2323 89.5582 93.1323 89.5702C93.3003 89.5822 93.3483 89.5342 93.3483 89.3902C93.3723 89.0302 93.3723 88.6222 93.3483 88.2622C93.3483 88.1181 93.3123 88.0822 93.1323 88.0942C92.2083 88.1062 91.2843 88.1302 90.3723 88.1302H86.5083C85.2963 88.1302 84.6963 88.1062 83.9163 87.9862C83.9643 88.5982 84.0363 89.1622 84.0963 89.4382C84.1323 89.6182 84.2283 89.6902 84.3723 89.6902C84.4923 89.6902 84.9483 89.5462 86.1363 89.5462H90.4563ZM99.9963 85.3702C99.9963 84.6981 99.9963 84.3981 100.08 84.2421C100.14 84.1341 100.176 84.0382 100.176 83.9661C100.176 83.8701 100.116 83.7981 99.9483 83.7622C99.6003 83.6662 99.0003 83.6062 98.4483 83.5701C98.5323 84.0502 98.5683 84.4462 98.5683 85.3461V91.2502C98.5683 92.0182 98.5563 92.7262 98.5203 93.6142C98.5203 93.7582 98.5803 93.7942 98.7483 93.7942C99.0963 93.8182 99.4683 93.8182 99.8163 93.7942C99.9843 93.7942 100.044 93.7582 100.032 93.6142C100.008 92.7502 99.9843 92.0422 99.9843 91.2622V88.6102C100.956 88.9102 102.036 89.4382 103.14 90.1462C103.188 90.1942 103.236 90.2062 103.272 90.2062C103.332 90.2062 103.38 90.1582 103.428 90.0742C103.596 89.7982 103.788 89.4262 103.944 89.0302C104.004 88.8742 103.944 88.7902 103.812 88.7182C102.624 88.0102 101.46 87.5422 99.9963 87.0862V85.3702ZM102.156 84.5781C102.624 84.9621 103.008 85.4181 103.368 85.9701C103.428 86.0542 103.488 86.0661 103.572 86.0062L104.076 85.6341C104.16 85.5741 104.16 85.5141 104.112 85.4422C103.776 84.9262 103.344 84.4462 102.972 84.1582C102.9 84.0982 102.852 84.0861 102.792 84.1341L102.156 84.5781ZM103.26 83.7861C103.752 84.1941 104.136 84.6502 104.46 85.1662C104.508 85.2381 104.568 85.2742 104.664 85.2022L105.144 84.8302C105.24 84.7582 105.228 84.6861 105.18 84.6142C104.916 84.1941 104.484 83.7142 104.04 83.3782C103.968 83.3181 103.932 83.3061 103.86 83.3541L103.26 83.7861ZM112.62 85.3942C111.18 85.4782 109.632 85.5741 108.9 85.6341C108.264 85.6821 107.88 85.7301 107.436 85.6821C107.532 86.1741 107.64 86.6542 107.736 86.8942C107.772 87.0141 107.82 87.0622 107.94 87.0622C108.048 87.0622 108.24 86.9541 108.504 86.9182C109.452 86.7861 111.144 86.6422 112.656 86.5582C112.656 86.9541 112.668 87.3622 112.668 87.7822C112.476 87.6142 112.116 87.5422 111.756 87.5422C110.784 87.5422 109.944 88.2262 109.944 89.3422C109.944 90.4942 110.664 91.1782 111.612 91.1782C112.008 91.1782 112.5 91.0462 112.74 90.6982C112.524 91.7062 111.684 92.7142 110.28 93.3382C110.592 93.4342 110.916 93.5902 111.192 93.8182C111.312 93.9142 111.444 93.9982 111.552 93.9982C111.66 93.9982 111.816 93.9022 112.02 93.7702C113.592 92.7382 114.156 91.2862 114.156 89.8942C114.156 89.4982 114.096 89.0302 113.976 88.7062C113.964 87.9742 113.964 87.2062 113.964 86.4742C115.212 86.4621 116.376 86.4621 117.624 86.4982C117.768 86.5101 117.828 86.4742 117.828 86.3421C117.84 86.0422 117.84 85.7301 117.828 85.4302C117.816 85.2742 117.792 85.2501 117.648 85.2501C116.496 85.2501 115.26 85.2622 113.964 85.3101C113.976 84.8541 113.976 84.6981 113.988 84.5422C114.012 84.3862 114.048 84.2662 114.084 84.1941C114.156 84.0741 114.192 84.0141 114.192 83.9181C114.192 83.8101 114.06 83.7262 113.856 83.6901C113.568 83.6301 112.992 83.5582 112.452 83.5221C112.548 83.8822 112.572 84.0502 112.596 84.3981C112.608 84.7222 112.608 85.0221 112.62 85.3942ZM111.852 88.4782C112.332 88.4782 112.644 88.7542 112.644 89.2462C112.644 89.7982 112.272 90.0742 111.828 90.0742C111.396 90.0742 111.06 89.7862 111.06 89.2582C111.06 88.7302 111.48 88.4782 111.852 88.4782ZM123.42 88.1902C124.332 87.3141 125.136 86.4742 126.012 85.6221C126.24 85.4181 126.336 85.3342 126.54 85.2381C126.672 85.1781 126.744 85.0701 126.744 84.9502C126.744 84.8541 126.708 84.7702 126.612 84.6622C126.408 84.4101 126.168 84.1702 125.808 83.8942C125.724 83.8342 125.652 83.7981 125.532 83.7981C125.472 83.7981 125.364 83.8581 125.304 83.8942C125.184 83.9541 124.944 84.0141 124.644 84.0741C123.708 84.2541 122.652 84.4101 121.92 84.4822C121.56 84.5062 121.164 84.5062 120.804 84.4581C120.972 85.1421 121.08 85.4782 121.224 85.7542C121.284 85.8981 121.368 85.9581 121.488 85.9581C121.548 85.9581 121.668 85.9222 121.728 85.8981C121.92 85.8262 122.076 85.7901 122.232 85.7542C122.976 85.5982 123.828 85.4302 124.548 85.2981C123.996 85.9822 123.432 86.5821 122.688 87.3502C121.608 88.4782 120.78 89.2462 119.844 90.0022C119.748 90.0982 119.712 90.1822 119.784 90.2782C119.976 90.5302 120.24 90.8422 120.492 91.0582C120.564 91.1302 120.624 91.1662 120.672 91.1662C120.732 91.1662 120.792 91.1182 120.876 91.0342C121.236 90.6742 121.572 90.3262 121.92 90.0142C122.892 89.1862 123.996 88.7422 124.992 88.7422C126.108 88.7422 126.876 89.4622 126.876 90.5542C126.876 91.4662 126.492 91.9942 125.652 92.3782C125.352 91.2262 124.524 90.6262 123.396 90.6262C122.46 90.6262 121.704 91.2862 121.704 92.0902C121.704 93.2062 122.616 93.8542 124.128 93.8542C126.696 93.8542 128.316 92.5702 128.316 90.5662C128.316 88.8382 127.092 87.6862 125.34 87.6862C124.668 87.6862 124.104 87.8421 123.432 88.2262L123.42 88.1902ZM124.464 92.6782C124.284 92.7142 124.128 92.7262 123.912 92.7262C123.192 92.7262 122.868 92.4742 122.868 92.1022C122.868 91.8502 123.096 91.6462 123.444 91.6462C123.948 91.6462 124.308 92.0182 124.464 92.6782Z" fill="white"/>
</g>
<path d="M155.185 85.4412C154.639 87.0662 153.716 88.5092 152.741 89.6012C151.649 90.8492 150.531 91.8242 148.542 92.8122C148.815 92.9292 149.062 93.0982 149.218 93.2542C149.335 93.3842 149.504 93.3842 149.66 93.2802C151.272 92.3962 152.468 91.3302 153.521 90.1472C154.535 89.0032 155.445 87.5342 156.069 85.8831C156.16 85.6752 156.238 85.5451 156.355 85.4412C156.485 85.3242 156.498 85.1811 156.394 85.0382C156.238 84.8562 156.03 84.6612 155.809 84.5051C155.705 84.4401 155.575 84.4272 155.471 84.4922C155.328 84.5701 155.198 84.6092 154.821 84.6092H150.219C149.257 84.6092 148.529 84.5831 147.723 84.5051C147.736 84.7262 147.775 85.1292 147.788 85.3112C147.814 85.4801 147.866 85.5321 148.022 85.5192C148.724 85.4671 149.439 85.4412 150.206 85.4412H155.185ZM167.86 87.0921C167.418 87.8202 166.716 88.5352 165.988 89.0552C166.222 89.1202 166.391 89.2372 166.547 89.3672C166.638 89.4452 166.716 89.4582 166.82 89.3672C167.431 88.8992 168.146 88.1062 168.653 87.3262C168.705 87.2352 168.809 87.1572 168.939 87.1052C169.069 87.0532 169.095 86.9361 169.017 86.8062C168.887 86.6111 168.692 86.3902 168.549 86.2732C168.445 86.1822 168.367 86.1822 168.263 86.2342C168.159 86.2992 168.016 86.3251 167.457 86.3251H163.102C162.335 86.3251 161.841 86.3121 161.204 86.2471C161.23 86.5332 161.269 86.8972 161.308 87.0662C161.334 87.1572 161.412 87.1832 161.516 87.1702C162.088 87.1312 162.478 87.0921 163.167 87.0921H167.86ZM164.298 87.9112C164.402 88.3012 164.415 88.4701 164.415 88.7952C164.415 90.7322 163.635 92.3182 161.828 93.2542C162.049 93.3322 162.283 93.4752 162.426 93.6052C162.53 93.6962 162.621 93.6832 162.751 93.5922C164.311 92.6822 165.221 91.0182 165.273 88.8342C165.273 88.6002 165.325 88.4572 165.39 88.3662C165.481 88.2232 165.455 88.1582 165.299 88.0932C165.078 88.0022 164.649 87.9372 164.298 87.9112ZM179.131 86.4032C179.742 85.7922 180.21 85.2722 180.756 84.6092C181.081 84.2322 181.328 83.9982 181.484 83.9201C181.64 83.8421 181.666 83.6861 181.536 83.5561C181.341 83.3611 180.99 83.1532 180.639 82.9712C180.522 83.3871 180.288 83.7771 179.742 84.4401C179.131 85.1811 178.208 86.1042 177.22 86.9492C176.141 87.8721 174.789 88.8082 173.177 89.6922C173.424 89.8092 173.658 89.9392 173.827 90.1082C173.918 90.1992 174.009 90.2252 174.126 90.1602C175.569 89.3152 176.843 88.4312 178.208 87.2222V91.0702C178.208 91.8242 178.182 92.6042 178.156 93.3842C178.156 93.5012 178.182 93.5402 178.286 93.5402C178.52 93.5532 178.806 93.5532 179.04 93.5402C179.144 93.5402 179.183 93.5012 179.17 93.3842C179.144 92.5522 179.131 91.8112 179.131 91.0312V86.4032ZM191.289 86.3902C191.289 85.3372 191.328 84.8562 191.406 84.6742C191.484 84.4922 191.523 84.3622 191.328 84.2972C191.094 84.2322 190.6 84.1671 190.249 84.1282C190.34 84.5442 190.379 85.1552 190.379 86.4032V90.0952C190.379 90.9792 190.366 91.2262 190.327 91.3822C190.301 91.4992 190.275 91.5902 190.353 91.7072C190.483 91.8892 190.678 92.0712 190.86 92.2142C190.964 92.3052 191.094 92.3052 191.211 92.2012C191.315 92.0972 191.393 92.0582 191.64 91.9152C192.459 91.4472 193.187 90.9662 193.889 90.4592C194.591 89.9392 195.293 89.3022 195.943 88.6392C196.086 88.4962 196.073 88.4182 196.021 88.3012C195.891 88.0542 195.826 87.7682 195.8 87.4821C195.033 88.4052 194.253 89.1202 193.499 89.6532C192.81 90.1602 192.147 90.5762 191.289 91.0312V86.3902ZM187.506 84.9341C187.61 85.3762 187.623 85.7141 187.623 86.2862C187.623 87.6901 187.35 88.7432 186.921 89.6532C186.453 90.6672 185.712 91.4342 184.828 92.0712C185.101 92.1492 185.322 92.2402 185.517 92.3962C185.621 92.4872 185.738 92.4742 185.881 92.3442C186.648 91.6942 187.272 91.0052 187.74 90.0302C188.221 89.0682 188.494 87.9502 188.546 86.4682C188.559 85.9481 188.598 85.6362 188.676 85.4542C188.741 85.2981 188.728 85.1811 188.585 85.1292C188.364 85.0511 187.961 84.9732 187.506 84.9341ZM204.497 89.1852C205.446 88.7822 206.265 88.4832 207.253 88.0672C207.552 87.9502 207.812 87.8852 207.968 87.8592C208.098 87.8332 208.202 87.7552 208.098 87.5602C208.02 87.4042 207.76 87.0662 207.461 86.8062C207.188 87.0792 206.85 87.2872 206.473 87.4692C205.823 87.7811 205.082 88.1192 204.445 88.4052C204.341 87.3911 203.769 86.8842 202.807 86.8842C202.3 86.8842 201.728 87.0532 201.182 87.4432L201.169 87.4171C201.637 86.8842 202.053 86.2732 202.495 85.4801C203.535 85.3762 204.64 85.2331 205.667 85.0511C205.81 85.0252 205.836 84.9861 205.836 84.8952C205.823 84.6871 205.784 84.5051 205.758 84.3231C205.732 84.2452 205.706 84.2452 205.602 84.2711C204.705 84.4661 203.769 84.6092 202.859 84.7001C203.028 84.3102 203.145 84.0371 203.301 83.7122C203.405 83.4911 203.483 83.4002 203.535 83.3482C203.639 83.2571 203.639 83.1271 203.509 83.0621C203.288 82.9581 202.911 82.8411 202.534 82.7761C202.547 83.0621 202.495 83.2571 202.43 83.4781C202.3 83.9591 202.118 84.3881 201.962 84.7782C200.909 84.8432 199.895 84.8432 198.946 84.7912C198.959 84.9991 198.998 85.2851 199.024 85.4412C199.037 85.5321 199.063 85.5712 199.167 85.5712C199.986 85.5971 200.779 85.5971 201.585 85.5451C200.831 86.8712 199.752 88.1322 198.569 89.1592C198.491 89.2372 198.504 89.2632 198.543 89.3412C198.647 89.4842 198.868 89.7312 198.998 89.8482C199.063 89.9132 199.115 89.9132 199.193 89.8222C199.648 89.3412 199.96 89.0032 200.428 88.5611C201.26 87.8462 202.001 87.5212 202.56 87.5081C203.327 87.4952 203.626 87.8462 203.652 88.7302C201.494 89.7832 200.779 90.6672 200.779 91.7592C200.779 93.1502 201.962 93.6182 203.782 93.6182C205.004 93.6182 206.07 93.5532 206.993 93.4362C207.045 93.4232 207.097 93.3712 207.097 93.2542C207.097 93.0722 207.058 92.8122 207.019 92.6172C206.993 92.5262 206.941 92.5132 206.876 92.5262C205.927 92.6562 204.861 92.7862 203.782 92.7862C202.274 92.7862 201.559 92.4742 201.559 91.7072C201.559 90.9272 202.261 90.2642 203.691 89.5492C203.678 90.2122 203.678 90.8492 203.678 91.4212C203.678 91.5122 203.717 91.5772 203.795 91.5772C203.964 91.5772 204.224 91.5512 204.354 91.5252C204.471 91.5122 204.497 91.4732 204.497 91.3692V89.1852ZM221.943 90.0952C221.943 90.0042 221.93 89.9912 221.839 89.9912C221.774 89.9912 221.332 90.0172 220.019 90.0172H219.486V88.8472H219.538C220.799 88.8472 221.215 88.8732 221.293 88.8732C221.384 88.8732 221.397 88.8602 221.397 88.7562V88.3142C221.397 88.2232 221.384 88.2102 221.293 88.2102C221.215 88.2102 220.799 88.2362 219.538 88.2362H219.486V88.0152C219.486 87.8462 219.499 87.7292 219.551 87.6382C219.603 87.5472 219.629 87.5212 219.629 87.4432C219.629 87.3911 219.564 87.3392 219.46 87.3262C219.213 87.2872 219.005 87.2742 218.693 87.2482C218.758 87.5212 218.771 87.7162 218.771 88.1842V88.2362H216.821V88.0542C216.821 87.8332 216.821 87.7292 216.886 87.6252C216.938 87.5472 216.951 87.5081 216.951 87.4302C216.951 87.3782 216.886 87.3392 216.795 87.3262C216.561 87.2872 216.353 87.2612 216.041 87.2482C216.106 87.5472 216.119 87.7292 216.119 88.1582V88.2362C214.897 88.2362 214.494 88.2102 214.416 88.2102C214.325 88.2102 214.312 88.2232 214.312 88.3142V88.7562C214.312 88.8602 214.325 88.8732 214.416 88.8732C214.494 88.8732 214.897 88.8472 216.119 88.8472V90.0172H215.781C214.468 90.0172 214.026 89.9912 213.961 89.9912C213.87 89.9912 213.857 90.0042 213.857 90.0952V90.5372C213.857 90.6412 213.87 90.6542 213.961 90.6542C214.026 90.6542 214.468 90.6282 215.781 90.6282H220.019C221.332 90.6282 221.774 90.6542 221.839 90.6542C221.93 90.6542 221.943 90.6412 221.943 90.5372V90.0952ZM218.771 90.0172H216.821V88.8472H218.771V90.0172ZM213.246 88.8472C213.246 88.0282 213.272 87.6901 213.272 87.6252C213.272 87.5342 213.259 87.5212 213.168 87.5212C213.103 87.5212 212.908 87.5472 212.232 87.5472H211.569C210.906 87.5472 210.737 87.5212 210.685 87.5212C210.594 87.5212 210.581 87.5342 210.581 87.6252V88.1842C210.581 88.2882 210.594 88.3012 210.685 88.3012C210.737 88.3012 210.906 88.2752 211.569 88.2752H212.505V91.4992C212.141 91.9022 211.712 92.2662 211.335 92.5522C211.062 92.7602 210.828 92.8902 210.542 93.0332C210.659 93.2932 210.789 93.5142 210.919 93.7092C210.971 93.7872 211.023 93.8262 211.075 93.8262C211.127 93.8262 211.179 93.7872 211.231 93.7092C211.27 93.6312 211.348 93.5662 211.504 93.4362C212.024 92.9942 212.466 92.6042 212.869 92.1752C213.155 92.7732 213.519 93.1892 214.117 93.4622C214.741 93.7612 215.898 93.8782 217.315 93.8782C218.641 93.8782 220.24 93.8262 221.93 93.7222C222.19 93.6962 222.19 93.6962 222.229 93.4362C222.268 93.2412 222.32 93.0592 222.463 92.8902C220.539 93.0722 218.68 93.1502 217.016 93.1502C215.781 93.1502 214.897 93.0332 214.416 92.8382C213.831 92.5652 213.48 92.2272 213.246 91.5512V88.8472ZM218.914 85.1681H220.383C221.111 85.1681 221.332 85.1942 221.41 85.1942C221.501 85.1942 221.514 85.1811 221.514 85.0902C221.514 85.0252 221.488 84.8302 221.488 84.2972V83.8551C221.488 83.3482 221.514 83.1662 221.514 83.1012C221.514 83.0101 221.501 82.9971 221.41 82.9971C221.332 82.9971 221.111 83.0231 220.383 83.0231H219.278C218.472 83.0231 218.251 82.9971 218.186 82.9971C218.082 82.9971 218.069 83.0101 218.069 83.1012V83.5561C218.069 83.6472 218.082 83.6601 218.186 83.6601C218.251 83.6601 218.472 83.6342 219.278 83.6342H220.786V84.5831H219.226C218.589 84.5831 218.355 84.5572 218.277 84.5572C218.186 84.5572 218.173 84.5701 218.173 84.6612C218.173 84.7391 218.199 84.8821 218.199 85.1681V85.8052C218.199 86.4291 218.29 86.5722 218.472 86.7281C218.641 86.8712 219.031 86.9232 219.941 86.9232C220.968 86.9232 221.371 86.8712 221.579 86.7022C221.735 86.5722 221.813 86.4291 221.878 86.0781C221.917 85.8441 221.917 85.8311 221.709 85.7532C221.553 85.7012 221.371 85.6102 221.228 85.5062C221.215 85.9222 221.176 86.1042 221.085 86.1951C220.981 86.2862 220.734 86.3251 220.097 86.3251C219.317 86.3251 219.122 86.2992 219.031 86.2212C218.94 86.1431 218.914 86.0392 218.914 85.6621V85.1681ZM214.676 85.1681H216.106C216.834 85.1681 217.068 85.1942 217.133 85.1942C217.224 85.1942 217.237 85.1811 217.237 85.0902C217.237 85.0252 217.211 84.8302 217.211 84.2972V83.8551C217.211 83.3482 217.237 83.1662 217.237 83.1012C217.237 83.0101 217.224 82.9971 217.133 82.9971C217.068 82.9971 216.834 83.0231 216.106 83.0231H215.027C214.234 83.0231 214 82.9971 213.922 82.9971C213.831 82.9971 213.818 83.0101 213.818 83.1012V83.5561C213.818 83.6472 213.831 83.6601 213.922 83.6601C214 83.6601 214.234 83.6342 215.027 83.6342H216.509V84.5831H214.975C214.364 84.5831 214.117 84.5572 214.052 84.5572C213.948 84.5572 213.935 84.5701 213.935 84.6612C213.935 84.7391 213.961 84.8821 213.961 85.1681V85.8052C213.961 86.4291 214.052 86.5722 214.247 86.7281C214.416 86.8712 214.793 86.9232 215.69 86.9232C216.639 86.9232 217.016 86.8712 217.224 86.7022C217.38 86.5722 217.458 86.4291 217.523 86.0781C217.549 85.8441 217.549 85.8311 217.367 85.7661C217.172 85.7012 217.029 85.6102 216.899 85.5062C216.886 85.9092 216.873 86.0781 216.769 86.1822C216.665 86.2862 216.34 86.3251 215.742 86.3251C215.079 86.3251 214.884 86.2992 214.793 86.2212C214.702 86.1431 214.676 86.0392 214.676 85.6491V85.1681ZM218.719 91.0572C218.602 91.1742 218.628 91.2002 218.706 91.2522C219.525 91.8762 220.279 92.2662 221.15 92.6172C221.384 92.6952 221.41 92.6952 221.54 92.4612C221.605 92.3312 221.709 92.1752 221.826 92.0582C220.773 91.7332 219.941 91.3822 219.187 90.7972C219.096 90.7322 219.07 90.7192 218.953 90.8362L218.719 91.0572ZM211.205 83.2702C211.062 83.3611 211.049 83.3871 211.114 83.4522C211.634 83.9462 212.115 84.6092 212.557 85.3242C212.622 85.4281 212.661 85.4151 212.817 85.2981L213.116 85.0641C213.246 84.9602 213.259 84.9341 213.207 84.8562C212.739 84.1411 212.258 83.5561 211.725 83.0231C211.647 82.9581 211.634 82.9712 211.491 83.0621L211.205 83.2702ZM217.068 91.2522C217.081 91.2002 217.029 91.1352 216.951 91.0832C216.795 90.9662 216.626 90.8362 216.444 90.7452C216.301 90.9272 216.132 91.0832 215.924 91.2262C215.573 91.4342 214.936 91.7852 214.026 92.0842C214.169 92.1622 214.286 92.2662 214.377 92.3962C214.546 92.6042 214.559 92.6042 214.793 92.5132C215.508 92.2272 216.067 91.9282 216.522 91.6162C216.639 91.5512 216.821 91.4082 216.899 91.3822C216.99 91.3562 217.055 91.3042 217.068 91.2522ZM233.578 87.6382V88.2232C233.578 88.3142 233.591 88.3272 233.682 88.3272H234.267C234.358 88.3272 234.371 88.3142 234.371 88.2232C234.371 88.1582 234.345 87.8592 234.345 86.7932V84.7132C234.345 83.8031 234.371 83.4781 234.371 83.4002C234.371 83.3091 234.358 83.2961 234.267 83.2961C234.202 83.2961 233.812 83.3221 232.668 83.3221H230.328C229.197 83.3221 228.807 83.2961 228.729 83.2961C228.638 83.2961 228.625 83.3091 228.625 83.4002C228.625 83.4781 228.651 83.9591 228.651 85.1031C228.651 87.1181 228.651 88.4572 228.417 89.7312C228.144 91.1872 227.533 92.4612 226.493 93.5532C226.649 93.6312 226.831 93.7482 226.974 93.9172C227.065 94.0082 227.104 94.0472 227.143 94.0472C227.195 94.0472 227.234 94.0082 227.299 93.9172C228.274 92.7342 228.885 91.3952 229.132 90.0692C229.288 89.2632 229.366 88.5092 229.405 87.6382H231.134C231.524 90.2642 232.59 92.4352 234.436 93.8912C234.527 93.9562 234.579 93.9952 234.618 93.9952C234.67 93.9952 234.709 93.9432 234.774 93.8392C234.904 93.6442 235.112 93.4622 235.255 93.3582C233.396 92.1752 232.239 90.0822 231.875 87.6382H233.578ZM233.578 86.9232H229.418C229.431 86.4032 229.431 85.8441 229.431 85.1942V84.0371H233.578V86.9232ZM226.259 85.8831H226.415C227.377 85.8831 227.65 85.9092 227.728 85.9092C227.819 85.9092 227.832 85.8961 227.832 85.8052V85.2461C227.832 85.1552 227.819 85.1422 227.728 85.1422C227.65 85.1422 227.377 85.1681 226.415 85.1681H226.259V84.1152C226.259 83.3741 226.259 83.1271 226.324 82.9842C226.363 82.8931 226.402 82.8281 226.402 82.7372C226.402 82.6852 226.337 82.6461 226.246 82.6331C225.999 82.5941 225.713 82.5682 225.388 82.5552C225.466 82.9842 225.479 83.3611 225.479 84.1282V85.1681H224.972C224.023 85.1681 223.737 85.1422 223.672 85.1422C223.581 85.1422 223.568 85.1552 223.568 85.2461V85.8052C223.568 85.8961 223.581 85.9092 223.672 85.9092C223.737 85.9092 224.023 85.8831 224.972 85.8831H225.479V88.7042C225.167 88.8212 224.868 88.9252 224.621 89.0032C224.153 89.1592 223.828 89.2372 223.477 89.3022C223.555 89.5882 223.633 89.8352 223.724 90.0692C223.763 90.1602 223.802 90.1862 223.854 90.1862C223.919 90.1862 223.984 90.1342 224.023 90.0952C224.088 90.0302 224.218 89.9522 224.504 89.8482C224.816 89.7442 225.154 89.6142 225.479 89.4842V92.6822C225.479 92.7472 225.479 92.8122 225.466 92.8772C225.44 93.1762 225.31 93.2672 224.998 93.2672C224.595 93.2672 224.283 93.2542 223.958 93.2282C224.062 93.3712 224.153 93.5792 224.205 93.8002C224.27 94.0472 224.27 94.0602 224.53 94.0602C225.388 94.0602 225.674 94.0212 225.934 93.8262C226.181 93.6442 226.272 93.4102 226.272 92.8122C226.272 92.3182 226.259 91.5512 226.259 90.8362V89.1722C226.753 88.9642 227.221 88.7432 227.637 88.5482C227.871 88.4312 227.897 88.3792 227.897 88.1582C227.897 87.9632 227.91 87.7682 227.923 87.6252C227.39 87.8852 226.818 88.1582 226.259 88.3922V85.8831ZM239.48 83.1791C239.623 83.7771 239.61 84.3361 239.584 85.1422C239.519 86.9752 239.402 89.0942 239.402 90.9402C239.402 92.8512 240.195 93.5532 241.664 93.5532C243.523 93.5532 245.252 92.6822 246.617 91.3692C246.734 91.2652 246.773 91.2002 246.773 91.1222C246.773 91.0702 246.747 91.0182 246.721 90.9402C246.643 90.7452 246.539 90.4852 246.5 90.1862C245.161 91.6682 243.471 92.6692 241.82 92.6692C240.689 92.6692 240.286 92.2272 240.286 90.7712C240.286 88.9772 240.364 87.1962 240.481 85.2331C240.533 84.4531 240.585 84.0502 240.637 83.8942C240.689 83.7642 240.741 83.6601 240.741 83.5561C240.741 83.4652 240.676 83.4002 240.533 83.3611C240.273 83.2702 239.87 83.2182 239.48 83.1791ZM255.455 85.1552C253.414 86.2342 252.283 87.7422 252.283 89.5752C252.283 92.2012 254.649 93.1372 256.846 93.3322C256.989 93.3452 257.028 93.2932 257.054 93.1502C257.093 92.9682 257.132 92.6692 257.132 92.5262C257.132 92.4222 257.093 92.3962 256.924 92.3832C255.026 92.2272 253.141 91.5902 253.141 89.4322C253.141 87.6901 254.597 86.0912 256.495 85.3372C257.171 85.0641 257.691 84.9861 258.393 84.9471C258.523 84.9341 258.562 84.9082 258.562 84.7912C258.562 84.6221 258.523 84.3102 258.484 84.1411C258.458 84.0632 258.393 84.0241 258.263 84.0371C254.779 84.4661 252.14 84.8562 250.203 85.1681C249.397 85.2851 249.059 85.3242 248.591 85.3242C248.708 85.6752 248.825 85.9872 248.955 86.2471C248.994 86.3121 249.059 86.3641 249.137 86.3641C249.215 86.3641 249.293 86.3121 249.384 86.2732C249.54 86.1951 249.696 86.1431 250.164 86.0522C251.802 85.7141 253.492 85.4412 255.442 85.1292L255.455 85.1552ZM268.091 82.9712C267.935 83.2832 267.779 83.5041 267.519 83.7771C266.362 84.9471 264.945 86.3251 263.892 87.4432C263.593 87.7552 263.437 87.9762 263.437 88.2882C263.437 88.6002 263.593 88.8342 263.944 89.1072C265.478 90.2642 267.155 91.6552 268.845 93.5142C268.936 93.6312 268.988 93.6182 269.092 93.5402C269.222 93.4232 269.43 93.2282 269.586 93.0462C269.69 92.9162 269.664 92.8902 269.573 92.7862C267.883 91.0702 266.154 89.6792 264.555 88.4962C264.438 88.4182 264.386 88.3532 264.386 88.2622C264.386 88.1711 264.438 88.0672 264.568 87.9372C265.543 86.8972 267.129 85.4281 268.403 84.2711C268.598 84.0891 268.728 83.9982 268.884 83.9332C268.962 83.8942 269.014 83.8421 269.014 83.7642C269.014 83.7122 268.975 83.6472 268.923 83.5951C268.741 83.4132 268.39 83.1662 268.091 82.9712ZM278.543 85.5451C278.686 85.0511 278.803 84.5181 278.959 83.9851C279.024 83.7122 279.076 83.5951 279.167 83.4781C279.232 83.4002 279.271 83.3352 279.271 83.2702C279.271 83.2051 279.232 83.1532 279.167 83.1271C278.894 83.0101 278.491 82.8931 278.127 82.8281C278.153 83.2571 278.088 83.6861 278.023 84.0502C277.932 84.5312 277.828 84.9991 277.646 85.6882C276.814 85.7922 275.917 85.8441 275.306 85.8441C274.955 85.8441 274.734 85.8441 274.487 85.8182C274.526 86.0781 274.565 86.3512 274.591 86.5332C274.617 86.6502 274.643 86.6632 274.799 86.6632C275.683 86.6502 276.58 86.5982 277.425 86.5071C276.814 88.6782 276.073 90.7062 274.994 92.9942C274.968 93.0592 274.981 93.1242 275.046 93.1632C275.215 93.2542 275.553 93.4102 275.657 93.4492C275.748 93.4882 275.8 93.4882 275.852 93.3712C276.775 91.2652 277.568 89.0032 278.348 86.3641C279.141 86.2342 279.856 86.0651 280.701 85.8311C280.818 85.8052 280.844 85.7661 280.831 85.6362C280.818 85.4801 280.792 85.2592 280.766 85.1031C280.753 85.0122 280.714 84.9861 280.61 85.0122C279.882 85.2461 279.154 85.4412 278.543 85.5451ZM279.349 91.0312C279.362 91.8112 279.531 92.3962 279.986 92.7862C280.571 93.3192 281.442 93.5012 282.846 93.5012C283.47 93.5012 284.146 93.4362 284.549 93.3712C284.653 93.3582 284.692 93.3322 284.692 93.2022C284.692 93.0202 284.666 92.7342 284.64 92.5782C284.627 92.4742 284.588 92.4742 284.484 92.4872C283.951 92.5652 283.223 92.6562 282.56 92.6562C280.922 92.6562 280.194 92.2662 280.103 91.0962C280.09 90.9922 280.064 90.9662 279.96 90.9662C279.817 90.9662 279.57 90.9922 279.349 91.0312ZM280.324 88.3142C281.104 88.1452 281.91 88.0282 282.716 88.0282C283.262 88.0282 283.821 88.0801 284.38 88.1711C284.497 88.1972 284.536 88.1582 284.549 88.0022C284.562 87.8332 284.549 87.5602 284.536 87.4302C284.523 87.3522 284.497 87.3132 284.341 87.2872C283.834 87.2222 283.262 87.1572 282.729 87.1572C281.962 87.1572 281.208 87.2612 280.454 87.4302C280.311 87.4692 280.285 87.5081 280.285 87.6252C280.285 87.7811 280.298 88.0932 280.324 88.3142ZM282.495 84.0762C283.08 84.4922 283.626 85.1031 284.003 85.7402C284.042 85.8052 284.107 85.8182 284.172 85.7661L284.549 85.4542C284.601 85.4151 284.614 85.3631 284.575 85.3112C284.198 84.7391 283.626 84.1021 283.106 83.7381C283.054 83.6992 283.015 83.6992 282.976 83.7251L282.495 84.0762ZM283.639 83.2051C284.25 83.6601 284.809 84.2972 285.134 84.8302C285.186 84.9082 285.238 84.9082 285.29 84.8562L285.641 84.5442C285.706 84.4922 285.719 84.4531 285.68 84.3881C285.303 83.8421 284.718 83.2702 284.198 82.8672C284.146 82.8281 284.107 82.8411 284.055 82.8801L283.639 83.2051ZM292.57 85.5712C291.569 85.7402 290.776 85.8311 290.022 85.8702C289.58 85.8961 289.177 85.8961 288.735 85.8702C288.774 86.1562 288.826 86.3902 288.878 86.5461C288.917 86.6502 288.943 86.7022 289.034 86.7022C289.359 86.7152 289.749 86.6892 290.139 86.6632C291.036 86.5982 291.933 86.5071 292.934 86.3382C293.48 87.4821 294.078 88.4182 294.936 89.3412C294.234 89.0292 293.389 88.7562 292.18 88.7562C290.386 88.7562 288.956 89.5102 288.956 91.0182C288.956 92.7602 290.958 93.5272 293.337 93.5272C293.909 93.5272 294.598 93.4882 294.832 93.4622C294.936 93.4362 294.962 93.4232 295.001 93.3322C295.066 93.1372 295.144 92.7732 295.17 92.4872C294.637 92.5912 293.961 92.6432 293.298 92.6432C291.4 92.6432 289.788 92.1492 289.788 90.9532C289.788 90.0302 290.646 89.4712 292.206 89.4712C293.454 89.4712 294.377 89.7702 295.157 90.1732C295.313 90.2642 295.456 90.3422 295.625 90.4592C295.703 90.5112 295.729 90.5372 295.781 90.5372C295.833 90.5372 295.885 90.4852 295.95 90.4072C296.041 90.2772 296.197 90.0432 296.288 89.8872C296.314 89.8482 296.327 89.7962 296.327 89.7442C296.327 89.7052 296.301 89.6662 296.236 89.6272C296.119 89.5492 296.015 89.4712 295.885 89.3412C294.884 88.2492 294.195 87.1832 293.727 86.1692C294.78 85.9222 295.729 85.6621 296.535 85.3892C296.6 85.3631 296.613 85.3112 296.6 85.2201C296.561 85.0122 296.496 84.7912 296.431 84.6481C296.392 84.5572 296.327 84.5572 296.249 84.5831C295.521 84.8691 294.455 85.1681 293.402 85.4151C293.233 85.0122 293.116 84.7132 292.973 84.3231C292.83 83.9332 292.765 83.6342 292.739 83.4522C292.713 83.3221 292.726 83.1921 292.726 83.1141C292.726 82.9971 292.635 82.9192 292.453 82.9192C292.232 82.9192 291.829 82.9712 291.426 83.0362C291.66 83.3221 291.764 83.5172 291.972 84.0502C292.206 84.6612 292.349 85.0252 292.57 85.5712ZM301.124 84.3752C301.215 84.8171 301.228 85.1292 301.228 85.6232C301.228 86.4812 301.28 87.9502 301.462 89.2502C301.748 91.2912 302.567 92.7992 303.659 92.7992C304.53 92.7992 305.232 91.8112 305.596 90.7582C305.635 90.6282 305.596 90.5242 305.492 90.4332C305.323 90.2772 305.206 90.1212 305.063 89.7832C304.686 90.9922 304.192 91.8242 303.672 91.8242C303.048 91.8242 302.489 90.7062 302.294 89.1722C302.125 87.8462 302.112 87.0532 302.112 86.2212C302.112 85.5451 302.164 85.1811 302.216 85.0252C302.242 84.9341 302.268 84.8562 302.268 84.7912C302.268 84.7391 302.229 84.6871 302.151 84.6481C301.904 84.5312 301.488 84.4142 301.124 84.3752ZM307.78 86.0002C309.041 87.1442 309.86 88.5222 310.224 90.5112C310.237 90.6022 310.302 90.6412 310.393 90.6152C310.614 90.5372 310.796 90.4462 310.991 90.3162C311.056 90.2772 311.095 90.2382 311.082 90.1472C310.757 88.4052 309.873 86.8062 308.547 85.6491C308.495 85.5971 308.43 85.6102 308.352 85.6491C308.222 85.7141 308.027 85.8311 307.78 86.0002ZM314.774 90.7712C313.773 90.7712 312.941 91.5772 312.941 92.5782C312.941 93.5792 313.773 94.3852 314.774 94.3852C315.775 94.3852 316.607 93.5792 316.607 92.5782C316.607 91.5772 315.775 90.7712 314.774 90.7712ZM314.774 91.4212C315.424 91.4212 315.931 91.9412 315.931 92.5782C315.931 93.2152 315.424 93.7352 314.774 93.7352C314.137 93.7352 313.617 93.2152 313.617 92.5782C313.617 91.9412 314.137 91.4212 314.774 91.4212Z" fill="black"/>
<defs>
<filter id="filter0_d" x="25.5" y="75.2542" width="115" height="28" filterUnits="userSpaceOnUse" color-interpolation-filters="sRGB">
<feFlood flood-opacity="0" result="BackgroundImageFix"/>
<feColorMatrix in="SourceAlpha" type="matrix" values="0 0 0 0 0 0 0 0 0 0 0 0 0 0 0 0 0 0 127 0"/>
<feOffset dy="2"/>
<feColorMatrix type="matrix" values="0 0 0 0 0 0 0 0 0 0.494118 0 0 0 0 0.654902 0 0 0 1 0"/>
<feBlend mode="normal" in2="BackgroundImageFix" result="effect1_dropShadow"/>
<feBlend mode="normal" in="SourceGraphic" in2="effect1_dropShadow" result="shape"/>
</filter>
<clipPath id="clip0">
<rect x="0.5" y="40.2542" width="330" height="20" fill="white"/>
</clipPath>
<clipPath id="clip1">
<rect x="25.5" y="40.2542" width="13" height="17.3333" fill="white"/>
</clipPath>
</defs>
</svg>
