<svg width="378" height="79" viewBox="0 0 378 79" fill="none" xmlns="http://www.w3.org/2000/svg">
<rect x="0.765381" y="0.888672" width="376.875" height="78" rx="6" fill="#FAEA5B"/>
<path d="M41.7175 40.7188L35.0769 47.3594C34.6179 47.8184 33.8757 47.8184 33.4216 47.3594L32.3181 46.2559C31.8591 45.7969 31.8591 45.0547 32.3181 44.6006L37.0251 39.8936L32.3181 35.1865C31.8591 34.7275 31.8591 33.9854 32.3181 33.5313L33.4167 32.418C33.8757 31.959 34.6179 31.959 35.072 32.418L41.7126 39.0586C42.1765 39.5176 42.1765 40.2598 41.7175 40.7188ZM51.0925 39.0586L44.4519 32.418C43.9929 31.959 43.2507 31.959 42.7966 32.418L41.6931 33.5215C41.2341 33.9805 41.2341 34.7227 41.6931 35.1768L46.4002 39.8838L41.6931 44.5908C41.2341 45.0498 41.2341 45.792 41.6931 46.2461L42.7966 47.3496C43.2556 47.8086 43.9978 47.8086 44.4519 47.3496L51.0925 40.709C51.5515 40.2598 51.5515 39.5176 51.0925 39.0586Z" fill="black"/>
<path d="M81.2904 32.5137C79.6654 32.5137 78.4154 32.5137 77.0654 32.4137C77.0654 33.2887 77.1654 34.4887 77.2904 35.0137C77.3404 35.2887 77.4154 35.4637 77.6154 35.4387C78.9654 35.3387 80.2654 35.2887 81.5654 35.2887L88.0154 35.2637C86.4904 37.8887 85.1154 39.6637 83.3154 41.5387C80.7404 44.1637 78.4154 45.9387 74.5154 47.9137C75.3404 48.3637 76.0654 48.8637 76.6154 49.5387C76.7404 49.6887 76.8904 49.7637 77.0404 49.7637C77.2154 49.7637 77.3904 49.6637 77.6154 49.5637C80.3404 48.0387 83.1904 45.9137 86.0154 42.9637C88.2654 44.7387 90.4154 46.7137 92.5154 49.1637C92.6404 49.2887 92.7404 49.3637 92.8654 49.3637C92.9654 49.3637 93.0654 49.3137 93.1654 49.2137C93.7904 48.6887 94.3654 48.0887 94.8404 47.5137C94.9654 47.3637 95.0154 47.2387 95.0154 47.1387C95.0154 47.0387 94.9404 46.9137 94.8154 46.7887C92.5154 44.4637 90.2904 42.5137 87.8904 40.7387C89.0904 39.2137 90.0654 37.8137 91.0904 36.0637C91.3654 35.6137 91.6904 35.2387 92.0154 34.9637C92.2404 34.7887 92.3404 34.6137 92.3404 34.4637C92.3404 34.3637 92.2904 34.2637 92.2154 34.1387C91.7404 33.4887 91.1654 32.8387 90.5904 32.3887C90.4404 32.2887 90.3154 32.1887 90.1654 32.1887C90.0654 32.1887 89.9904 32.2137 89.8904 32.2887C89.5154 32.4887 89.0654 32.5137 88.1654 32.5137H81.2904ZM105.415 34.0637C103.69 34.0637 101.665 34.0637 99.9654 33.8887C100.015 34.8137 100.115 35.6887 100.265 36.5637C100.315 36.8637 100.39 37.0137 100.715 37.0137C102.065 36.8887 103.915 36.8387 105.365 36.8387L115.89 36.7887C114.04 38.9387 112.215 40.8637 110.115 42.6887C109.065 41.7137 107.865 40.8387 106.565 39.8887C106.415 39.7887 106.315 39.7137 106.215 39.7137C106.14 39.7137 106.04 39.7637 105.94 39.8387C105.49 40.2387 104.64 41.0387 104.14 41.5137C107.215 43.7137 109.74 46.1637 112.165 49.2887C112.265 49.4387 112.365 49.5137 112.465 49.5137C112.565 49.5137 112.665 49.4637 112.79 49.3887C113.365 48.9387 113.915 48.4137 114.415 47.9137C114.565 47.7637 114.64 47.6387 114.64 47.5137C114.64 47.3887 114.59 47.2887 114.465 47.1387C113.74 46.2137 113.065 45.4387 112.265 44.6387C114.515 42.6387 116.84 40.3137 118.99 37.9387C119.315 37.5887 119.665 37.3637 120.19 36.9887C120.415 36.8387 120.515 36.6637 120.515 36.4637C120.515 36.2887 120.44 36.1137 120.315 35.9137C119.765 35.1387 119.19 34.5137 118.515 33.9137C118.39 33.7887 118.24 33.7137 118.09 33.7137C117.99 33.7137 117.865 33.7637 117.74 33.8387C117.415 33.9887 117.115 34.0637 115.665 34.0637H105.415ZM138.89 42.1637C140.74 42.1637 142.59 42.1887 144.465 42.2137C144.815 42.2387 144.915 42.1387 144.915 41.8387C144.965 41.0887 144.965 40.2387 144.915 39.4887C144.915 39.1887 144.84 39.1137 144.465 39.1387C142.54 39.1637 140.615 39.2137 138.715 39.2137H130.665C128.14 39.2137 126.89 39.1637 125.265 38.9137C125.365 40.1887 125.515 41.3637 125.64 41.9387C125.715 42.3137 125.915 42.4637 126.215 42.4637C126.465 42.4637 127.415 42.1637 129.89 42.1637H138.89ZM159.315 33.4637C159.315 32.0637 159.315 31.4387 159.49 31.1137C159.615 30.8887 159.69 30.6887 159.69 30.5387C159.69 30.3387 159.565 30.1887 159.215 30.1137C158.49 29.9137 157.24 29.7887 156.09 29.7137C156.265 30.7137 156.34 31.5387 156.34 33.4137V45.7137C156.34 47.3137 156.315 48.7887 156.24 50.6387C156.24 50.9387 156.365 51.0137 156.715 51.0137C157.44 51.0637 158.215 51.0637 158.94 51.0137C159.29 51.0137 159.415 50.9387 159.39 50.6387C159.34 48.8387 159.29 47.3637 159.29 45.7387V40.2137C161.315 40.8387 163.565 41.9387 165.865 43.4137C165.965 43.5137 166.065 43.5387 166.14 43.5387C166.265 43.5387 166.365 43.4387 166.465 43.2637C166.815 42.6887 167.215 41.9137 167.54 41.0887C167.665 40.7637 167.54 40.5887 167.265 40.4387C164.79 38.9637 162.365 37.9887 159.315 37.0387V33.4637ZM186.24 46.3137C185.215 48.1387 183.24 49.1637 179.965 49.7137C180.365 50.0887 180.74 50.6387 181.04 51.2637C181.24 51.7137 181.315 51.8637 181.54 51.8637C181.665 51.8637 181.84 51.8137 182.115 51.7387C185.19 50.8637 187.14 49.4637 188.265 47.5637C189.665 49.5637 191.84 51.0137 195.04 51.6887C195.815 51.8387 195.815 51.8387 196.09 51.0887C196.24 50.5637 196.54 50.0137 196.915 49.4637C193.64 49.1137 191.39 48.0137 190.09 46.3137H192.765C195.19 46.3137 196.04 46.3637 196.19 46.3637C196.44 46.3637 196.465 46.3387 196.465 46.0887V44.4387C196.465 44.1887 196.44 44.1637 196.19 44.1637C196.04 44.1637 195.19 44.2137 192.765 44.2137H189.39C189.465 43.7387 189.515 43.2137 189.54 42.6887H191.24C193.49 42.6887 194.24 42.7387 194.415 42.7387C194.665 42.7387 194.69 42.7137 194.69 42.4637C194.69 42.3137 194.64 41.6887 194.64 40.2637V37.0887C194.64 35.6637 194.69 35.0387 194.69 34.8887C194.69 34.6387 194.665 34.6137 194.415 34.6137C194.24 34.6137 193.49 34.6637 191.24 34.6637H185.89C183.665 34.6637 182.865 34.6137 182.715 34.6137C182.44 34.6137 182.415 34.6387 182.415 34.8887C182.415 35.0637 182.465 35.6637 182.465 37.0887V40.2637C182.465 41.6887 182.415 42.3137 182.415 42.4637C182.415 42.7137 182.44 42.7387 182.715 42.7387C182.865 42.7387 183.665 42.6887 185.89 42.6887H187.115C187.09 43.2387 187.04 43.7387 186.94 44.2137H184.565C182.14 44.2137 181.315 44.1637 181.165 44.1637C180.89 44.1637 180.865 44.1887 180.865 44.4387V46.0887C180.865 46.3387 180.89 46.3637 181.165 46.3637C181.315 46.3637 182.14 46.3137 184.565 46.3137H186.24ZM192.215 40.8137H184.84V39.4637H192.215V40.8137ZM192.215 36.5387V37.7887H184.84V36.5387H192.215ZM178.915 51.8387C179.165 51.8387 179.19 51.8137 179.19 51.5887C179.19 51.1387 179.04 45.7637 179.015 39.1637C179.365 40.2887 179.815 41.2887 180.34 42.1887C180.49 42.4637 180.59 42.5887 180.665 42.5887C180.74 42.5887 180.84 42.4637 180.965 42.2137C181.265 41.6137 181.615 41.1137 181.99 40.7387C180.865 39.3387 179.815 37.7137 179.19 35.9887C180.565 35.9887 181.04 36.0387 181.19 36.0387C181.415 36.0387 181.44 36.0137 181.44 35.7637V33.9887C181.44 33.7387 181.415 33.7137 181.19 33.7137C181.04 33.7137 180.565 33.7637 179.09 33.7637V32.2887C179.09 30.6137 179.115 30.2137 179.24 29.9387C179.34 29.7387 179.39 29.6137 179.39 29.4137C179.39 29.2887 179.24 29.1887 178.99 29.1387C178.24 29.0387 177.515 28.9887 176.565 28.9637C176.74 29.9637 176.765 30.8137 176.765 32.3137V33.7637H176.39C174.715 33.7637 174.215 33.7137 174.065 33.7137C173.84 33.7137 173.815 33.7387 173.815 33.9887V35.7637C173.815 36.0137 173.84 36.0387 174.065 36.0387C174.215 36.0387 174.715 35.9887 176.39 35.9887H176.665C175.965 39.1637 174.69 41.7637 173.215 43.8387C173.515 44.2387 173.865 44.9387 174.09 45.6887C174.165 45.9887 174.265 46.1137 174.34 46.1137C174.44 46.1137 174.565 45.9887 174.715 45.7137C175.615 44.2137 176.315 42.5137 176.815 40.6137C176.79 46.3387 176.665 51.1637 176.665 51.5887C176.665 51.8137 176.69 51.8387 176.94 51.8387H178.915ZM181.29 32.8137C181.29 33.0637 181.315 33.0887 181.54 33.0887C181.69 33.0887 182.465 33.0387 184.69 33.0387C184.69 33.5137 184.665 33.7887 184.665 33.8887C184.665 34.1387 184.69 34.1637 184.965 34.1637H186.765C187.015 34.1637 187.04 34.1387 187.04 33.8887C187.04 33.8137 187.015 33.5137 186.99 33.0387H190.065C190.065 33.5137 190.04 33.8137 190.04 33.9137C190.04 34.1637 190.065 34.1887 190.315 34.1887H192.115C192.39 34.1887 192.415 34.1637 192.415 33.9137C192.415 33.8387 192.39 33.5137 192.365 33.0387H192.615C195.04 33.0387 195.89 33.0887 196.04 33.0887C196.265 33.0887 196.29 33.0637 196.29 32.8137V31.2637C196.29 31.0137 196.265 30.9887 196.04 30.9887C195.89 30.9887 195.04 31.0387 192.615 31.0387H192.365C192.365 30.3887 192.415 29.9137 192.49 29.7637C192.565 29.6137 192.615 29.5137 192.615 29.3637C192.615 29.2387 192.49 29.1637 192.265 29.1387C191.59 29.0637 190.74 29.0137 189.94 28.9887C190.065 29.5887 190.09 30.2137 190.09 31.0387H186.99C186.99 30.3637 187.065 29.8887 187.14 29.7387C187.19 29.6137 187.24 29.4887 187.24 29.3637C187.24 29.2387 187.14 29.1387 186.915 29.1137C186.265 29.0387 185.39 28.9887 184.565 28.9637C184.69 29.5887 184.715 30.2137 184.715 31.0387C182.465 31.0387 181.69 30.9887 181.54 30.9887C181.315 30.9887 181.29 31.0137 181.29 31.2637V32.8137ZM217.915 50.9637C220.115 50.9637 220.865 51.0137 221.015 51.0137C221.265 51.0137 221.265 50.9887 221.265 50.7387V48.9137C221.265 48.6887 221.265 48.6637 221.015 48.6637C220.865 48.6637 220.115 48.7137 217.915 48.7137H211.29V46.3387H214.965C217.415 46.3387 218.265 46.3887 218.415 46.3887C218.665 46.3887 218.69 46.3637 218.69 46.1137V44.3387C218.69 44.0637 218.665 44.0387 218.415 44.0387C218.265 44.0387 217.415 44.0887 214.965 44.0887H211.29C211.29 43.1887 211.34 42.8137 211.44 42.5637C211.515 42.3887 211.565 42.2387 211.565 42.0387C211.565 41.8887 211.415 41.7637 211.215 41.7387C210.54 41.6637 209.915 41.6137 209.24 41.5887C209.215 41.1637 209.215 40.4137 209.215 39.2137V37.2387C210.79 37.2637 211.39 37.2887 211.515 37.2887C211.765 37.2887 211.79 37.2637 211.79 36.9887V35.3137C211.79 35.0637 211.765 35.0387 211.515 35.0387C211.39 35.0387 210.79 35.0887 209.215 35.0887V32.1137C210.415 32.1387 210.89 32.1637 211.015 32.1637C211.265 32.1637 211.29 32.1387 211.29 31.8887V30.2387C211.29 29.9887 211.265 29.9637 211.015 29.9637C210.865 29.9637 210.14 30.0137 207.965 30.0137H203.115C200.94 30.0137 200.215 29.9637 200.065 29.9637C199.815 29.9637 199.79 29.9887 199.79 30.2387V31.8887C199.79 32.1387 199.815 32.1637 200.065 32.1637C200.19 32.1637 200.79 32.1387 202.365 32.1137V33.3887C202.365 34.0137 202.34 34.5637 202.315 35.0887C200.265 35.0887 199.49 35.0387 199.365 35.0387C199.115 35.0387 199.09 35.0637 199.09 35.3137V36.9887C199.09 37.2637 199.115 37.2887 199.365 37.2887C199.49 37.2887 200.215 37.2637 202.09 37.2387C201.99 37.7887 201.865 38.2387 201.74 38.5887C201.315 39.6637 200.365 40.6887 198.965 41.5637C199.465 41.8387 199.94 42.2387 200.39 42.7137C200.69 43.0387 200.815 43.1887 200.965 43.1887C201.09 43.1887 201.24 43.0637 201.515 42.8137C202.69 41.8387 203.465 40.8637 203.965 39.4887C204.215 38.8387 204.39 38.0887 204.515 37.2387H206.865V39.2137C206.865 41.0387 206.815 41.8637 206.815 42.0137C206.815 42.2887 206.84 42.3137 207.09 42.3137H208.665C208.715 42.9137 208.74 43.4637 208.74 44.0887H205.44C203.015 44.0887 202.165 44.0387 202.015 44.0387C201.74 44.0387 201.715 44.0637 201.715 44.3387V46.1137C201.715 46.3637 201.74 46.3887 202.015 46.3887C202.165 46.3887 203.015 46.3387 205.44 46.3387H208.74V48.7137H202.34C200.14 48.7137 199.365 48.6637 199.215 48.6637C198.965 48.6637 198.965 48.6887 198.965 48.9137V50.7387C198.965 50.9887 198.965 51.0137 199.215 51.0137C199.365 51.0137 200.14 50.9637 202.34 50.9637H217.915ZM204.715 35.0887C204.74 34.6637 204.74 34.1887 204.74 33.7137V32.1137H206.865V35.0887H204.715ZM220.04 32.2637C220.04 30.9637 220.09 30.4387 220.215 30.1637C220.29 29.9887 220.365 29.8137 220.365 29.5887C220.365 29.4637 220.215 29.3387 219.965 29.3137C219.09 29.2137 218.415 29.1637 217.465 29.1387C217.64 30.0387 217.665 30.9637 217.665 32.3137V39.3887C217.665 39.9887 217.465 40.2137 216.74 40.2137C216.19 40.2137 215.465 40.1637 214.64 40.0637C214.915 40.6137 215.09 41.1637 215.19 41.7387C215.315 42.5137 215.34 42.5137 216.09 42.5137C217.965 42.5137 218.89 42.3137 219.34 42.0137C219.94 41.6137 220.065 41.1387 220.065 40.3637C220.065 39.4887 220.04 38.3637 220.04 37.0637V32.2637ZM212.765 35.8637C212.765 37.3887 212.715 38.0887 212.715 38.2387C212.715 38.5137 212.74 38.5387 212.99 38.5387H214.815C215.09 38.5387 215.115 38.5137 215.115 38.2387C215.115 38.0887 215.065 37.3887 215.065 35.8637V32.7637C215.065 31.6887 215.115 31.3137 215.215 31.1137C215.29 30.9637 215.315 30.8637 215.315 30.6887C215.315 30.5637 215.19 30.4387 214.94 30.4137C214.09 30.3387 213.54 30.2887 212.59 30.2637C212.74 31.1637 212.765 31.8887 212.765 32.7637V35.8637ZM237.84 42.2637C239.965 41.3887 241.59 40.8387 243.215 40.2637C243.715 40.0887 244.215 39.9637 244.74 39.8887C244.99 39.8387 245.115 39.7387 245.115 39.5387C245.115 39.3887 245.065 39.2137 244.915 38.9887C244.64 38.5387 243.99 37.6637 243.165 36.7887C242.54 37.4387 241.74 37.8887 241.265 38.1387C239.99 38.7887 238.565 39.4387 237.59 39.8887C237.34 37.9387 236.19 37.1887 234.54 37.1887C233.865 37.1887 232.84 37.4387 232.04 37.9637L232.015 37.9137C232.765 36.9887 233.315 36.0637 233.89 35.1387C235.715 34.9387 237.865 34.6637 239.74 34.3887C240.09 34.3387 240.19 34.2387 240.165 33.9887C240.14 33.2637 240.04 32.6887 239.915 32.1887C239.865 31.9637 239.79 31.8887 239.515 31.9387C238.015 32.2887 236.49 32.5387 234.965 32.7137C235.265 32.0387 235.39 31.7137 235.54 31.3637C235.665 31.1137 235.815 30.8887 235.965 30.7637C236.09 30.6637 236.14 30.5137 236.14 30.3887C236.14 30.2137 236.04 30.0387 235.84 29.9637C235.19 29.7137 234.09 29.4387 232.99 29.2637C232.99 29.9387 232.915 30.3637 232.815 30.7887C232.565 31.6637 232.34 32.2637 232.065 32.9387C230.165 33.0387 228.215 33.0637 226.315 32.9637C226.39 33.7137 226.49 34.6387 226.565 35.0387C226.615 35.3137 226.69 35.4387 226.915 35.4387C228.39 35.4387 229.74 35.4137 230.915 35.3637C229.465 37.8637 227.615 39.8387 225.69 41.5637C225.565 41.6637 225.515 41.7387 225.515 41.8387C225.515 41.8887 225.54 41.9637 225.615 42.0637C225.94 42.5887 226.69 43.3637 227.04 43.7137C227.14 43.8137 227.24 43.8887 227.315 43.8887C227.415 43.8887 227.49 43.8137 227.615 43.6637C228.415 42.7137 229.04 41.9887 230.115 40.9387C231.265 39.9387 232.39 39.1887 233.565 39.1387C234.69 39.0887 234.99 39.5887 235.065 40.8637C231.29 42.8137 229.79 44.5637 229.79 46.9637C229.79 49.8637 231.965 51.0887 236.065 51.0887C238.49 51.0887 240.115 51.0387 242.265 50.7637C242.465 50.7637 242.565 50.5887 242.54 50.2887C242.54 49.6887 242.44 48.8137 242.315 48.2387C242.29 48.0137 242.19 47.9387 241.965 47.9637C240.04 48.2387 238.04 48.4637 235.74 48.4637C233.115 48.4637 232.265 47.7887 232.265 46.7387C232.265 45.5387 233.065 44.5637 235.29 43.4137C235.265 44.3137 235.265 45.5637 235.265 46.4637C235.265 46.7137 235.365 46.8637 235.59 46.8637C236.29 46.8637 237.04 46.7887 237.365 46.7387C237.69 46.6887 237.84 46.5637 237.84 46.2887V42.2637ZM249.215 36.8137C249.74 37.8887 250.365 38.8637 250.815 39.4137C251.09 39.7887 251.29 39.9387 251.54 39.9387C251.665 39.9387 251.865 39.8637 252.215 39.5637C252.515 39.3387 253.14 39.0637 253.94 38.6637C257.74 36.9887 260.715 36.0887 262.965 36.0887C265.74 36.0887 267.265 37.5387 267.265 39.8887C267.265 42.1887 265.94 43.7887 263.815 44.8637C262.115 45.6887 260.34 46.1637 257.04 46.7137C257.865 47.2387 258.49 47.9887 258.79 48.6887C258.965 49.1637 259.165 49.1887 259.665 49.0887C261.965 48.5887 263.915 48.1887 266.015 47.0137C268.99 45.4137 270.415 43.3387 270.415 40.0637C270.415 36.1387 267.54 33.4387 263.065 33.4387C261.04 33.4387 257.915 34.2137 254.065 35.5137C251.24 36.4637 250.315 36.6887 249.215 36.8137ZM280.99 35.9137C280.015 36.0637 279.09 36.1887 278.04 36.2887C276.94 36.3887 275.84 36.4637 274.74 36.4637C275.015 37.5637 275.29 38.4637 275.515 39.0387C275.665 39.4387 275.965 39.4887 276.315 39.3637C276.64 39.2387 277.04 39.0887 277.69 38.9637C278.365 38.8387 279.165 38.6887 280.14 38.5387C278.865 42.2137 277.565 44.8637 275.565 48.3387C275.49 48.4387 275.465 48.5387 275.465 48.6137C275.465 48.7637 275.54 48.8637 275.665 48.9887C275.965 49.2637 276.94 49.8637 277.39 50.0887C277.69 50.2387 277.89 50.1887 278.04 49.8637C279.99 46.3637 281.415 42.9137 283.065 38.1137C283.79 38.0137 284.565 37.9387 285.165 37.9387C286.265 37.9387 286.59 38.4887 286.59 40.2637C286.59 42.6887 286.14 45.0637 285.615 46.4637C285.215 47.4887 284.84 47.7887 284.015 47.7887C283.24 47.7887 282.39 47.6637 281.265 47.2387C281.615 48.0637 281.665 48.7637 281.74 49.5637C281.74 49.9387 281.89 50.1637 282.19 50.2637C282.74 50.4387 283.465 50.5387 284.665 50.5387C286.115 50.5387 287.315 49.7887 288.04 48.1887C288.89 46.3887 289.39 43.1137 289.39 40.1637C289.39 37.1387 288.115 35.5387 285.765 35.5387C285.24 35.5387 284.49 35.5637 283.815 35.6387C284.14 34.5887 284.39 33.6637 284.715 32.6387C284.84 32.2887 284.965 32.0137 285.215 31.6887C285.34 31.5637 285.39 31.4387 285.39 31.3137C285.39 31.0887 285.24 30.8887 284.99 30.8137C283.99 30.4387 283.29 30.2637 281.99 29.9887C281.99 31.0387 281.865 32.0137 281.74 32.7637C281.565 33.6137 281.39 34.4887 280.99 35.9137ZM289.89 35.7137C291.69 37.4137 292.99 39.5637 293.99 42.1887C294.065 42.4887 294.315 42.5137 294.565 42.3887C295.065 42.1387 296.015 41.5387 296.44 41.1387C296.615 40.9887 296.64 40.8637 296.54 40.6387C295.615 38.2387 294.09 36.1637 292.39 34.5637C292.215 34.3887 292.09 34.3387 291.915 34.4387C291.24 34.7887 290.515 35.2887 289.89 35.7137ZM307.365 29.1887C307.065 29.9387 306.79 30.6137 306.615 31.5387C306.54 31.8637 306.665 31.9887 306.79 32.0387C309.365 33.0387 311.315 33.5137 314.04 33.9637C314.24 33.9887 314.315 33.8637 314.39 33.6137C314.565 33.1387 314.84 31.9387 314.94 31.4137C314.99 31.2137 314.89 31.0137 314.615 30.9637C312.04 30.5887 309.69 30.1137 307.365 29.1887ZM302.515 37.4387C302.915 38.4387 303.44 39.5387 303.79 40.0637C303.94 40.2887 304.165 40.6137 304.49 40.6137C304.69 40.6137 304.84 40.5137 305.04 40.3637C305.34 40.1387 305.69 39.8887 307.165 39.1637C308.59 38.4637 309.69 38.0887 311.09 38.0887C312.54 38.0887 313.415 39.1637 313.415 41.2387C313.415 43.2637 312.765 44.6387 312.04 45.6637C310.99 47.1387 309.29 48.5387 306.54 49.8387C307.39 50.1637 308.065 50.6387 308.615 51.1637C308.84 51.3887 308.99 51.4887 309.215 51.4887C309.34 51.4887 309.465 51.4387 309.64 51.3637C311.615 50.3137 313.29 48.9887 314.465 47.3887C315.615 45.8637 316.49 43.8637 316.49 41.4137C316.49 37.7387 314.565 35.4637 311.215 35.4637C309.315 35.4637 307.59 36.0137 305.49 36.7137C304.14 37.1387 303.54 37.3387 302.515 37.4387ZM337.065 30.0887H333.165L333.865 44.9637H336.39L337.065 30.0887ZM333.315 47.3887V50.7637H336.865V47.3887H333.315Z" fill="black"/>
<rect x="0.765381" y="0.888672" width="376.875" height="78" rx="6" stroke="black"/>
</svg>
